<svg xmlns="http://www.w3.org/2000/svg" xmlns:xlink="http://www.w3.org/1999/xlink" width="321.413" height="368.347" viewBox="0 0 321.413 368.347">
  <defs>
    <filter id="パス_117" x="0" y="0" width="321.413" height="368.347" filterUnits="userSpaceOnUse">
      <feOffset dy="3" input="SourceAlpha"/>
      <feGaussianBlur stdDeviation="3" result="blur"/>
      <feFlood flood-opacity="0.161"/>
      <feComposite operator="in" in2="blur"/>
      <feComposite in="SourceGraphic"/>
    </filter>
    <filter id="Icon_awesome-chalkboard-teacher" x="96.759" y="106.582" width="127.896" height="105.916" filterUnits="userSpaceOnUse">
      <feOffset dy="3" input="SourceAlpha"/>
      <feGaussianBlur stdDeviation="3" result="blur-2"/>
      <feFlood flood-opacity="0.161"/>
      <feComposite operator="in" in2="blur-2"/>
      <feComposite in="SourceGraphic"/>
    </filter>
  </defs>
  <g id="グループ_1879" data-name="グループ 1879" transform="translate(-799.293 -3073.704)">
    <g id="グループ_1877" data-name="グループ 1877">
      <g transform="matrix(1, 0, 0, 1, 799.29, 3073.7)" filter="url(#パス_117)">
        <path id="パス_117-2" data-name="パス 117" d="M87.588,303.413,0,151.711,87.588,0H262.76l87.587,151.711-87.587,151.7Z" transform="translate(312.41 6) rotate(90)" fill="#fffbc7"/>
      </g>
      <text id="ご提案_お客様に寄り添います" data-name="ご提案
お客様に寄り添います" transform="translate(960 3311.854)" fill="#232323" font-size="18" font-family="HiraginoSans-W6, Hiragino Sans" letter-spacing="0.14em"><tspan x="-30.78" y="0">ご提案</tspan><tspan y="0" font-family="Helvetica-Bold, Helvetica" font-weight="700"></tspan><tspan x="-101.34" y="31">お客様に寄り添います</tspan></text>
    </g>
    <g transform="matrix(1, 0, 0, 1, 799.29, 3073.7)" filter="url(#Icon_awesome-chalkboard-teacher)">
      <path id="Icon_awesome-chalkboard-teacher-2" data-name="Icon awesome-chalkboard-teacher" d="M35.716,60.442a3.928,3.928,0,0,0-1.212.187,22.651,22.651,0,0,1-7.03,1.187,22.67,22.67,0,0,1-7.032-1.187,3.918,3.918,0,0,0-1.211-.187A19.233,19.233,0,0,0,0,79.781a8.221,8.221,0,0,0,8.242,8.136H46.706a8.221,8.221,0,0,0,8.242-8.136A19.233,19.233,0,0,0,35.716,60.442Zm-8.242-5.495A16.484,16.484,0,1,0,10.99,38.463,16.484,16.484,0,0,0,27.474,54.948ZM101.653,0H35.716a8.392,8.392,0,0,0-8.242,8.515v7.969a21.73,21.73,0,0,1,10.99,3.056V10.99H98.906V60.442H87.916V49.453H65.937v10.99H52.846a21.885,21.885,0,0,1,6.815,10.99h41.992a8.392,8.392,0,0,0,8.242-8.515V8.515A8.392,8.392,0,0,0,101.653,0Z" transform="translate(105.76 112.58)" fill="#61954f"/>
    </g>
  </g>
</svg>
