<svg xmlns="http://www.w3.org/2000/svg" xmlns:xlink="http://www.w3.org/1999/xlink" width="347" height="337.984" viewBox="0 0 347 337.984">
  <defs>
    <filter id="パス_118" x="91.565" y="0" width="162.87" height="185.279" filterUnits="userSpaceOnUse">
      <feOffset dy="3" input="SourceAlpha"/>
      <feGaussianBlur stdDeviation="3" result="blur"/>
      <feFlood flood-opacity="0.161"/>
      <feComposite operator="in" in2="blur"/>
      <feComposite in="SourceGraphic"/>
    </filter>
    <filter id="Icon_material-cloud-done" x="131.703" y="37.197" width="82.593" height="63.669" filterUnits="userSpaceOnUse">
      <feOffset dy="3" input="SourceAlpha"/>
      <feGaussianBlur stdDeviation="3" result="blur-2"/>
      <feFlood flood-opacity="0.161"/>
      <feComposite operator="in" in2="blur-2"/>
      <feComposite in="SourceGraphic"/>
    </filter>
    <filter id="パス_117" x="0" y="152.704" width="162.87" height="185.279" filterUnits="userSpaceOnUse">
      <feOffset dy="3" input="SourceAlpha"/>
      <feGaussianBlur stdDeviation="3" result="blur-3"/>
      <feFlood flood-opacity="0.161"/>
      <feComposite operator="in" in2="blur-3"/>
      <feComposite in="SourceGraphic"/>
    </filter>
    <filter id="Icon_awesome-chalkboard-teacher" x="40.877" y="189.336" width="75.793" height="64.235" filterUnits="userSpaceOnUse">
      <feOffset dy="3" input="SourceAlpha"/>
      <feGaussianBlur stdDeviation="3" result="blur-4"/>
      <feFlood flood-opacity="0.161"/>
      <feComposite operator="in" in2="blur-4"/>
      <feComposite in="SourceGraphic"/>
    </filter>
    <filter id="パス_116" x="184.13" y="152.705" width="162.87" height="185.279" filterUnits="userSpaceOnUse">
      <feOffset dy="3" input="SourceAlpha"/>
      <feGaussianBlur stdDeviation="3" result="blur-5"/>
      <feFlood flood-opacity="0.161"/>
      <feComposite operator="in" in2="blur-5"/>
      <feComposite in="SourceGraphic"/>
    </filter>
    <filter id="パス_119" x="229.126" y="197.811" width="57.281" height="56.736" filterUnits="userSpaceOnUse">
      <feOffset dy="3" input="SourceAlpha"/>
      <feGaussianBlur stdDeviation="3" result="blur-6"/>
      <feFlood flood-opacity="0.161"/>
      <feComposite operator="in" in2="blur-6"/>
      <feComposite in="SourceGraphic"/>
    </filter>
    <filter id="パス_120" x="243.918" y="181.66" width="58.086" height="48.401" filterUnits="userSpaceOnUse">
      <feOffset dy="3" input="SourceAlpha"/>
      <feGaussianBlur stdDeviation="3" result="blur-7"/>
      <feFlood flood-opacity="0.161"/>
      <feComposite operator="in" in2="blur-7"/>
      <feComposite in="SourceGraphic"/>
    </filter>
  </defs>
  <g id="グループ_1934" data-name="グループ 1934" transform="translate(-18.5 -3140)">
    <g id="グループ_1912" data-name="グループ 1912" transform="translate(-188.808 66.296)">
      <g id="グループ_1876" data-name="グループ 1876" transform="translate(307.873 3079.704)">
        <g transform="matrix(1, 0, 0, 1, -100.57, -6)" filter="url(#パス_118)">
          <path id="パス_118-2" data-name="パス 118" d="M41.82,144.87,0,72.437,41.82,0h83.639l41.82,72.437-41.82,72.433Z" transform="translate(245.43 6) rotate(90)" fill="#fffbc7"/>
        </g>
        <text id="契約等_オンライン可能" data-name="契約等
オンライン可能" transform="translate(72.435 105.139)" fill="#232323" font-size="11" font-family="HiraginoSans-W6, Hiragino Sans" letter-spacing="0.14em"><tspan x="-18.81" y="0">契約等</tspan><tspan y="0" font-family="SegoeUI-Bold, Segoe UI" font-weight="700"></tspan><tspan x="-43.12" y="19">オンライン可能</tspan></text>
      </g>
      <g transform="matrix(1, 0, 0, 1, 207.31, 3073.7)" filter="url(#Icon_material-cloud-done)">
        <path id="Icon_material-cloud-done-2" data-name="Icon material-cloud-done" d="M52.078,23.24C50.248,13.393,42.093,6,32.3,6A20.07,20.07,0,0,0,14.4,17.531C6.3,18.445,0,25.723,0,34.543c0,9.448,7.24,17.126,16.148,17.126H51.136c7.428,0,13.457-6.394,13.457-14.272C64.593,29.862,59.076,23.754,52.078,23.24ZM26.914,43.106l-9.42-9.99,3.795-4.025,5.625,5.937L40.855,20.272,44.65,24.3Z" transform="translate(140.7 37.2)" fill="#61954f"/>
      </g>
    </g>
    <g id="グループ_1913" data-name="グループ 1913" transform="translate(27.5 3298.704)">
      <g id="グループ_1877" data-name="グループ 1877" transform="translate(0 0)">
        <g transform="matrix(1, 0, 0, 1, -9, -158.7)" filter="url(#パス_117)">
          <path id="パス_117-2" data-name="パス 117" d="M41.82,144.87,0,72.437,41.82,0h83.639l41.82,72.437-41.82,72.433Z" transform="translate(153.87 158.7) rotate(90)" fill="#fffbc7"/>
        </g>
        <text id="ご提案_お客様に寄り添います" data-name="ご提案
お客様に寄り添います" transform="translate(72.435 99.772)" fill="#232323" font-size="11" font-family="HiraginoSans-W6, Hiragino Sans" letter-spacing="0.14em"><tspan x="-18.81" y="0">ご提案</tspan><tspan y="0" font-family="SegoeUI-Bold, Segoe UI" font-weight="700"></tspan><tspan x="-61.93" y="19">お客様に寄り添います</tspan></text>
      </g>
      <g transform="matrix(1, 0, 0, 1, -9, -158.7)" filter="url(#Icon_awesome-chalkboard-teacher)">
        <path id="Icon_awesome-chalkboard-teacher-2" data-name="Icon awesome-chalkboard-teacher" d="M18.783,31.786a2.066,2.066,0,0,0-.638.1,11.912,11.912,0,0,1-3.7.624,11.922,11.922,0,0,1-3.7-.624,2.06,2.06,0,0,0-.637-.1A10.114,10.114,0,0,0,0,41.956a4.323,4.323,0,0,0,4.334,4.279H24.562A4.323,4.323,0,0,0,28.9,41.956,10.114,10.114,0,0,0,18.783,31.786ZM14.448,28.9a8.669,8.669,0,1,0-8.669-8.669A8.669,8.669,0,0,0,14.448,28.9ZM53.459,0H18.783a4.413,4.413,0,0,0-4.334,4.478V8.669a11.427,11.427,0,0,1,5.779,1.607v-4.5H52.014V31.786H46.235V26.007H34.676v5.779H27.791a11.509,11.509,0,0,1,3.584,5.779H53.459a4.413,4.413,0,0,0,4.334-4.478V4.478A4.413,4.413,0,0,0,53.459,0Z" transform="translate(49.88 195.34)" fill="#61954f"/>
      </g>
    </g>
    <g id="グループ_1914" data-name="グループ 1914" transform="translate(211.63 3298.705)">
      <g transform="matrix(1, 0, 0, 1, -193.13, -158.71)" filter="url(#パス_116)">
        <path id="パス_116-2" data-name="パス 116" d="M41.82,144.87,0,72.437,41.82,0h83.639l41.82,72.437-41.82,72.433Z" transform="translate(338 158.71) rotate(90)" fill="#fffbc7"/>
      </g>
      <g id="Icon_ionic-ios-chatboxes" data-name="Icon ionic-ios-chatboxes" transform="translate(44.996 28.955)">
        <g transform="matrix(1, 0, 0, 1, -238.13, -187.66)" filter="url(#パス_119)">
          <path id="パス_119-2" data-name="パス 119" d="M16.7,11.981H45.94a5.034,5.034,0,0,1,5.027,5.027v20.36a5.023,5.023,0,0,1-5.027,5.014H29.209a1.442,1.442,0,0,0-1,.422l-8.313,7.666c-.462.449-1.227.264-1.227-.383V43.411c0-.792-.5-1.042-1.293-1.042h-.132c-2.771,0-5.555-2.23-5.555-5.014V17.008A5.006,5.006,0,0,1,16.7,11.981Z" transform="translate(226.44 191.83)" fill="#61954f"/>
        </g>
        <g transform="matrix(1, 0, 0, 1, -238.13, -187.66)" filter="url(#パス_120)">
          <path id="パス_120-2" data-name="パス 120" d="M26.783,16.293H3.375V7.677a4.3,4.3,0,0,1,4.3-4.3H39.159a4.3,4.3,0,0,1,4.3,4.3v21.8a4.3,4.3,0,0,1-4.3,4.3H31.1V20.594A4.322,4.322,0,0,0,26.783,16.293Z" transform="translate(249.54 184.29)" fill="#61954f"/>
        </g>
      </g>
      <text id="担当との_リアルタイムチャット" data-name="担当との
リアルタイムチャット" transform="translate(72.435 99.842)" fill="#232323" font-size="11" font-family="HiraginoSans-W6, Hiragino Sans" letter-spacing="0.14em"><tspan x="-25.08" y="0">担当との</tspan><tspan y="0" font-family="SegoeUI-Bold, Segoe UI" font-weight="700"></tspan><tspan x="-61.16" y="19">リアルタイムチャット</tspan></text>
    </g>
  </g>
</svg>
