<svg xmlns="http://www.w3.org/2000/svg" xmlns:xlink="http://www.w3.org/1999/xlink" width="67.153" height="82.121" viewBox="0 0 67.153 82.121">
  <defs>
    <style>
      .cls-1, .cls-10, .cls-11, .cls-12, .cls-13, .cls-14, .cls-15, .cls-16, .cls-17, .cls-18, .cls-19, .cls-2, .cls-3, .cls-4, .cls-5, .cls-6, .cls-7, .cls-8, .cls-9 {
        fill-rule: evenodd;
      }

      .cls-1 {
        fill: url(#linear-gradient);
      }

      .cls-2 {
        fill: #131417;
      }

      .cls-3 {
        fill: url(#linear-gradient-2);
      }

      .cls-4 {
        fill: url(#linear-gradient-3);
      }

      .cls-5 {
        fill: url(#linear-gradient-4);
      }

      .cls-6 {
        fill: url(#linear-gradient-5);
      }

      .cls-7 {
        fill: url(#linear-gradient-6);
      }

      .cls-8 {
        fill: url(#linear-gradient-7);
      }

      .cls-9 {
        fill: #c4d1e0;
      }

      .cls-10 {
        fill: url(#linear-gradient-8);
      }

      .cls-11 {
        fill: url(#linear-gradient-9);
      }

      .cls-12 {
        fill: url(#linear-gradient-10);
      }

      .cls-13 {
        fill: #1f232b;
      }

      .cls-14 {
        fill: #f0f2f7;
      }

      .cls-15 {
        fill: url(#linear-gradient-11);
      }

      .cls-16 {
        fill: url(#linear-gradient-12);
      }

      .cls-17 {
        fill: url(#linear-gradient-13);
      }

      .cls-18 {
        fill: url(#linear-gradient-14);
      }

      .cls-19 {
        fill: url(#linear-gradient-15);
      }
    </style>
    <linearGradient id="linear-gradient" x1="0.688" y1="0.732" x2="0.231" y2="0.249" gradientUnits="objectBoundingBox">
      <stop offset="0" stop-color="#151d2c"/>
      <stop offset="1" stop-color="#454e5b"/>
    </linearGradient>
    <linearGradient id="linear-gradient-2" x1="0.426" y1="0.445" x2="0.605" y2="0.529" gradientUnits="objectBoundingBox">
      <stop offset="0" stop-color="#030817"/>
      <stop offset="1" stop-color="#151d2c"/>
    </linearGradient>
    <linearGradient id="linear-gradient-3" x1="0.421" y1="0.405" x2="0.539" y2="0.581" gradientUnits="objectBoundingBox">
      <stop offset="0" stop-color="#faa85d"/>
      <stop offset="1" stop-color="#fed7b3"/>
    </linearGradient>
    <linearGradient id="linear-gradient-4" x1="0.504" y1="0.557" x2="0.481" y2="0.414" gradientUnits="objectBoundingBox">
      <stop offset="0" stop-color="#151d2c"/>
      <stop offset="0.56" stop-color="#303745"/>
      <stop offset="1" stop-color="#303745"/>
    </linearGradient>
    <linearGradient id="linear-gradient-5" x1="0.766" y1="0.675" x2="0.242" y2="0.417" xlink:href="#linear-gradient"/>
    <linearGradient id="linear-gradient-6" x1="0.425" y1="0.478" x2="0.593" y2="0.425" xlink:href="#linear-gradient-2"/>
    <linearGradient id="linear-gradient-7" x1="0.409" y1="0.556" x2="0.706" y2="0.282" gradientUnits="objectBoundingBox">
      <stop offset="0" stop-color="#9baec0"/>
      <stop offset="1" stop-color="#c1cfde"/>
    </linearGradient>
    <linearGradient id="linear-gradient-8" x1="0.393" y1="0.561" x2="0.297" y2="0.592" gradientUnits="objectBoundingBox">
      <stop offset="0" stop-color="#faa85d"/>
      <stop offset="1" stop-color="#fdc490"/>
    </linearGradient>
    <linearGradient id="linear-gradient-9" x1="0.475" y1="1.076" x2="0.51" y2="0.498" gradientUnits="objectBoundingBox">
      <stop offset="0" stop-color="#0a5791"/>
      <stop offset="1" stop-color="#2d8aca"/>
    </linearGradient>
    <linearGradient id="linear-gradient-10" x1="0.522" y1="0.503" x2="0.798" y2="0.231" gradientUnits="objectBoundingBox">
      <stop offset="0" stop-color="#151d2c"/>
      <stop offset="1" stop-color="#303745"/>
    </linearGradient>
    <linearGradient id="linear-gradient-11" x1="0.797" y1="0.388" x2="0.172" y2="0.531" xlink:href="#linear-gradient-3"/>
    <linearGradient id="linear-gradient-12" x1="0.47" y1="0.379" x2="0.385" y2="0.154" xlink:href="#linear-gradient-4"/>
    <linearGradient id="linear-gradient-13" x1="0.299" y1="0.715" x2="0.537" y2="0.353" gradientUnits="objectBoundingBox">
      <stop offset="0" stop-color="#fcbc80"/>
      <stop offset="1" stop-color="#fed7b3"/>
    </linearGradient>
    <linearGradient id="linear-gradient-14" x1="0.366" y1="0.435" x2="0.705" y2="0.204" gradientUnits="objectBoundingBox">
      <stop offset="0"/>
      <stop offset="1" stop-color="#464748"/>
    </linearGradient>
    <linearGradient id="linear-gradient-15" x1="0.374" y1="0.769" x2="0.66" y2="0.087" xlink:href="#linear-gradient-9"/>
  </defs>
  <g id="グループ_15" data-name="グループ 15" transform="translate(-411.886 -67.864)">
    <path id="パス_5" data-name="パス 5" class="cls-1" d="M419.288,137.5l-2.061,3.517-2.849-1.912,1.746-3.9Z"/>
    <path id="パス_6" data-name="パス 6" class="cls-2" d="M415.4,137.131c-.407-.315-3.682,1.965-3.51,3.258.274,2.13,1.833.8,1.958,5.5a4.666,4.666,0,0,0,1.858,3.392,2.426,2.426,0,0,0,2.561.51,1.687,1.687,0,0,0,.471-1.662,8.252,8.252,0,0,1-.6-4.935,2.93,2.93,0,0,0,.406-2.373s-.846-1.488-1.292-1.2C415.936,140.476,414.941,137.4,415.4,137.131Z"/>
    <path id="パス_7" data-name="パス 7" class="cls-3" d="M419.288,137.993l-4.05-1.843,6.627-15.439c2.774-6.337,2.311-17.893,5.4-21.575,2.03-2.381,5.391-2.193,8.149-1.927q-.048,4.866-.088,9.729l-7.983,16.247Z"/>
    <path id="パス_8" data-name="パス 8" class="cls-4" d="M473.8,76.011c1.88-.838,1.237-3.98,2.524-3.015.484-.346,1.683-.855,2.177-.268.659.768,1.027,3.542-.768,4.522-.548.337-1.816.79-2.93,1.275L463.62,85.246l-11.908,3.942L452.5,83.5l3.321.244,6.409-1.825C465.226,79.411,471.445,77.618,473.8,76.011Z"/>
    <path id="パス_9" data-name="パス 9" class="cls-5" d="M451.109,84.19c1.427-1.074,1.221-1.645,4.85-.831,1.4-.39,4.669-1.911,6.728-2.114,2.068-2.43,5.969-2.383,8.867-4.207a6.147,6.147,0,0,1,1.849,3.048c-1.487,1.409-6.3,3.861-9.32,5.576-1.412.228-9.62,3.823-12.34,4.175C449.135,89.313,448.969,85.805,451.109,84.19Z"/>
    <path id="パス_10" data-name="パス 10" class="cls-6" d="M436.8,127.817l-1.315,2.278-3.307-1.175,1.121-2.936Z"/>
    <path id="パス_11" data-name="パス 11" class="cls-2" d="M432.677,127.642c-.511-.084-2.342,3.457-1.592,4.522,1.24,1.753,2-.149,4.294,3.964a4.658,4.658,0,0,0,3.227,2.13,2.433,2.433,0,0,0,2.508-.743,1.67,1.67,0,0,0-.362-1.686,8.248,8.248,0,0,1-2.82-4.089,2.99,2.99,0,0,0-.744-2.295s-1.449-.925-1.708-.463C434.714,130.353,432.4,128.107,432.677,127.642Z"/>
    <path id="パス_12" data-name="パス 12" class="cls-7" d="M436.523,128.679a9.177,9.177,0,0,1-4.592-2.414c2.555-2.427,5.25-8.4,8.2-10.185-4.81-4.966-13.9-8.937-16.123-13.2-1.918-3.337,1.128-7.434,3.808-8.805,2.992,1.261,3.47,3.055,6.462,4.309,4.85,5.42,10.348,11.695,13.3,16.639.916,1.527.462,2.679-1.112,4.017C443.119,121.877,439.225,125.09,436.523,128.679Z"/>
    <path id="パス_13" data-name="パス 13" class="cls-8" d="M446.683,78.127l-5.906-1.8s-.463,4.5-2.8,5.71l-4.4,6.619-5.153,4.725c-.431,1.4,9.3,10.56,11.491,9.611,1.089-.656,2.876-3.845,4.254-6.893,0,0,7.3-5.248,7.927-6.313,0,0-.047-5.241,1.724-5.828L452.5,82.951l-.143-1.637L448.2,77.656Z"/>
    <path id="パス_14" data-name="パス 14" class="cls-9" d="M452.551,81.173,448.2,77.656a4.984,4.984,0,0,0-.469,3.714l1.784,1.55A4.076,4.076,0,0,0,452.551,81.173Z"/>
    <path id="パス_15" data-name="パス 15" class="cls-10" d="M452.558,81.267,451.2,82.85s-.769,1.425-2.6-.047c-.971-.8-2.21-3.086-1.3-4.222l2.758-3.033Z"/>
    <path id="パス_16" data-name="パス 16" class="cls-11" d="M450.091,83.141l-1.456-.831L447.5,81l-.828,2.342,1.237,1.041Z"/>
    <path id="パス_17" data-name="パス 17" class="cls-12" d="M447.286,77.916l-5.632-1.325c.25,1.762-2.592,4.245-4.919,5.46l-4.051,5.491-7.489,5.3a22.566,22.566,0,0,0,5.334,5.962l8.233-4.254s-2.874,4.888-4.079,7.543a16.473,16.473,0,0,0,4.738,2.2c1.63-3.057,2.82-4.529,4.2-7.584,0,0,7.852-5.859,8.477-6.924,0,0,.533-5.391,2.32-5.978l-1.9-.869c-3.354,4.967-9.463,9.1-12.371,9.808C440.1,88.6,443.612,82.647,447.286,77.916Z"/>
    <path id="パス_18" data-name="パス 18" class="cls-13" d="M447.286,77.916a37.945,37.945,0,0,0-7.3,15.039,90.567,90.567,0,0,0,1.222-10.27l2.82-.9-.659-2.358Z"/>
    <path id="パス_19" data-name="パス 19" class="cls-13" d="M452.52,82.937s-4.013,5.107-12.534,10.018c0,0,6.407-2.718,9.955-3.774l.047-2.72,2.233-.219Z"/>
    <path id="パス_20" data-name="パス 20" class="cls-14" d="M452.52,82.937a25.647,25.647,0,0,1-2.845,2.836l-1.041-3.463a3.655,3.655,0,0,0,3.9-1.012Z"/>
    <path id="パス_21" data-name="パス 21" class="cls-14" d="M447.286,77.916s-2.052,3.273-2.083,4.057l3.431.337a7.493,7.493,0,0,1-.408-4.747Z"/>
    <path id="パス_22" data-name="パス 22" class="cls-15" d="M424.569,89.728c-1.176,1.693,1,4.051-.6,3.894-.228.541-1,1.6-1.724,1.356-.956-.322-2.711-2.5-1.684-4.27.291-.565,1.153-1.614,1.849-2.61,1.637-2.28,2.586-8.365,6.15-10.779,1.347-.006,8.021-.643,11.538-.321,1.262,2.3.777,3.244-.306,3.791a16.178,16.178,0,0,1-9.87.494C428.665,84.974,425.744,87.136,424.569,89.728Z"/>
    <path id="パス_23" data-name="パス 23" class="cls-16" d="M441.723,79.53c-1.487,1.244-3.139,2.8-5.4,2.483a20.556,20.556,0,0,1-6.134-.471,37.879,37.879,0,0,1-4.959,7.2A5.993,5.993,0,0,1,422.7,86.32c1.424-3.039,2.161-5.468,5.279-8.867,1.348-.487,9.15-.705,11.649-1.277C442.648,75.77,443.369,78.15,441.723,79.53Z"/>
    <path id="パス_24" data-name="パス 24" class="cls-17" d="M457.721,75.917s-.581,2.554-.978,3.722c0,0-.384,1.034-2.524,1.974a1.3,1.3,0,0,1-.328.11c-.415.047-1.224.085-3.345-1.959a7.51,7.51,0,0,1-1.192-1.958s-1.943-4.475-.988-5.915a5.227,5.227,0,0,1,5.11-2.052s3.939.053,4.229,2.045C458.636,73.865,458.158,74.5,457.721,75.917Z"/>
    <path id="パス_25" data-name="パス 25" class="cls-18" d="M461.075,73.1a4.762,4.762,0,0,1-2.383-.609,2.155,2.155,0,0,0,1.505-.965c-2.617.815-4.638-6.009-10.176-2.545a1.787,1.787,0,0,1,.11-1.113,3.564,3.564,0,0,0-1.153,1.731l-.846-.665.15,1.324c-2.265,1.112-.431,4.951.2,6.391a4.082,4.082,0,0,0,1.175,2.376l-.054-1.293c-.784-.65-1.552-3.1.085-2.289a7.093,7.093,0,0,0,.415,1.795l.2-.031a3.959,3.959,0,0,1,.141-1.411,1.678,1.678,0,0,0,.674-1.818s1.865.588,2.593.831a12.184,12.184,0,0,1-.619-1.215C453.005,72.98,458.911,77.688,461.075,73.1Z"/>
    <path id="パス_26" data-name="パス 26" class="cls-19" d="M434.667,91.57l-2.485-1,1.02-1.817c6.469-.141,8.874-4.96,13.474-5.413l1.237,1.041C443.612,85.068,439.577,90.387,434.667,91.57Z"/>
  </g>
</svg>
