<svg xmlns="http://www.w3.org/2000/svg" width="155.437" height="57.259" viewBox="0 0 155.437 57.259">
  <g id="グループ_1891" data-name="グループ 1891" transform="translate(-33.888 -112.879)">
    <g id="ロゴタイプ_英_" data-name="ロゴタイプ（英）" transform="translate(93.894 130.103)">
      <path id="パス_2789" data-name="パス 2789" d="M263.1,191.488V186.9a3.863,3.863,0,0,0-3.87-3.87h-5.806a1.233,1.233,0,0,1-.863-.328,1.049,1.049,0,0,1-.357-.8v-1.161a1.1,1.1,0,0,1,.357-.819,1.2,1.2,0,0,1,.863-.342H260.6a1.983,1.983,0,0,0,1.474-.625,2.057,2.057,0,0,0,.611-1.489,1.961,1.961,0,0,0-.611-1.459,2.034,2.034,0,0,0-1.474-.6h-8.932a3.862,3.862,0,0,0-3.869,3.841v3.841a3.862,3.862,0,0,0,3.869,3.87h5.806a1.235,1.235,0,0,1,.863.327,1.05,1.05,0,0,1,.357.8v1.935a1.093,1.093,0,0,1-.357.819,1.2,1.2,0,0,1-.863.342h-7.711a2.084,2.084,0,1,0,0,4.168h9.468a3.863,3.863,0,0,0,3.87-3.871Z" transform="translate(-247.675 -175.084)" fill="#4ca223"/>
      <path id="パス_2790" data-name="パス 2790" d="M336.626,193.328a1.667,1.667,0,0,0-.059-.625l-3.841-15.3a3.25,3.25,0,0,0-1.087-1.728,2.858,2.858,0,0,0-1.89-.685H325.76a2.916,2.916,0,0,0-1.906.685,3.051,3.051,0,0,0-1.072,1.728l-3.871,15.3a1.621,1.621,0,0,0-.06.625,2.032,2.032,0,0,0,.729,1.444,2.131,2.131,0,0,0,1.593.521,1.986,1.986,0,0,0,2.055-1.607l1.221-5.061a.721.721,0,0,1,.774-.6h5.031a.721.721,0,0,1,.774.6l1.22,5.061a2.014,2.014,0,0,0,2.054,1.607,2.183,2.183,0,0,0,1.609-.521A1.917,1.917,0,0,0,336.626,193.328Zm-6.907-10.033a.447.447,0,0,1-.506.506H326.3a.447.447,0,0,1-.506-.506v-.12l.893-3.573a.447.447,0,0,1,.476-.386h1.191a.447.447,0,0,1,.476.386l.864,3.573A.277.277,0,0,1,329.719,183.295Z" transform="translate(-298.869 -174.779)" fill="#4ca223"/>
      <path id="パス_2791" data-name="パス 2791" d="M413.631,183.242v-2.709a5.132,5.132,0,0,0-5.15-5.122H400.74a2.29,2.29,0,0,0-1.623.626,2,2,0,0,0-.669,1.518v16.018a1.962,1.962,0,0,0,.64,1.474,2.308,2.308,0,0,0,3.126,0,1.961,1.961,0,0,0,.64-1.474v-4.644q0-.566.626-.566h5a5.132,5.132,0,0,0,5.15-5.121Zm-4.405-1.013a1.823,1.823,0,0,1-.6,1.371,2.005,2.005,0,0,1-1.429.566h-3.721q-.625,0-.626-.6v-3.393q0-.6.626-.6H407.2a2,2,0,0,1,1.429.566,1.819,1.819,0,0,1,.6,1.369Z" transform="translate(-356.129 -175.084)" fill="#4ca223"/>
      <path id="パス_2792" data-name="パス 2792" d="M483.565,189.878V180.5a5.286,5.286,0,0,0-5.3-5.3h-4.2a5.286,5.286,0,0,0-5.3,5.3v9.378a5.286,5.286,0,0,0,5.3,5.3h4.2a5.286,5.286,0,0,0,5.3-5.3Zm-4.407-.417a1.472,1.472,0,0,1-.461,1.1,1.587,1.587,0,0,1-1.147.446h-2.768a1.6,1.6,0,0,1-1.131-.446,1.451,1.451,0,0,1-.477-1.1v-8.544a1.468,1.468,0,0,1,.477-1.087,1.57,1.57,0,0,1,1.131-.462h2.768a1.558,1.558,0,0,1,1.147.462,1.49,1.49,0,0,1,.461,1.087Z" transform="translate(-406.711 -174.932)" fill="#4ca223"/>
      <path id="パス_2793" data-name="パス 2793" d="M551.733,192.406a2.057,2.057,0,0,0-.611-1.488,1.986,1.986,0,0,0-1.474-.625H543.01a.789.789,0,0,1-.893-.894v-13.07a1.961,1.961,0,0,0-.641-1.474,2.3,2.3,0,0,0-3.126,0,1.96,1.96,0,0,0-.641,1.474v14.589a3.561,3.561,0,0,0,3.573,3.573h8.366a2.086,2.086,0,0,0,2.085-2.085Z" transform="translate(-456.302 -174.245)" fill="#4ca223"/>
    </g>
    <g id="ロゴタイプ_カナ_" data-name="ロゴタイプ（カナ）" transform="translate(121.994 153.121)">
      <path id="パス_2794" data-name="パス 2794" d="M356.485,260.468a.774.774,0,0,0-.229-.558.742.742,0,0,0-.552-.235h-.323c-.149,0-.225-.071-.225-.213v-.546a.736.736,0,0,0-.24-.554.868.868,0,0,0-1.173,0,.737.737,0,0,0-.239.554v.546c0,.141-.078.213-.234.213H351c-.15,0-.223-.071-.223-.213v-.5a.79.79,0,0,0-.246-.585.823.823,0,0,0-1.406.585v.5c0,.141-.077.213-.234.213h-.324a.742.742,0,0,0-.552.235.771.771,0,0,0-.229.558.782.782,0,0,0,.781.782h.324c.157,0,.234.074.234.223v.726a.826.826,0,0,0,1.652,0v-.726a.2.2,0,0,1,.223-.223h2.267c.156,0,.234.074.234.223v2.289a.406.406,0,0,1-.139.308.469.469,0,0,1-.33.127h-2.188a.787.787,0,0,0,0,1.574H353.6a1.542,1.542,0,0,0,1.552-1.542v-2.757a.2.2,0,0,1,.225-.223h.323a.782.782,0,0,0,.781-.782Z" transform="translate(-347.788 -257.607)" fill="#4ca223"/>
      <g id="グループ_1886" data-name="グループ 1886" transform="translate(10.899)">
        <g id="グループ_1885" data-name="グループ 1885" transform="translate(0 0.283)">
          <path id="パス_2795" data-name="パス 2795" d="M394.646,259.3a.75.75,0,0,0-.228-.553.767.767,0,0,0-.563-.229h-2.177a.2.2,0,0,1-.224-.223v-.267a.721.721,0,0,0-.241-.543.867.867,0,0,0-1.172,0,.728.728,0,0,0-.239.543v.267c0,.148-.079.223-.235.223H387.4a.782.782,0,0,0,0,1.565h2.167c.156,0,.235.074.235.221v4.01a.826.826,0,0,0,1.652,0v-4.01a.2.2,0,0,1,.224-.221h2.177a.774.774,0,0,0,.558-.23A.744.744,0,0,0,394.646,259.3Z" transform="translate(-386.619 -257.26)" fill="#4ca223"/>
          <path id="パス_2796" data-name="パス 2796" d="M389.22,271.011a.95.95,0,0,0,.056-.324.76.76,0,0,0-.5-.759.808.808,0,0,0-.323-.067.753.753,0,0,0-.747.5l-1.017,2.378a.825.825,0,0,0-.066.324.753.753,0,0,0,.5.748.806.806,0,0,0,.324.067.76.76,0,0,0,.759-.49Z" transform="translate(-386.619 -266.325)" fill="#4ca223"/>
          <path id="パス_2797" data-name="パス 2797" d="M408.344,272.741l-1-2.378a.764.764,0,0,0-.76-.5.812.812,0,0,0-.324.067.759.759,0,0,0-.5.759.816.816,0,0,0,.066.324l1.006,2.379a.761.761,0,0,0,.759.49.807.807,0,0,0,.324-.067.753.753,0,0,0,.5-.748A.825.825,0,0,0,408.344,272.741Z" transform="translate(-400.383 -266.325)" fill="#4ca223"/>
        </g>
        <path id="パス_2798" data-name="パス 2798" d="M408.736,258.369a1.058,1.058,0,1,1,1.058-1.058A1.06,1.06,0,0,1,408.736,258.369Zm0-1.55a.492.492,0,1,0,.493.492A.493.493,0,0,0,408.736,256.819Z" transform="translate(-401.767 -256.253)" fill="#4ca223"/>
      </g>
      <path id="パス_2799" data-name="パス 2799" d="M430.89,269.786a.767.767,0,0,0-.229-.564.755.755,0,0,0-.552-.228h-6.263a.757.757,0,0,0-.554.228.769.769,0,0,0-.228.564.781.781,0,0,0,.783.782h6.263a.783.783,0,0,0,.781-.782Z" transform="translate(-401.935 -265.419)" fill="#4ca223"/>
      <g id="グループ_1887" data-name="グループ 1887" transform="translate(31.157 0.409)">
        <path id="パス_2800" data-name="パス 2800" d="M461.2,258.644a.794.794,0,0,0-.167-.614.782.782,0,0,0-.559-.3.79.79,0,0,0-.6.161.805.805,0,0,0-.312.554l-.759,6.107a.817.817,0,0,0,.173.6.8.8,0,0,0,.553.312.766.766,0,0,0,.6-.168.8.8,0,0,0,.313-.547Z" transform="translate(-458.792 -257.718)" fill="#4ca223"/>
        <path id="パス_2801" data-name="パス 2801" d="M475.513,263.795v-2.424a.722.722,0,0,0-.239-.541.865.865,0,0,0-1.173,0,.723.723,0,0,0-.24.541v1.966a.406.406,0,0,1-.135.307.449.449,0,0,1-.323.128h-.7a.207.207,0,0,1-.235-.235v-5a.826.826,0,1,0-1.652,0v6.017a.754.754,0,0,0,.229.554.765.765,0,0,0,.564.228h2.356a1.544,1.544,0,0,0,1.551-1.541Z" transform="translate(-467.439 -257.71)" fill="#4ca223"/>
      </g>
    </g>
    <g id="ロゴマーク" transform="translate(33.888 112.879)">
      <g id="目" transform="translate(24.357 17.465)">
        <path id="パス_2802" data-name="パス 2802" d="M122.013,184.866c.744,0,1.347-1.354,1.347-3.026s-.6-3.027-1.347-3.027-1.348,1.355-1.348,3.027S121.267,184.866,122.013,184.866Z" transform="translate(-120.665 -177.772)" fill="#4ca223"/>
        <path id="パス_2803" data-name="パス 2803" d="M154.923,181.155c.744,0,1.348-1.355,1.348-3.026s-.6-3.027-1.348-3.027-1.346,1.355-1.346,3.027S154.18,181.155,154.923,181.155Z" transform="translate(-144.339 -175.103)" fill="#4ca223"/>
      </g>
      <path id="取手" d="M128.433,214.362a1.908,1.908,0,0,0-.331-1.928c-.526-.669-.731-.988-.735-1a1.076,1.076,0,0,0-1.826,1.138c.023.037.227.358.746,1.03a1.931,1.931,0,0,1-.465.119l-10.648,1.492a2.84,2.84,0,0,1-2.277-.58l-.948-1.361a1.076,1.076,0,1,0-1.766,1.23l.949,1.361a4.509,4.509,0,0,0,3.6,1.531,5.371,5.371,0,0,0,.738-.051l10.648-1.492A2.741,2.741,0,0,0,128.433,214.362Z" transform="translate(-88.629 -183.411)" fill="#4ca223"/>
      <path id="パス_2804" data-name="パス 2804" d="M86.517,138.447c-.012-2.684-1.562-4.854-3.464-4.846a2.554,2.554,0,0,0-1.151.29V118.9a6.786,6.786,0,0,0-6.683-6.02H40.57a6.689,6.689,0,0,0-6.682,6.682v39.6a6.689,6.689,0,0,0,6.682,6.682h3.451a5.94,5.94,0,0,0,6.643,4.233l24.848-3.549a7.681,7.681,0,0,0,6.389-7.365v-8.743a7.629,7.629,0,0,0,2.293-2.536,6.433,6.433,0,0,0,.392-5.053A5.284,5.284,0,0,0,86.517,138.447Zm-8.081,20.713a4.152,4.152,0,0,1-3.412,3.935l-24.849,3.55-.189.028.189-.028a2.521,2.521,0,0,1-2.922-2.535v-39.6a4.151,4.151,0,0,1,3.412-3.935l24.848-3.55a2.505,2.505,0,0,1,2.923,2.535v30.962a26.473,26.473,0,0,1-6.23,1.526,1.461,1.461,0,0,0-1.57-1.018l-5.52.646a1.468,1.468,0,0,0-1.287,1.63l.134,1.151a1.468,1.468,0,0,0,1.458,1.3,1.512,1.512,0,0,0,.173-.01l5.519-.646a1.466,1.466,0,0,0,1.289-1.508,29.706,29.706,0,0,0,6.035-1.4ZM49.809,166.7l.095-.014ZM82.82,147.143a5.376,5.376,0,0,1-.918,1.225v-5.346a2.564,2.564,0,0,0,1.191.3h.016A4.9,4.9,0,0,1,82.82,147.143Z" transform="translate(-33.888 -112.879)" fill="#4ca223"/>
    </g>
  </g>
</svg>
