<svg xmlns="http://www.w3.org/2000/svg" width="43" height="43" viewBox="0 0 43 43">
  <g id="グループ_1870" data-name="グループ 1870" transform="translate(-1838 -25)">
    <g id="パス_3" data-name="パス 3" transform="translate(1838 25)" fill="#fff">
      <path d="M 21.5 42 C 18.73208045959473 42 16.0474796295166 41.4581184387207 13.52077960968018 40.38941955566406 C 11.07977962493896 39.35696029663086 8.887319564819336 37.87870025634766 7.004310131072998 35.99568939208984 C 5.121300220489502 34.11267852783203 3.64303994178772 31.92021942138672 2.610579967498779 29.47921943664551 C 1.541880011558533 26.9525203704834 1 24.26791954040527 1 21.5 C 1 18.73208045959473 1.541880011558533 16.0474796295166 2.610579967498779 13.52077960968018 C 3.64303994178772 11.07977962493896 5.121300220489502 8.887319564819336 7.004310131072998 7.004310131072998 C 8.887319564819336 5.121300220489502 11.07977962493896 3.64303994178772 13.52077960968018 2.610579967498779 C 16.0474796295166 1.541880011558533 18.73208045959473 1 21.5 1 C 24.26791954040527 1 26.9525203704834 1.541880011558533 29.47921943664551 2.610579967498779 C 31.92021942138672 3.64303994178772 34.11267852783203 5.121300220489502 35.99568939208984 7.004310131072998 C 37.87870025634766 8.887319564819336 39.35696029663086 11.07977962493896 40.38941955566406 13.52077960968018 C 41.4581184387207 16.0474796295166 42 18.73208045959473 42 21.5 C 42 24.26791954040527 41.4581184387207 26.9525203704834 40.38941955566406 29.47921943664551 C 39.35696029663086 31.92021942138672 37.87870025634766 34.11267852783203 35.99568939208984 35.99568939208984 C 34.11267852783203 37.87870025634766 31.92021942138672 39.35696029663086 29.47921943664551 40.38941955566406 C 26.9525203704834 41.4581184387207 24.26791954040527 42 21.5 42 Z" stroke="none"/>
      <path d="M 21.5 2 C 18.86664009094238 2 16.31310081481934 2.515300750732422 13.91032981872559 3.531589508056641 C 11.58852958679199 4.513629913330078 9.502910614013672 5.919929504394531 7.711418151855469 7.711418151855469 C 5.919929504394531 9.502910614013672 4.513629913330078 11.58852958679199 3.531589508056641 13.91032981872559 C 2.515300750732422 16.31310081481934 2 18.86664009094238 2 21.5 C 2 24.13335990905762 2.515300750732422 26.68689918518066 3.531589508056641 29.08967018127441 C 4.513629913330078 31.41147041320801 5.919929504394531 33.49708938598633 7.711418151855469 35.28858184814453 C 9.502910614013672 37.08007049560547 11.58852958679199 38.48637008666992 13.91032981872559 39.46841049194336 C 16.31310081481934 40.48469924926758 18.86664009094238 41 21.5 41 C 24.13335990905762 41 26.68689918518066 40.48469924926758 29.08967018127441 39.46841049194336 C 31.41147041320801 38.48637008666992 33.49708938598633 37.08007049560547 35.28858184814453 35.28858184814453 C 37.08007049560547 33.49708938598633 38.48637008666992 31.41147041320801 39.46841049194336 29.08967018127441 C 40.48469924926758 26.68689918518066 41 24.13335990905762 41 21.5 C 41 18.86664009094238 40.48469924926758 16.31310081481934 39.46841049194336 13.91032981872559 C 38.48637008666992 11.58852958679199 37.08007049560547 9.502910614013672 35.28858184814453 7.711418151855469 C 33.49708938598633 5.919929504394531 31.41147041320801 4.513629913330078 29.08967018127441 3.531589508056641 C 26.68689918518066 2.515300750732422 24.13335990905762 2 21.5 2 M 21.5 0 C 33.37411880493164 0 43 9.625881195068359 43 21.5 C 43 33.37411880493164 33.37411880493164 43 21.5 43 C 9.625881195068359 43 0 33.37411880493164 0 21.5 C 0 9.625881195068359 9.625881195068359 0 21.5 0 Z" stroke="none" fill="#fffbc7"/>
    </g>
    <g id="グループ_1869" data-name="グループ 1869">
      <path id="パス_2606" data-name="パス 2606" d="M25.486,10.347,19.719,16.22a.1.1,0,0,0,0,.15l4.035,4.3a.7.7,0,0,1,0,.986.7.7,0,0,1-.986,0L18.75,17.372a.11.11,0,0,0-.155,0l-.981,1a4.315,4.315,0,0,1-3.076,1.3,4.4,4.4,0,0,1-3.14-1.334l-.943-.959a.11.11,0,0,0-.155,0L6.279,21.654a.7.7,0,0,1-.986,0,.7.7,0,0,1,0-.986l4.035-4.3a.114.114,0,0,0,0-.15L3.557,10.347a.106.106,0,0,0-.182.075V22.174A1.72,1.72,0,0,0,5.09,23.889H23.953a1.72,1.72,0,0,0,1.715-1.715V10.422A.107.107,0,0,0,25.486,10.347Z" transform="translate(1845.05 30.92)" fill="#59944c"/>
      <path id="パス_2607" data-name="パス 2607" d="M14.724,17.687a2.913,2.913,0,0,0,2.1-.879L25.227,8.25a1.684,1.684,0,0,0-1.061-.375H5.287a1.673,1.673,0,0,0-1.061.375l8.408,8.558A2.914,2.914,0,0,0,14.724,17.687Z" transform="translate(1844.848 31.5)" fill="#59944c"/>
    </g>
  </g>
</svg>
