<svg xmlns="http://www.w3.org/2000/svg" width="1317.5" height="268.474" viewBox="0 0 1317.5 268.474">
  <g id="グループ_1892" data-name="グループ 1892" transform="translate(-309 -442.526)">
    <g id="グループ_1872" data-name="グループ 1872">
      <text id="お困りのお客様" transform="translate(412 708)" fill="#232323" font-size="27" font-family="HiraginoSans-W6, Hiragino Sans" letter-spacing="0.1em"><tspan x="-102.6" y="0">お困りのお客様</tspan></text>
      <g id="グループ_1717" data-name="グループ 1717" transform="translate(1964 -320)">
        <text id="情報_相談" data-name="情報・相談" transform="translate(-1352 831)" fill="#232323" font-size="17" font-family="HiraginoSans-W6, Hiragino Sans" letter-spacing="0.05em"><tspan x="0" y="0">情報・相談</tspan></text>
        <g id="グループ_1716" data-name="グループ 1716" transform="translate(-1371.342 823.849)">
          <path id="パス_2608" data-name="パス 2608" d="M24.3,38.16c5.8.84,46.4,5.064,66.438-37.8A.612.612,0,0,1,91.53.048l17.978,7.64a.612.612,0,0,1,.309.84c-2.736,5.432-25.635,46.489-87.264,34.817a.613.613,0,0,0-.719.49L20.4,51.782a.614.614,0,0,1-.964.389L.255,38.311a.614.614,0,0,1,.191-1.088L24.92,30.23a.614.614,0,0,1,.757.764L23.8,37.379A.612.612,0,0,0,24.3,38.16Z" transform="translate(15.287 44.978) rotate(17)" fill="#59944c"/>
          <path id="パス_2609" data-name="パス 2609" d="M24.3,38.16c5.8.84,46.4,5.064,66.438-37.8A.612.612,0,0,1,91.53.048l17.978,7.64a.612.612,0,0,1,.309.84c-2.736,5.432-25.635,46.489-87.264,34.817a.613.613,0,0,0-.719.49L20.4,51.781a.614.614,0,0,1-.964.389L.255,38.311a.614.614,0,0,1,.191-1.088L24.92,30.23a.614.614,0,0,1,.757.764L23.8,37.379A.612.612,0,0,0,24.3,38.16Z" transform="translate(112.055 82.129) rotate(-163)" fill="#59944c"/>
        </g>
      </g>
      <g id="グループ_1718" data-name="グループ 1718" transform="translate(2556.342 -320)">
        <text id="紹介_手配" data-name="紹介・手配" transform="translate(-1347.671 830.849)" fill="#232323" font-size="17" font-family="HiraginoSans-W6, Hiragino Sans" letter-spacing="0.05em"><tspan x="0" y="0">紹介・手配</tspan></text>
        <g id="グループ_1716-2" data-name="グループ 1716" transform="translate(-1371.342 823.849)">
          <path id="パス_2608-2" data-name="パス 2608" d="M24.3,38.16c5.8.84,46.4,5.064,66.438-37.8A.612.612,0,0,1,91.53.048l17.978,7.64a.612.612,0,0,1,.309.84c-2.736,5.432-25.635,46.489-87.264,34.817a.613.613,0,0,0-.719.49L20.4,51.782a.614.614,0,0,1-.964.389L.255,38.311a.614.614,0,0,1,.191-1.088L24.92,30.23a.614.614,0,0,1,.757.764L23.8,37.379A.612.612,0,0,0,24.3,38.16Z" transform="translate(15.287 44.978) rotate(17)" fill="#59944c"/>
          <path id="パス_2609-2" data-name="パス 2609" d="M24.3,38.16c5.8.84,46.4,5.064,66.438-37.8A.612.612,0,0,1,91.53.048l17.978,7.64a.612.612,0,0,1,.309.84c-2.736,5.432-25.635,46.489-87.264,34.817a.613.613,0,0,0-.719.49L20.4,51.781a.614.614,0,0,1-.964.389L.255,38.311a.614.614,0,0,1,.191-1.088L24.92,30.23a.614.614,0,0,1,.757.764L23.8,37.379A.612.612,0,0,0,24.3,38.16Z" transform="translate(112.055 82.129) rotate(-163)" fill="#59944c"/>
        </g>
      </g>
      <g id="グループ_1783" data-name="グループ 1783" transform="translate(17.442 -1)">
        <g id="グループ_1780" data-name="グループ 1780" transform="translate(302.729 444.276)">
          <g id="グループ_1779" data-name="グループ 1779" transform="translate(0 55.226)">
            <path id="パス_2658" data-name="パス 2658" d="M-799.038,1235.554l5.786-16.162,1.4-40.3s-2.579-5.664-1.4-9.5,6.707-10.284,6.707-10.284v-12.893" transform="translate(799.038 -1101.134)" fill="none" stroke="#232323" stroke-width="1.5"/>
            <path id="パス_2659" data-name="パス 2659" d="M-774.506,1133.718s-4.144-2.763-3.223-9.209,13.66-16.269,16.116-15.5,3.07,4.451,3.07,4.451a19.516,19.516,0,0,1-.614,5.679,8.188,8.188,0,0,0,1.381,7.214c1.535,2.149-2.894,4.995-2.894,4.995s-.86-.161-2.687,1.29-11.148,5.428-11.148,5.428" transform="translate(787 -1079.846)" fill="none" stroke="#232323" stroke-width="1.5"/>
            <path id="パス_2660" data-name="パス 2660" d="M-760.221,1145.127s.279,5.03-1.607,7.266S-770,1158.4-770,1158.4" transform="translate(782.531 -1100.404)" fill="none" stroke="#232323" stroke-width="1.5"/>
            <path id="パス_2661" data-name="パス 2661" d="M-763.328,1321.77l-35.64,13.424" transform="translate(798.998 -1200.826)" fill="none" stroke="#232323" stroke-width="1.5"/>
            <path id="パス_2662" data-name="パス 2662" d="M-782.606,1224.845" transform="translate(789.696 -1145.724)" fill="none" stroke="#232323" stroke-width="1.5"/>
            <path id="パス_2663" data-name="パス 2663" d="M-782.093,1217.569l15.7,24.067s12.226,20.469,18.3,19.561,9.85-8.034,9.85-8.034l9.711-20.26s3.7-3.843,3.563-4.89-.978-3.283-.419-5.1,2.445-6.357,2.445-6.357-10.409-5.03-11.807-4.89-3.493,9.012-3.493,9.012-2.795,0-3.283,1.258a5.657,5.657,0,0,0,0,3l-3.423,3.074s-1.956,3-1.118,4.89,2.166,4.82,2.166,4.82" transform="translate(789.405 -1138.23)" fill="none" stroke="#232323" stroke-width="1.5"/>
            <path id="パス_2664" data-name="パス 2664" d="M-731.471,1217.66s4.541,3.912,5.729,6.008,6.008,11.737,6.567,12.156,1.537,0,1.537,0" transform="translate(760.626 -1141.639)" fill="none" stroke="#232323" stroke-width="1.5"/>
            <path id="パス_2665" data-name="パス 2665" d="M-738.021,1161.207h6.073s5,1.558,6.18,2.526,5.643,4.46,5.643,4.46l7.9,8.544" transform="translate(764.35 -1109.545)" fill="none" stroke="#232323" stroke-width="1.5"/>
            <path id="パス_2666" data-name="パス 2666" d="M-715.884,1191.923s-7.475-.14-10.619-1.677a109.186,109.186,0,0,1-9.5-5.938" transform="translate(763.203 -1122.679)" fill="none" stroke="#232323" stroke-width="1.5"/>
            <path id="パス_2667" data-name="パス 2667" d="M-652.214,1198.268s4.084-6.5,4.192-8.061a38.924,38.924,0,0,1,.7-4.245s-.054,3.762.376,3.977,1.988-2.795,1.881-4.783a3.2,3.2,0,0,0-1.4-2.687h-1.558l-4.192-.215" transform="translate(715.568 -1121.511)" fill="none" stroke="#232323" stroke-width="1.5"/>
            <path id="パス_2668" data-name="パス 2668" d="M-654.805,1178.96s1.29-1.881.43-2.365-6.556.484-6.556.484" transform="translate(720.524 -1118.217)" fill="none" stroke="#232323" stroke-width="1.5"/>
            <path id="パス_2669" data-name="パス 2669" d="M-660.95,1173.351s2.2-2.283.322-2.337-5.428,0-5.428,0-3.923,3.547-4.03,4.245,0,13.542,0,13.542" transform="translate(725.756 -1115.107)" fill="none" stroke="#232323" stroke-width="1.5"/>
            <path id="パス_2670" data-name="パス 2670" d="M-681.452,1176.732l-4.9-2.373-.562.318-2.471-1.1-.66,1.615,8.463,4.011" transform="translate(737.074 -1116.578)" fill="none" stroke="#232323" stroke-width="1.5"/>
            <path id="パス_2671" data-name="パス 2671" d="M-683.422,1177.714l.191-1.808" transform="translate(733.31 -1117.902)" fill="none" stroke="#232323" stroke-width="1.5"/>
            <path id="パス_2672" data-name="パス 2672" d="M-686.591,1184.475l2.321-2.894" transform="translate(735.112 -1121.128)" fill="none" stroke="#232323" stroke-width="1.5"/>
            <path id="パス_2673" data-name="パス 2673" d="M-677.748,1172.582l3.911-3.307" transform="translate(730.084 -1114.133)" fill="none" stroke="#232323" stroke-width="1.5"/>
            <path id="パス_2674" data-name="パス 2674" d="M-706.823,1106.908a7.9,7.9,0,0,0,2.321,1.017c1.24.286,8.267,1.053,8.681-.452s-.32-2.672.452-3.2,1.787-.771,1.769-1.769-3.583-2.509-3.583-2.509,2.962,1.417,4.091.552.96-3.236.96-3.236,3.213-.262,3.5-1.82-2.348-7.149-2.348-7.149.7-3.661,1.425-4.66,2.452-.636,3-2.452.817-5.086,0-6.085-4.717-7.433-8.148-8.218-3.61-.591-3.959-1.08-4.262-4.122-8.872-4.262-6.666-1.318-11.979,0a22.621,22.621,0,0,0-9.327,5.342s-4.25,4.831-4.486,9.2a31.8,31.8,0,0,0,.826,8.5l-.826,3.715" transform="translate(761.703 -1052.56)" fill="none" stroke="#232323" stroke-width="1.5"/>
            <g id="楕円形_232" data-name="楕円形 232" transform="translate(67.928 33.705)" fill="none" stroke="#232323" stroke-width="1.5">
              <ellipse cx="1.029" cy="1.802" rx="1.029" ry="1.802" stroke="none"/>
              <ellipse cx="1.029" cy="1.802" rx="0.279" ry="1.052" fill="none"/>
            </g>
            <g id="楕円形_233" data-name="楕円形 233" transform="translate(106.018 28.043)" fill="none" stroke="#232323" stroke-width="1.5">
              <ellipse cx="1.029" cy="1.544" rx="1.029" ry="1.544" stroke="none"/>
              <ellipse cx="1.029" cy="1.544" rx="0.279" ry="0.794" fill="none"/>
            </g>
            <g id="楕円形_234" data-name="楕円形 234" transform="translate(118.887 29.587)" fill="none" stroke="#232323" stroke-width="1.5">
              <ellipse cx="1.029" cy="1.802" rx="1.029" ry="1.802" stroke="none"/>
              <ellipse cx="1.029" cy="1.802" rx="0.279" ry="1.052" fill="none"/>
            </g>
            <path id="パス_2675" data-name="パス 2675" d="M-647.216,1114.25l-5.374,1.406" transform="translate(717.135 -1084.145)" fill="none" stroke="#232323" stroke-width="1.5"/>
            <path id="パス_2676" data-name="パス 2676" d="M-675.429,1103.19l-.376-5.637s-1.72-.86-1.666-1.612.215,2.741-1.5,4.084-7.094,2.472-7.094,2.472-4.837,3.493-5,3.009a12.767,12.767,0,0,1,1.182-4.568c.537-.86-4.3,7.416-7.04,7.416s-5.858-5.642-5.858-5.642-1.981-1.93-4.07-.659-2.18,4.519-1.816,6.3,5.177,5.6,6.539,5.6" transform="translate(747.757 -1072.382)" fill="none" stroke="#232323" stroke-width="1.5"/>
            <path id="パス_2677" data-name="パス 2677" d="M-723.056,1122.307s1.327,2.305,2.655,2.655a30.646,30.646,0,0,0,4.681.419" transform="translate(755.842 -1087.431)" fill="none" stroke="#232323" stroke-width="1.5"/>
            <path id="パス_2678" data-name="パス 2678" d="M-719.956,1129.43s.5,4.192-.758,5.659-2.864,2.515-4.331,1.747-3.353-5.24-3.353-5.24" transform="translate(758.879 -1091.481)" fill="none" stroke="#232323" stroke-width="1.5"/>
            <path id="パス_2679" data-name="パス 2679" d="M-731.471,1146.51s2.374.419,2.863,0,1.327-.908.978-1.537" transform="translate(760.626 -1100.317)" fill="none" stroke="#232323" stroke-width="1.5"/>
            <path id="パス_2680" data-name="パス 2680" d="M-723.056,1153.359s3.074-2.6,2.864-5.957" transform="translate(755.842 -1101.697)" fill="none" stroke="#232323" stroke-width="1.5"/>
            <path id="パス_2681" data-name="パス 2681" d="M-699.825,1116.614s-1.451-2.042-2.311-.43a4.627,4.627,0,0,0-.065,2.95c.273,1.236.9,2.463,1.3,2.371.7-.161,1.72-.7,1.451-1.773s-1.72-1.72-1.988-1.5a2.3,2.3,0,0,0-.484.645" transform="translate(744.101 -1083.598)" fill="none" stroke="#232323" stroke-width="1.5"/>
            <path id="パス_2682" data-name="パス 2682" d="M-646.343,1169.275s4.633,1.011,5.459,3.254,3.306,7.438,3.542,10.508,2.952,18.182,3.66,20.661,3.306,4.25,2.834,6.375-.564,1.83-.564,1.83,2.5,1.557,3.043,3.465,2.906,3.724,2.725,6.085-2.089.454-2.089.454l1.453,1.907v1.725s-1,1.816,0,2.634,4.723,2.543,4.9,3.633.182,2.089-1.09,2-3.814-2.815-3.814-2.815l-1-5.449s-2.361-2.725-4.723-2.815-5.994,0-5.994,0-4.359,1.453-4.632,2.452.454,4.087.454,4.087-.636,3.814,0,4.541a1.334,1.334,0,0,0,1.29.545,2.144,2.144,0,0,0,1.563-1.287,26.41,26.41,0,0,0,.7-3.8l-.35-2.528,1.526,2.7s5.42,7.791,6.033,7.345,1.185-.064.867-1.939-.89-2.431-1.145-3.855-.731-4.858-.731-4.858" transform="translate(712.231 -1114.133)" fill="none" stroke="#232323" stroke-width="1.5"/>
            <path id="パス_2683" data-name="パス 2683" d="M-609.731,1309.875s2.576,2.417,3.18,1.081-.986-4.452-.986-4.452a33.487,33.487,0,0,1-.954-4.8" transform="translate(691.417 -1189.417)" fill="none" stroke="#232323" stroke-width="1.5"/>
            <path id="パス_2684" data-name="パス 2684" d="M-602.044,1316.516s1.675,1.812,1.962.636-.541-3.88-.541-3.88" transform="translate(687.047 -1195.994)" fill="none" stroke="#232323" stroke-width="1.5"/>
            <path id="パス_2685" data-name="パス 2685" d="M-638.752,1290.634s-1-2.543-.727-3.178,1.816-3.36,1.816-3.36" transform="translate(708.355 -1179.407)" fill="none" stroke="#232323" stroke-width="1.5"/>
            <path id="パス_2686" data-name="パス 2686" d="M-663.394,1292.724l-4.4,1.635-13.714,5.9" transform="translate(732.224 -1184.313)" fill="none" stroke="#232323" stroke-width="1.5"/>
            <path id="パス_2687" data-name="パス 2687" d="M-646.027,1222.216s.683,4.45.683,5.994-.368,10.542-.368,10.542-.124,4.547-1.157,6.738-3.018,6.532-3.018,6.532l-1.075,2.48" transform="translate(714.857 -1144.229)" fill="none" stroke="#232323" stroke-width="1.5"/>
            <path id="パス_2688" data-name="パス 2688" d="M-624.937,1112.867s5.077-12.4,5.9-13.7a15.583,15.583,0,0,0,1.417-3.424s15.821-6.494,17.592-6.73,1.771-3.07,1.771-3.07h2.361s-2.479-4.368-2.361-7.084,0-8.973,0-8.973a21.718,21.718,0,0,1-.977-4.431c0-1.4-1.188-.419-1.188-.419v-6.846a58.567,58.567,0,0,1,3.214-5.729c.978-1.257,3.493-4.611,5.1-5.868s5.8-4.611,8.942-4.96a33.344,33.344,0,0,1,6.357,0s3.144,3.353,3.353,3.423,2.515-.559,3.563,0a20.247,20.247,0,0,1,4.82,4.471c.978,1.467,4.89,9.5,5.1,10.759s.489,3.493.489,3.493l-1.747-2.864v6.287s-3.493,7.685-4.262,8.8-2.305,4.052-3.772,4.541-1.327-.419-1.327-.419a34.017,34.017,0,0,1-2.235,4.96c-.629.7-3.772,3.982-6.148,5.1s-5.589,3.144-7.475,3.214-4.611-.769-5.17-1.467-4.277-5.989-4.277-5.989" transform="translate(700.062 -1041.482)" fill="none" stroke="#232323" stroke-width="1.5"/>
            <path id="パス_2689" data-name="パス 2689" d="M-500.618,1105.008s-.908-2.815-1.544-4.45-2.906,4.813-2.906,4.813-.727-5.722-.817-4.813a1.671,1.671,0,0,1-.727,1.271l-4-9.264" transform="translate(635.066 -1070.523)" fill="none" stroke="#232323" stroke-width="1.5"/>
            <path id="パス_2690" data-name="パス 2690" d="M-537.892,1085.212v1.544l-12.352-11.9s.454,8.083.817,8.537-5.54-4-6.267-6.539,0-6.812,0-6.812a12.07,12.07,0,0,1-2.271,4.269c-1.726,2.089-4.632,12.442-4.632,12.442" transform="translate(664.62 -1057.72)" fill="none" stroke="#232323" stroke-width="1.5"/>
            <path id="パス_2691" data-name="パス 2691" d="M-549.52,1101.612c-1.228-1.535-2.22-.971-2.22-.971l-3.423,1.746" transform="translate(660.395 -1075.056)" fill="none" stroke="#232323" stroke-width="1.5"/>
            <path id="パス_2692" data-name="パス 2692" d="M-555.163,1101.612c1.228-1.535,2.22-.971,2.22-.971l3.423,1.746" transform="translate(672.477 -1073.942)" fill="none" stroke="#232323" stroke-width="1.5"/>
            <path id="パス_2693" data-name="パス 2693" d="M-652.992,1152.155a3.626,3.626,0,0,1,1.6-.681" transform="translate(716.011 -1104.012)" fill="none" stroke="#232323" stroke-width="1.5"/>
            <path id="パス_2694" data-name="パス 2694" d="M-540.641,1111.578s-2.862,6.391-2.7,7.282,2.131,1.781,2.131,1.781" transform="translate(653.68 -1081.332)" fill="none" stroke="#232323" stroke-width="1.5"/>
            <path id="パス_2695" data-name="パス 2695" d="M-549.82,1142.7a4.66,4.66,0,0,1,2.862-.6c1.463.254,5.024.382,5.024.382s3.116.7,3.212,1.177" transform="translate(657.358 -1098.656)" fill="none" stroke="#232323" stroke-width="1.5"/>
            <path id="パス_2696" data-name="パス 2696" d="M-509.056,1143.912l2.186.911s2.579-.161,2.956.43,1.343,2.9,1.343,2.9,12.79,6.556,14.08,7.953,8.133,11.513,8.86,13.693,6.539,18.89,6.539,18.89-3.724.454-6.539.454-9.808-.454-9.808-.454l-2.18-.726-5.449,13.26s-3.36,10.444-3.633,11.08-4.813,7.538-4.813,7.538l-6.357,5.994H-500.7s14.077-1,16.529-1.635,13.26-2.18,13.26-2.18l5.722-.636h4.813l1.453-2.18,7.266,3.36a5.3,5.3,0,0,0,1.907-1.181c.454-.636,3.038-.878,3.038-.878l.807-1.614s-.171-1.908.342-2.422,2.055-1.639,2.055-1.639-.367-2.642,0-3.155a22.091,22.091,0,0,1,1.883-1.884,14.721,14.721,0,0,1-1.3-2.911,2.324,2.324,0,0,1,.685-1.321l1.223-1.2s-.269-2.642-1.027-2.984a7.375,7.375,0,0,0-2.8,0l6.713-13.416a30.052,30.052,0,0,1-5.383,1.181c-2.973.363-29.583-.454-29.583-.454" transform="translate(635.784 -1099.713)" fill="none" stroke="#232323" stroke-width="1.5"/>
            <path id="パス_2697" data-name="パス 2697" d="M-363.978,1277.244h-4.229s-1.685,1.208-1.24,2.067,2.8,1.59,2.8,1.59l5.692.127" transform="translate(554.859 -1175.512)" fill="none" stroke="#232323" stroke-width="1.5"/>
            <path id="パス_2698" data-name="パス 2698" d="M-359.858,1286.013l-.795,1.622" transform="translate(549.816 -1180.498)" fill="none" stroke="#232323" stroke-width="1.5"/>
            <path id="パス_2699" data-name="パス 2699" d="M-375.456,1290.387a16.516,16.516,0,0,0-2.321-.763h-5.756s-5.787.413-5.946.572-1.049,1.654-.223,2.321,6.3.509,6.3.509,4.643.191,5.628.89.859.795.859.795" transform="translate(566.528 -1182.55)" fill="none" stroke="#232323" stroke-width="1.5"/>
            <path id="パス_2700" data-name="パス 2700" d="M-392.521,1295.508s-1.116-.1-1.529.35a1.814,1.814,0,0,0,0,2.131,17.532,17.532,0,0,0,2.957,1.208l5.215.8s4.706,1.177,5.088,1.717a3.119,3.119,0,0,1,.413.668" transform="translate(569 -1185.891)" fill="none" stroke="#232323" stroke-width="1.5"/>
            <path id="パス_2701" data-name="パス 2701" d="M-393.519,1302.593s-1.208-.064-1.113.922,2.989,2.1,2.989,2.1,4.992,1.622,5.692,2.258,3.116,1.463,3.371,2.067a6.1,6.1,0,0,1,.35,1.113" transform="translate(569.137 -1189.923)" fill="none" stroke="#232323" stroke-width="1.5"/>
            <path id="パス_2702" data-name="パス 2702" d="M-389.7,1309.116s-.744,1.612-.413,2.4a6.338,6.338,0,0,1,.413,1.612" transform="translate(566.615 -1193.631)" fill="none" stroke="#232323" stroke-width="1.5"/>
            <path id="パス_2703" data-name="パス 2703" d="M-500.055,1164.209s-2.555,4.067-3.464,4.7" transform="translate(631.035 -1111.252)" fill="none" stroke="#232323" stroke-width="1.5"/>
            <path id="パス_2704" data-name="パス 2704" d="M-524.585,1146.4s.364,3.762-.227,5.105-2.794,4.944-2.794,4.944-5.159,4.837-7.255,5.858a5.645,5.645,0,0,0-3.386,3.762c-.322,1.4-.7,1.4-1.236,3.654a12,12,0,0,1-2.2,4.245s-.645.215-1.236,2.365a31.437,31.437,0,0,0-.7,5.75" transform="translate(653.833 -1101.127)" fill="none" stroke="#232323" stroke-width="1.5"/>
            <path id="パス_2705" data-name="パス 2705" d="M-555.385,1176.255s-.806-4.568-1.344-5.213.054-4.514-.806-6.18-5.936-5.73-5.936-5.73a18.711,18.711,0,0,1-2.315-4.092,6.031,6.031,0,0,1,1.075-4.837c.909-.91,3.1-3.183,3.1-3.183" transform="translate(666.512 -1101.481)" fill="none" stroke="#232323" stroke-width="1.5"/>
            <path id="パス_2706" data-name="パス 2706" d="M-553.2,1151.427s-.083,2.77,0,3.266a37.388,37.388,0,0,0,1.116,4.506" transform="translate(659.301 -1103.986)" fill="none" stroke="#232323" stroke-width="1.5"/>
            <path id="パス_2707" data-name="パス 2707" d="M-554.4,1178.79s2.687,2.067,5,2.191a59.873,59.873,0,0,0,6.242-.207l5.126-2.522" transform="translate(659.961 -1119.236)" fill="none" stroke="#232323" stroke-width="1.5"/>
            <path id="パス_2708" data-name="パス 2708" d="M-573.013,1168.069a15.03,15.03,0,0,0,.7,2.9,30.763,30.763,0,0,0,3.009,3.386" transform="translate(670.543 -1113.447)" fill="none" stroke="#232323" stroke-width="1.5"/>
            <path id="パス_2709" data-name="パス 2709" d="M-539.549,1218.543a2.948,2.948,0,0,0,.391,1.172l.879.716" transform="translate(651.52 -1142.141)" fill="none" stroke="#232323" stroke-width="1.5"/>
            <path id="パス_2710" data-name="パス 2710" d="M-540.767,1230.61s-.13,1.107.521,1.334a3.512,3.512,0,0,0,1.041.228" transform="translate(652.217 -1149.001)" fill="none" stroke="#232323" stroke-width="1.5"/>
            <path id="パス_2711" data-name="パス 2711" d="M-603.174,1195.706l2.664,11.7,2.5,10.01,1.93,8.365" transform="translate(687.689 -1129.158)" fill="none" stroke="#232323" stroke-width="1.5"/>
            <path id="パス_2712" data-name="パス 2712" d="M-605.042,1232.42s1.045,2.956,2.31,3.836,3.52,2.2,3.52,2.2" transform="translate(688.751 -1150.03)" fill="none" stroke="#232323" stroke-width="1.5"/>
            <path id="パス_2713" data-name="パス 2713" d="M-610.523,1263.7s1.608-1.418,2.961-1.292,4.527-.084,5.034.592,1.227,1.185.677,1.481a39.815,39.815,0,0,1-4.442.973" transform="translate(691.867 -1167.075)" fill="none" stroke="#232323" stroke-width="1.5"/>
            <path id="パス_2714" data-name="パス 2714" d="M-589.965,1250.743l9.279-.495s2.75-.055,3.9-1.98,5.665-7.645,5.665-7.645,2.475-2.42,4.18-2.255,8.635,1.43,8.635,1.43,5.775,5.225,5.885,6.215-3.135.22-3.135.22l-3.74-3.19a33.659,33.659,0,0,1-5.61-2.42" transform="translate(680.18 -1153.407)" fill="none" stroke="#232323" stroke-width="1.5"/>
            <path id="パス_2715" data-name="パス 2715" d="M-527.822,1250.2s2.475,4.235,2.64,5.555.11,4.18-.605,4.125-1.65-1.155-1.65-1.155-.44-5.335-1.375-6.05-6.765-2.695-6.765-2.695" transform="translate(649.261 -1160.011)" fill="none" stroke="#232323" stroke-width="1.5"/>
            <path id="パス_2716" data-name="パス 2716" d="M-528.778,1263.432s-.274,2.365-.934,2.365a2.187,2.187,0,0,1-1.925-1.76,21.566,21.566,0,0,0-.605-4.015c-.22-.11-5.885-1.76-5.885-1.76" transform="translate(650.71 -1164.721)" fill="none" stroke="#232323" stroke-width="1.5"/>
            <path id="パス_2717" data-name="パス 2717" d="M-533.24,1267.2s.539,2.254-1,1.759-1.54-4.18-1.54-4.18-2.2-1.76-3.08-1.87a8.68,8.68,0,0,0-1.815,0" transform="translate(652.159 -1167.338)" fill="none" stroke="#232323" stroke-width="1.5"/>
            <path id="パス_2718" data-name="パス 2718" d="M-568.515,1270.061s-1.65-1.595-2.86-1.375-3.025,2.475-3.025,2.475l-3.685,3.3s-4.015-.825-4.785-.22-11.165,5.445-11.165,5.445a8.822,8.822,0,0,1-2.97-.44,3.7,3.7,0,0,1-1.155-1.32" transform="translate(684.838 -1170.636)" fill="none" stroke="#232323" stroke-width="1.5"/>
            <path id="パス_2719" data-name="パス 2719" d="M-582.451,1291.672l42.291,2.693" transform="translate(675.908 -1183.715)" fill="none" stroke="#232323" stroke-width="1.5"/>
            <path id="パス_2720" data-name="パス 2720" d="M-632.663,1307.929l39.226,2.417-17.846,12.827-6.32-1.115-14.128-1.859-29.557-.558,17.2-8.644" transform="translate(720.727 -1192.957)" fill="none" stroke="#232323" stroke-width="1.5"/>
            <path id="パス_2721" data-name="パス 2721" d="M-654.75,1330.989s-7.393,4.183-9.717,6.228-8.179,8.365-8.179,8.365-5.856-2.6-10.224-2.7-38.852-3.9-40.432-3.532,1.3-3.067,1.3-3.067l16.359-8.551s11.8-4.275,13.013-4.09,4.647.465,4.647.465" transform="translate(756.251 -1201.889)" fill="none" stroke="#232323" stroke-width="1.5"/>
            <path id="パス_2722" data-name="パス 2722" d="M-646.343,1320.429l3.962-2.771" transform="translate(712.231 -1198.487)" fill="none" stroke="#232323" stroke-width="1.5"/>
            <path id="パス_2723" data-name="パス 2723" d="M-628.622,1309.491l1.21-1.265" transform="translate(702.156 -1193.126)" fill="none" stroke="#232323" stroke-width="1.5"/>
            <path id="パス_2724" data-name="パス 2724" d="M-615.459,1336.46l-6.221,6.506s-4.276-1.673-6.135-1.766-8.272,0-8.272,0l6.692-5.484" transform="translate(706.4 -1208.754)" fill="none" stroke="#232323" stroke-width="1.5"/>
            <path id="パス_2725" data-name="パス 2725" d="M-558.408,1354.557l16.065,4.29L-560.36,1369l-13.442-7.078Z" transform="translate(670.991 -1219.465)" fill="none" stroke="#232323" stroke-width="1.5"/>
          </g>
          <g id="グループ_1778" data-name="グループ 1778" transform="translate(24.175)">
            <path id="前面オブジェクトで型抜き_1" data-name="前面オブジェクトで型抜き 1" d="M25.625,51.643h0V45.523h-.219a31.352,31.352,0,0,1-11.592-2.17,28.606,28.606,0,0,1-4.939-2.527A25.983,25.983,0,0,1,4.7,37.5a21.32,21.32,0,0,0,1.414-7.625A22.471,22.471,0,0,0,0,14.679,22.036,22.036,0,0,1,3.979,8.765,25.9,25.9,0,0,1,9.81,4.122,30.736,30.736,0,0,1,25.406,0,31.572,31.572,0,0,1,35.981,1.789a27.868,27.868,0,0,1,8.636,4.878A22.929,22.929,0,0,1,50.44,13.9a19.424,19.424,0,0,1,.582,16.465,21.925,21.925,0,0,1-4.3,6.515,26.144,26.144,0,0,1-6.52,4.977,29.885,29.885,0,0,1-8.2,2.992l-6.369,6.792Z" transform="translate(67.704 0)" fill="none" stroke="#232323" stroke-width="1.5"/>
            <path id="合体_4" data-name="合体 4" d="M33.457,50.041C14.852,49.5,0,38.51,0,25.031,0,11.207,15.621,0,34.89,0S69.78,11.207,69.78,25.031c0,12.645-13.07,23.1-30.047,24.791v6.391Z" transform="translate(0 4.82)" fill="none" stroke="#232323" stroke-width="1.5"/>
          </g>
        </g>
        <g id="グループ_1781" data-name="グループ 1781" transform="translate(340.518 473.093)">
          <g id="楕円形_237" data-name="楕円形 237" transform="translate(0.04 -0.093)" fill="#fff" stroke="#232323" stroke-width="1">
            <circle cx="2.5" cy="2.5" r="2.5" stroke="none"/>
            <circle cx="2.5" cy="2.5" r="2" fill="none"/>
          </g>
          <g id="楕円形_238" data-name="楕円形 238" transform="translate(13.04 -0.093)" fill="#fff" stroke="#232323" stroke-width="1">
            <circle cx="2.5" cy="2.5" r="2.5" stroke="none"/>
            <circle cx="2.5" cy="2.5" r="2" fill="none"/>
          </g>
          <g id="楕円形_239" data-name="楕円形 239" transform="translate(25.04 -0.093)" fill="#fff" stroke="#232323" stroke-width="1">
            <circle cx="2.5" cy="2.5" r="2.5" stroke="none"/>
            <circle cx="2.5" cy="2.5" r="2" fill="none"/>
          </g>
          <g id="楕円形_240" data-name="楕円形 240" transform="translate(38.04 -0.093)" fill="#fff" stroke="#232323" stroke-width="1">
            <circle cx="2.5" cy="2.5" r="2.5" stroke="none"/>
            <circle cx="2.5" cy="2.5" r="2" fill="none"/>
          </g>
        </g>
        <g id="グループ_1782" data-name="グループ 1782" transform="translate(410.115 466.83)">
          <g id="楕円形_237-2" data-name="楕円形 237" transform="translate(-0.386 0.285)" fill="#fff" stroke="#232323" stroke-width="1">
            <ellipse cx="2" cy="1.942" rx="2" ry="1.942" stroke="none"/>
            <ellipse cx="2" cy="1.942" rx="1.5" ry="1.442" fill="none"/>
          </g>
          <g id="楕円形_238-2" data-name="楕円形 238" transform="translate(10.614 0.285)" fill="#fff" stroke="#232323" stroke-width="1">
            <ellipse cx="2" cy="1.942" rx="2" ry="1.942" stroke="none"/>
            <ellipse cx="2" cy="1.942" rx="1.5" ry="1.442" fill="none"/>
          </g>
          <g id="楕円形_239-2" data-name="楕円形 239" transform="translate(21.614 0.285)" fill="#fff" stroke="#232323" stroke-width="1">
            <ellipse cx="2" cy="1.942" rx="2" ry="1.942" stroke="none"/>
            <ellipse cx="2" cy="1.942" rx="1.5" ry="1.442" fill="none"/>
          </g>
        </g>
      </g>
      <g id="グループ_1871" data-name="グループ 1871">
        <g id="グループ_1777" data-name="グループ 1777" transform="translate(3 35.5)">
          <text id="新生活の総合支援" transform="translate(1505.5 672)" fill="#232323" font-size="27" font-family="HiraginoSans-W6, Hiragino Sans" letter-spacing="0.1em"><tspan x="-117.45" y="0">新生活の総合支援</tspan></text>
          <g id="グループ_1776" data-name="グループ 1776" transform="translate(-5.009 -4)">
            <g id="グループ_1763" data-name="グループ 1763" transform="translate(1438.247 460.133)">
              <g id="グループ_1762" data-name="グループ 1762" transform="translate(0 0)">
                <path id="パス_2632" data-name="パス 2632" d="M181.7,2569.911l-21.588-17.8a2.685,2.685,0,0,0-3.44,0l-21.6,17.8a2.711,2.711,0,0,0-.982,2.087v26.867a2.7,2.7,0,0,0,2.7,2.709h43.185a2.7,2.7,0,0,0,2.7-2.709V2572a2.7,2.7,0,0,0-.982-2.087Zm-20.451,26.251h-5.722V2581.2h5.722Zm16.026,0H166.657v-17.67a2.7,2.7,0,0,0-2.708-2.7H152.828a2.7,2.7,0,0,0-2.7,2.7v17.67H139.5v-22.889l18.893-15.583,18.885,15.583Z" transform="translate(-126.571 -2539.944)" fill="none" stroke="#000" stroke-width="1"/>
                <path id="パス_2633" data-name="パス 2633" d="M194.879,2573.205c-6.021-4.824-11.7-9.437-17.862-14.513-1.845-1.656-3.779-3.223-5.657-4.74-1.828-1.485-3.726-3.018-5.481-4.6a2.7,2.7,0,0,0-3.616,0c-1.747,1.579-3.64,3.112-5.477,4.6-1.877,1.517-3.812,3.084-5.649,4.74-6.168,5.076-11.849,9.689-17.87,14.513a2.7,2.7,0,1,0,3.383,4.216c6.053-4.847,11.763-9.49,17.968-14.594l.094-.083c1.747-1.57,3.64-3.1,5.473-4.593,1.284-1.035,2.6-2.1,3.89-3.2,1.288,1.1,2.6,2.16,3.886,3.2,1.832,1.489,3.73,3.022,5.481,4.593a.581.581,0,0,0,.09.083c6.2,5.1,11.911,9.747,17.968,14.594a2.7,2.7,0,1,0,3.378-4.216Z" transform="translate(-132.256 -2548.661)" fill="none" stroke="#000" stroke-width="1"/>
              </g>
            </g>
            <g id="グループ_1764" data-name="グループ 1764" transform="translate(1524.273 548.422)">
              <path id="パス_2634" data-name="パス 2634" d="M179.676,2422.383c-8.876,0-16.1,6.976-16.1,15.571,0,5.568,2.257,8.875,3.925,11.323,1.03,1.506,1.606,2.392,1.606,3.3a6.727,6.727,0,0,0,3,5.345c.048,1.208.23,4.121.23,4.121v.008c.029.83.46,2.536,3.331,3.49a4.864,4.864,0,0,0,1.313,1.289,2.038,2.038,0,0,0,1.141.345h3.106a2.054,2.054,0,0,0,1.145-.345,5.1,5.1,0,0,0,1.318-1.289c2.885-.953,3.3-2.689,3.326-3.5,0,0,.173-2.914.22-4.121a6.693,6.693,0,0,0,3.01-5.345c0-.9.58-1.791,1.615-3.311a18.47,18.47,0,0,0,3.911-11.31,15.854,15.854,0,0,0-16.1-15.571Zm8.818,24.6c-1.189,1.739-2.315,3.387-2.315,5.587a3.016,3.016,0,0,1-1.524,2.19H174.7a3,3,0,0,1-1.524-2.19c0-2.2-1.126-3.848-2.329-5.607-1.5-2.209-3.2-4.706-3.2-9.014a12.046,12.046,0,0,1,24.069,0c0,4.313-1.706,6.814-3.221,9.034Z" transform="translate(-155.732 -2414.234)" fill="none" stroke="#000" stroke-width="1"/>
              <path id="パス_2635" data-name="パス 2635" d="M167.741,2425.772a1.025,1.025,0,0,0,1.021-1.02V2421.7a1.021,1.021,0,1,0-2.042,0v3.048a1.024,1.024,0,0,0,1.021,1.02Z" transform="translate(-143.797 -2420.682)" fill="none" stroke="#000" stroke-width="1"/>
              <path id="パス_2636" data-name="パス 2636" d="M165.986,2425.494a1.026,1.026,0,0,0,1.395.379,1.019,1.019,0,0,0,.374-1.395l-1.529-2.646a1.016,1.016,0,1,0-1.759,1.017Z" transform="translate(-152.864 -2418.252)" fill="none" stroke="#000" stroke-width="1"/>
              <path id="パス_2637" data-name="パス 2637" d="M166.751,2424.734l-2.646-1.523a1.013,1.013,0,0,0-1.39.373,1.025,1.025,0,0,0,.369,1.395l2.65,1.524a1.02,1.02,0,0,0,1.016-1.769Z" transform="translate(-159.505 -2411.612)" fill="none" stroke="#000" stroke-width="1"/>
              <path id="パス_2638" data-name="パス 2638" d="M167.027,2426.482a1.007,1.007,0,0,0-1.016-1.016h-3.053a1.019,1.019,0,1,0,0,2.038h3.053a1.015,1.015,0,0,0,1.016-1.021Z" transform="translate(-161.937 -2402.537)" fill="none" stroke="#000" stroke-width="1"/>
              <path id="パス_2639" data-name="パス 2639" d="M165.737,2427.673l-2.65,1.539a.991.991,0,0,0-.369,1.376,1.011,1.011,0,0,0,.877.513.969.969,0,0,0,.513-.14l2.646-1.518a1.023,1.023,0,0,0,.369-1.391,1.006,1.006,0,0,0-1.385-.379Z" transform="translate(-159.507 -2394.68)" fill="none" stroke="#000" stroke-width="1"/>
              <path id="パス_2640" data-name="パス 2640" d="M174.486,2429.212l-2.646-1.539a1.018,1.018,0,0,0-1.395.379,1.029,1.029,0,0,0,.374,1.391l2.65,1.518a.948.948,0,0,0,.5.14,1.024,1.024,0,0,0,.882-.5,1.008,1.008,0,0,0-.369-1.385Z" transform="translate(-130.178 -2394.68)" fill="none" stroke="#000" stroke-width="1"/>
              <path id="パス_2641" data-name="パス 2641" d="M174.936,2425.466h-3.048a1.019,1.019,0,1,0,0,2.038h3.048a1.019,1.019,0,1,0,0-2.038Z" transform="translate(-128.069 -2402.537)" fill="none" stroke="#000" stroke-width="1"/>
              <path id="パス_2642" data-name="パス 2642" d="M171.333,2426.643a1.031,1.031,0,0,0,.508-.14l2.646-1.524a1.024,1.024,0,0,0,.369-1.395,1.007,1.007,0,0,0-1.385-.373l-2.65,1.523a1.024,1.024,0,0,0-.374,1.39,1.044,1.044,0,0,0,.887.519Z" transform="translate(-130.178 -2411.612)" fill="none" stroke="#000" stroke-width="1"/>
              <path id="パス_2643" data-name="パス 2643" d="M169.3,2425.873a1.121,1.121,0,0,0,.5.13,1.021,1.021,0,0,0,.887-.508l1.519-2.645a1.014,1.014,0,1,0-1.754-1.017l-1.529,2.646a1.023,1.023,0,0,0,.374,1.395Z" transform="translate(-135.933 -2418.252)" fill="none" stroke="#000" stroke-width="1"/>
            </g>
            <g id="グループ_1769" data-name="グループ 1769" transform="translate(1530.6 465.075)">
              <g id="グループ_1765" data-name="グループ 1765" transform="translate(0)">
                <path id="パス_2644" data-name="パス 2644" d="M730.147,761.218c0,8.784-7.887,15.905-17.616,15.905S694.914,770,694.914,761.218s17.616-38.6,17.616-38.6S730.147,752.433,730.147,761.218Z" transform="translate(-694.914 -722.613)" fill="none" stroke="#000" stroke-width="1"/>
                <path id="パス_2645" data-name="パス 2645" d="M747.325,839.9c0,6.312-5.883,11.429-13.141,11.429s-13.14-5.117-13.14-11.429,13.14-27.741,13.14-27.741S747.325,833.593,747.325,839.9Z" transform="translate(-716.568 -796.824)" fill="#fff"/>
                <path id="パス_2646" data-name="パス 2646" d="M760.114,898.488c0,4.471-4.391,8.1-9.808,8.1s-9.808-3.625-9.808-8.1,9.808-19.653,9.808-19.653S760.114,894.016,760.114,898.488Z" transform="translate(-732.69 -852.075)" fill="none" stroke="#000" stroke-width="1"/>
              </g>
            </g>
            <line id="線_40" data-name="線 40" x2="152.019" transform="translate(1434.5 533.003)" fill="none" stroke="#232323" stroke-width="0.5"/>
            <line id="線_41" data-name="線 41" y2="164.865" transform="translate(1510.509 449.5)" fill="none" stroke="#232323" stroke-width="0.5"/>
          </g>
        </g>
        <g id="グループ_1849" data-name="グループ 1849" transform="translate(775.703 -816.637)">
          <path id="パス_2751" data-name="パス 2751" d="M686.347,1435.288c-2.029-2.8-4.027-5.005-4.041-5.022a.979.979,0,0,0-1.494.054c-.011.019-1.777,2.258-3.557,5.12-1.763,2.89-3.6,6.289-3.638,9.1,0,.019,0,.075,0,.162a6.433,6.433,0,0,0,3.047,5.479,9.986,9.986,0,0,0,5.19,1.413c.1,0,.174-.006.221-.006a10.875,10.875,0,0,0,5.367-1.586,6.427,6.427,0,0,0,3.15-5.569v-.132C690.475,1441.439,688.365,1438.13,686.347,1435.288Zm2.3,9.145a4.447,4.447,0,0,1-2.25,3.918,8.865,8.865,0,0,1-4.327,1.278l-.207,0a7.959,7.959,0,0,1-4.14-1.1,4.447,4.447,0,0,1-2.141-3.893l-.978.028.975-.087,0-.036c-.039-1.923,1.617-5.328,3.341-8.066,1.031-1.656,2.06-3.105,2.724-4,.743.877,1.925,2.318,3.119,3.963,1.97,2.679,3.881,6.039,3.881,7.856A1.206,1.206,0,0,0,688.642,1444.433Zm21.642-38.737a.976.976,0,0,0-1-.956l-8.307.216a9.047,9.047,0,0,0-4.859-2l-.031,0v-4.63h1.631c.017.034.014.07.031.109h0a4.7,4.7,0,0,0,4.207,2.618h.065a4.727,4.727,0,0,0,4.649-4.723v-.059a4.736,4.736,0,0,0-4.714-4.658h-.028a1.028,1.028,0,0,0-.143.009,4.683,4.683,0,0,0-4.5,4.453,1.006,1.006,0,0,0,.039.292h-4.341a1.176,1.176,0,0,0,.014-.177v0a4.691,4.691,0,0,0-4.638-4.221h-.031l-.1,0h0a4.725,4.725,0,0,0-4.6,4.717,1.23,1.23,0,0,0,.008.177,4.7,4.7,0,0,0,4.708,4.543h.078a4.708,4.708,0,0,0,4.232-2.836,1.1,1.1,0,0,0,.053-.244h1.421V1403a.628.628,0,0,0-.1-.006v0a9.045,9.045,0,0,0-4.927,2.276l-6.819.177a1.1,1.1,0,0,0-.25.042,8.367,8.367,0,0,0-7.676,7.945,1.022,1.022,0,0,0-.039.3l.19,7.317-1.522.045a.974.974,0,0,0-.953,1l.154,6a.966.966,0,0,0,.3.684.978.978,0,0,0,.673.269h.028l16.8-.44a.976.976,0,0,0,.95-1l-.157-6a.972.972,0,0,0-1-.953l-1.525.042-.042-1.648,1.382-.034a9.021,9.021,0,0,0,5.625,1.987h.188a9.011,9.011,0,0,0,5.779-2.29l8.447-.219a.958.958,0,0,0,.684-.3.983.983,0,0,0,.269-.7Zm-11.042-9.5a2.727,2.727,0,0,1,2.637-2.621h.076a2.764,2.764,0,0,1,2.761,2.694.47.47,0,0,0,0,.064,2.769,2.769,0,0,1-2.693,2.769h-.068a2.747,2.747,0,0,1-2.455-1.542.992.992,0,0,0-.51-.459,1.055,1.055,0,0,0-.087-.227A.987.987,0,0,0,699.242,1396.195Zm-8,1.157a.95.95,0,0,0-.378.432,2.744,2.744,0,0,1-2.438,1.67l-.028-.005-.053.005a2.768,2.768,0,0,1-2.758-2.69l0-.076a2.759,2.759,0,0,1,2.693-2.758l.079-.006v0a2.73,2.73,0,0,1,2.69,2.475.992.992,0,0,0,.272.563.922.922,0,0,0-.076.384Zm9.529,19.414a.972.972,0,0,0-.653.275,7.051,7.051,0,0,1-4.719,2h-.177a7.1,7.1,0,0,1-4.647-1.754,1.013,1.013,0,0,0-.661-.239l-2.727.073a.974.974,0,0,0-.95,1l.1,3.6a.962.962,0,0,0,.3.687.993.993,0,0,0,.7.269l1.522-.042.107,4.044-14.845.387-.1-4.047,1.522-.034a.99.99,0,0,0,.956-1.006l-.21-8.085a1.128,1.128,0,0,0,.022-.2,6.414,6.414,0,0,1,6.062-6.275,1.357,1.357,0,0,0,.182-.025l6.984-.182a.962.962,0,0,0,.664-.286,7.036,7.036,0,0,1,4.083-2,.969.969,0,0,0,.524-.241.752.752,0,0,0,.6,0,.96.96,0,0,0,.518.216,7.023,7.023,0,0,1,4.044,1.772,1,1,0,0,0,.681.249l7.707-.2.258,9.843Z" transform="translate(0 0)" fill="none" stroke="#000" stroke-width="1"/>
        </g>
      </g>
    </g>
    <g id="グループ_1884" data-name="グループ 1884" transform="translate(765.112 384.505)">
      <g id="ロゴタイプ_英_" data-name="ロゴタイプ（英）" transform="translate(158.195 148.56)">
        <path id="パス_2773" data-name="パス 2773" d="M279.623,208.716v-9.5a8,8,0,0,0-8.018-8.018H259.578a2.555,2.555,0,0,1-1.789-.679,2.173,2.173,0,0,1-.74-1.665v-2.405a2.271,2.271,0,0,1,.74-1.7,2.493,2.493,0,0,1,1.789-.709h14.864a4.108,4.108,0,0,0,3.053-1.3,4.262,4.262,0,0,0,1.265-3.085,4.063,4.063,0,0,0-1.265-3.022,4.213,4.213,0,0,0-3.053-1.234h-18.5a8,8,0,0,0-8.016,7.957v7.957a8,8,0,0,0,8.016,8.018h12.029a2.559,2.559,0,0,1,1.788.678,2.175,2.175,0,0,1,.74,1.666V205.7a2.264,2.264,0,0,1-.74,1.7,2.493,2.493,0,0,1-1.788.709H251.993a4.318,4.318,0,1,0,0,8.635h19.613a8,8,0,0,0,8.018-8.02Z" transform="translate(-247.675 -174.733)" fill="#4ca223"/>
        <path id="パス_2774" data-name="パス 2774" d="M355.681,212.981a3.451,3.451,0,0,0-.123-1.295l-7.957-31.7a6.734,6.734,0,0,0-2.251-3.579,5.922,5.922,0,0,0-3.916-1.419h-8.264a6.041,6.041,0,0,0-3.948,1.419,6.32,6.32,0,0,0-2.22,3.579l-8.018,31.7a3.359,3.359,0,0,0-.124,1.295,4.209,4.209,0,0,0,1.511,2.991,4.416,4.416,0,0,0,3.3,1.079q3.517-.184,4.256-3.33l2.529-10.484a1.493,1.493,0,0,1,1.6-1.236h10.423a1.494,1.494,0,0,1,1.6,1.236l2.528,10.484a4.173,4.173,0,0,0,4.254,3.33,4.523,4.523,0,0,0,3.333-1.079A3.97,3.97,0,0,0,355.681,212.981ZM341.373,192.2a.926.926,0,0,1-1.049,1.048H334.28a.926.926,0,0,1-1.048-1.048v-.248l1.85-7.4a.926.926,0,0,1,.986-.8h2.468a.926.926,0,0,1,.987.8l1.789,7.4A.574.574,0,0,1,341.373,192.2Z" transform="translate(-277.463 -174.556)" fill="#4ca223"/>
        <path id="パス_2775" data-name="パス 2775" d="M429.9,191.634v-5.612a10.631,10.631,0,0,0-10.669-10.61H403.2a4.744,4.744,0,0,0-3.363,1.3,4.146,4.146,0,0,0-1.386,3.145v33.183a4.065,4.065,0,0,0,1.325,3.053,4.782,4.782,0,0,0,6.476,0,4.062,4.062,0,0,0,1.326-3.053v-9.621q0-1.172,1.3-1.172h10.361A10.631,10.631,0,0,0,429.9,191.634Zm-9.126-2.1a3.776,3.776,0,0,1-1.236,2.839,4.154,4.154,0,0,1-2.961,1.172h-7.708q-1.3,0-1.3-1.236v-7.03q0-1.233,1.3-1.233h7.708a4.145,4.145,0,0,1,2.961,1.172,3.768,3.768,0,0,1,1.236,2.837Z" transform="translate(-310.781 -174.733)" fill="#4ca223"/>
        <path id="パス_2776" data-name="パス 2776" d="M499.422,205.607V186.181A10.95,10.95,0,0,0,488.443,175.2h-8.7a10.951,10.951,0,0,0-10.977,10.981v19.426a10.951,10.951,0,0,0,10.977,10.98h8.7a10.95,10.95,0,0,0,10.978-10.98Zm-9.129-.863a3.05,3.05,0,0,1-.955,2.283,3.286,3.286,0,0,1-2.376.925h-5.735a3.312,3.312,0,0,1-2.344-.925,3.006,3.006,0,0,1-.987-2.283v-17.7a3.042,3.042,0,0,1,.987-2.252,3.252,3.252,0,0,1,2.344-.956h5.735a3.227,3.227,0,0,1,2.376.956,3.087,3.087,0,0,1,.955,2.252Z" transform="translate(-340.213 -174.645)" fill="#4ca223"/>
        <path id="パス_2777" data-name="パス 2777" d="M566.761,211.867a4.261,4.261,0,0,0-1.266-3.082,4.115,4.115,0,0,0-3.054-1.294H548.69a1.635,1.635,0,0,1-1.851-1.851V178.563a4.063,4.063,0,0,0-1.327-3.053,4.775,4.775,0,0,0-6.475,0,4.06,4.06,0,0,0-1.328,3.053v30.222a7.377,7.377,0,0,0,7.4,7.4h17.33a4.321,4.321,0,0,0,4.32-4.32Z" transform="translate(-369.068 -174.245)" fill="#4ca223"/>
      </g>
      <g id="ロゴタイプ_カナ_" data-name="ロゴタイプ（カナ）" transform="translate(216.406 196.244)">
        <path id="パス_2778" data-name="パス 2778" d="M365.8,262.969a1.6,1.6,0,0,0-.474-1.156,1.537,1.537,0,0,0-1.144-.486h-.67c-.309,0-.465-.148-.465-.441v-1.131a1.524,1.524,0,0,0-.5-1.147,1.8,1.8,0,0,0-2.43,0,1.525,1.525,0,0,0-.5,1.147v1.131c0,.293-.161.441-.484.441h-4.7c-.31,0-.462-.148-.462-.441v-1.04a1.636,1.636,0,0,0-.51-1.213,1.7,1.7,0,0,0-2.912,1.213v1.04c0,.293-.161.441-.485.441h-.672a1.537,1.537,0,0,0-1.144.486,1.6,1.6,0,0,0-.474,1.156,1.619,1.619,0,0,0,1.618,1.619h.672c.324,0,.485.152.485.461v1.5a1.711,1.711,0,0,0,3.423,0v-1.5a.407.407,0,0,1,.462-.461h4.7c.323,0,.484.152.484.461v4.742a.841.841,0,0,1-.289.638.972.972,0,0,1-.683.263h-4.533a1.631,1.631,0,0,0,0,3.261h5.712a3.2,3.2,0,0,0,3.215-3.193v-5.712a.409.409,0,0,1,.465-.461h.67a1.62,1.62,0,0,0,1.619-1.619Z" transform="translate(-347.788 -257.041)" fill="#4ca223"/>
        <g id="グループ_1882" data-name="グループ 1882" transform="translate(22.578)">
          <g id="グループ_1881" data-name="グループ 1881" transform="translate(0 0.586)">
            <path id="パス_2779" data-name="パス 2779" d="M403.247,261.492a1.555,1.555,0,0,0-.473-1.145,1.589,1.589,0,0,0-1.166-.474H397.1a.409.409,0,0,1-.463-.461v-.554a1.494,1.494,0,0,0-.5-1.125,1.8,1.8,0,0,0-2.428,0,1.508,1.508,0,0,0-.5,1.125v.554c0,.306-.164.461-.487.461h-4.488a1.621,1.621,0,0,0,0,3.241h4.488c.323,0,.487.152.487.459v8.306a1.711,1.711,0,0,0,3.422,0v-8.306a.407.407,0,0,1,.463-.459h4.51a1.6,1.6,0,0,0,1.156-.477A1.54,1.54,0,0,0,403.247,261.492Z" transform="translate(-386.619 -257.26)" fill="#4ca223"/>
            <path id="パス_2780" data-name="パス 2780" d="M392.008,272.242a1.968,1.968,0,0,0,.116-.67A1.574,1.574,0,0,0,391.081,270a1.674,1.674,0,0,0-.67-.138,1.561,1.561,0,0,0-1.548,1.038l-2.108,4.927a1.709,1.709,0,0,0-.137.672,1.559,1.559,0,0,0,1.04,1.549,1.67,1.67,0,0,0,.67.138,1.575,1.575,0,0,0,1.572-1.015Z" transform="translate(-386.619 -262.535)" fill="#4ca223"/>
            <path id="パス_2781" data-name="パス 2781" d="M411.12,275.827l-2.082-4.927a1.583,1.583,0,0,0-1.574-1.038,1.68,1.68,0,0,0-.67.138,1.573,1.573,0,0,0-1.04,1.572,1.691,1.691,0,0,0,.137.67l2.084,4.928a1.577,1.577,0,0,0,1.572,1.015,1.673,1.673,0,0,0,.671-.138,1.56,1.56,0,0,0,1.039-1.549A1.709,1.709,0,0,0,411.12,275.827Z" transform="translate(-394.628 -262.535)" fill="#4ca223"/>
          </g>
          <path id="パス_2782" data-name="パス 2782" d="M409.87,260.637a2.192,2.192,0,1,1,2.191-2.192A2.2,2.2,0,0,1,409.87,260.637Zm0-3.212a1.02,1.02,0,1,0,1.021,1.02A1.021,1.021,0,0,0,409.87,257.425Z" transform="translate(-395.433 -256.253)" fill="#4ca223"/>
        </g>
        <path id="パス_2783" data-name="パス 2783" d="M439.277,270.635a1.589,1.589,0,0,0-.475-1.168,1.564,1.564,0,0,0-1.143-.472H424.685a1.568,1.568,0,0,0-1.148.472,1.592,1.592,0,0,0-.473,1.168,1.618,1.618,0,0,0,1.622,1.619h12.974a1.621,1.621,0,0,0,1.618-1.619Z" transform="translate(-379.294 -261.586)" fill="#4ca223"/>
        <g id="グループ_1883" data-name="グループ 1883" transform="translate(64.543 0.847)">
          <path id="パス_2784" data-name="パス 2784" d="M463.774,259.633a1.644,1.644,0,0,0-.345-1.272,1.621,1.621,0,0,0-1.158-.624,1.638,1.638,0,0,0-1.25.334,1.668,1.668,0,0,0-.647,1.147L458.8,271.869a1.692,1.692,0,0,0,.358,1.25,1.647,1.647,0,0,0,1.145.647,1.587,1.587,0,0,0,1.249-.348,1.662,1.662,0,0,0,.648-1.133Z" transform="translate(-458.792 -257.715)" fill="#4ca223"/>
          <path id="パス_2785" data-name="パス 2785" d="M480.549,270.315v-5.021a1.5,1.5,0,0,0-.495-1.12,1.792,1.792,0,0,0-2.43,0,1.5,1.5,0,0,0-.5,1.12v4.072a.842.842,0,0,1-.279.636.93.93,0,0,1-.669.266h-1.458a.429.429,0,0,1-.486-.486V259.422a1.711,1.711,0,1,0-3.422,0v12.465a1.562,1.562,0,0,0,.474,1.147,1.584,1.584,0,0,0,1.168.473h4.88a3.2,3.2,0,0,0,3.214-3.192Z" transform="translate(-463.823 -257.71)" fill="#4ca223"/>
        </g>
      </g>
      <g id="ロゴマーク" transform="translate(33.888 112.879)">
        <g id="目" transform="translate(50.457 36.18)">
          <path id="パス_2786" data-name="パス 2786" d="M123.457,191.352c1.542,0,2.791-2.806,2.791-6.269s-1.249-6.27-2.791-6.27-2.792,2.806-2.792,6.27S121.913,191.352,123.457,191.352Z" transform="translate(-120.665 -176.656)" fill="#4ca223"/>
          <path id="パス_2787" data-name="パス 2787" d="M156.366,187.641c1.542,0,2.792-2.807,2.792-6.268s-1.25-6.27-2.792-6.27-2.789,2.807-2.789,6.27S154.826,187.641,156.366,187.641Z" transform="translate(-134.44 -175.103)" fill="#4ca223"/>
        </g>
        <path id="取手" d="M148.2,218.036a3.953,3.953,0,0,0-.686-3.993c-1.09-1.385-1.514-2.047-1.523-2.064a2.229,2.229,0,0,0-3.783,2.358c.048.077.469.742,1.545,2.134a4,4,0,0,1-.963.247l-22.059,3.09c-2.119.294-4.245-.525-4.716-1.2l-1.964-2.819a2.23,2.23,0,1,0-3.659,2.549l1.966,2.819c1.343,1.926,4.378,3.171,7.461,3.171a11.13,11.13,0,0,0,1.529-.106l22.058-3.09C145.794,220.8,147.541,219.67,148.2,218.036Z" transform="translate(-65.74 -153.919)" fill="#4ca223"/>
        <path id="パス_2788" data-name="パス 2788" d="M142.913,165.845c-.024-5.561-3.236-10.056-7.176-10.039a5.291,5.291,0,0,0-2.385.6V125.349a14.057,14.057,0,0,0-13.844-12.47H47.731a13.857,13.857,0,0,0-13.843,13.843v82.03a13.858,13.858,0,0,0,13.843,13.841H54.88a12.3,12.3,0,0,0,13.762,8.768l51.475-7.352a15.911,15.911,0,0,0,13.235-15.258V190.64a15.8,15.8,0,0,0,4.749-5.253,13.326,13.326,0,0,0,.813-10.468C141.294,173.28,142.931,169.835,142.913,165.845Zm-16.741,42.908A8.6,8.6,0,0,1,119.1,216.9l-51.477,7.354-.392.058.392-.058a5.222,5.222,0,0,1-6.054-5.252v-82.03a8.6,8.6,0,0,1,7.069-8.151l51.475-7.354a5.19,5.19,0,0,1,6.055,5.251v64.141a54.841,54.841,0,0,1-12.907,3.162,3.027,3.027,0,0,0-3.253-2.108l-11.436,1.339a3.04,3.04,0,0,0-2.666,3.376l.278,2.384a3.04,3.04,0,0,0,3.019,2.691,3.134,3.134,0,0,0,.358-.021L111,200.346a3.037,3.037,0,0,0,2.671-3.125,61.533,61.533,0,0,0,12.5-2.9Zm-59.3,15.616.2-.029Zm68.385-40.51a11.137,11.137,0,0,1-1.9,2.539V175.322a5.312,5.312,0,0,0,2.468.619l.033,0A10.16,10.16,0,0,1,135.255,183.859Z" transform="translate(-33.888 -112.879)" fill="#4ca223"/>
      </g>
    </g>
  </g>
</svg>
