<svg xmlns="http://www.w3.org/2000/svg" width="274.487" height="115.702" viewBox="0 0 274.487 115.702">
  <g id="グループ_1896" data-name="グループ 1896" transform="translate(-32.726 -309.187)">
    <text id="お困りのお客様" transform="translate(70.726 420.35)" fill="#232323" font-size="10" font-family="HiraginoSans-W6, Hiragino Sans" letter-spacing="0.1em"><tspan x="-38" y="0">お困りのお客様</tspan></text>
    <g id="グループ_1783" data-name="グループ 1783" transform="translate(35.8 322.698)">
      <g id="グループ_1780" data-name="グループ 1780" transform="translate(0 0)">
        <g id="グループ_1779" data-name="グループ 1779" transform="translate(0 21.334)">
          <path id="パス_2658" data-name="パス 2658" d="M-799.038,1180.847l2.235-6.243.54-15.57s-1-2.188-.54-3.67a16.658,16.658,0,0,1,2.591-3.973v-4.98" transform="translate(799.038 -1128.92)" fill="none" stroke="#232323" stroke-width="1"/>
          <path id="パス_2659" data-name="パス 2659" d="M-776.566,1118.527a3.6,3.6,0,0,1-1.245-3.557c.356-2.49,5.277-6.285,6.225-5.988s1.186,1.719,1.186,1.719a7.542,7.542,0,0,1-.237,2.194,3.163,3.163,0,0,0,.534,2.787c.593.83-1.118,1.929-1.118,1.929s-.332-.062-1.038.5a38.51,38.51,0,0,1-4.307,2.1" transform="translate(781.392 -1097.716)" fill="none" stroke="#232323" stroke-width="1"/>
          <path id="パス_2660" data-name="パス 2660" d="M-766.224,1145.127a5,5,0,0,1-.621,2.807,18.566,18.566,0,0,1-3.158,2.321" transform="translate(774.842 -1127.85)" fill="none" stroke="#232323" stroke-width="1"/>
          <path id="パス_2661" data-name="パス 2661" d="M-785.2,1321.77l-13.768,5.186" transform="translate(798.98 -1275.049)" fill="none" stroke="#232323" stroke-width="1"/>
          <path id="パス_2662" data-name="パス 2662" d="M-782.606,1224.845" transform="translate(785.345 -1194.28)" fill="none" stroke="#232323" stroke-width="1"/>
          <path id="パス_2663" data-name="パス 2663" d="M-782.093,1213.945l6.063,9.3s4.723,7.907,7.071,7.557,3.805-3.1,3.805-3.1l3.751-7.826s1.43-1.484,1.376-1.889a4.449,4.449,0,0,1-.162-1.97c.216-.7.945-2.456.945-2.456s-4.021-1.943-4.561-1.889-1.349,3.481-1.349,3.481-1.08,0-1.268.486a2.186,2.186,0,0,0,0,1.161l-1.323,1.187s-.756,1.16-.432,1.889.836,1.862.836,1.862" transform="translate(784.918 -1183.296)" fill="none" stroke="#232323" stroke-width="1"/>
          <path id="パス_2664" data-name="パス 2664" d="M-731.471,1217.66a14.5,14.5,0,0,1,2.213,2.321c.459.81,2.321,4.534,2.537,4.7s.594,0,.594,0" transform="translate(742.733 -1188.293)" fill="none" stroke="#232323" stroke-width="1"/>
          <path id="パス_2665" data-name="パス 2665" d="M-738.021,1161.207h2.346a12.506,12.506,0,0,1,2.387.976c.457.374,2.18,1.723,2.18,1.723l3.052,3.3" transform="translate(748.192 -1141.25)" fill="none" stroke="#232323" stroke-width="1"/>
          <path id="パス_2666" data-name="パス 2666" d="M-728.231,1187.25a13.769,13.769,0,0,1-4.1-.648,42.162,42.162,0,0,1-3.67-2.294" transform="translate(746.511 -1160.501)" fill="none" stroke="#232323" stroke-width="1"/>
          <path id="パス_2667" data-name="パス 2667" d="M-652.214,1188.44a16.848,16.848,0,0,0,1.619-3.114,15.041,15.041,0,0,1,.27-1.64s-.021,1.453.145,1.536.768-1.08.727-1.848a1.235,1.235,0,0,0-.54-1.038h-.6l-1.619-.083" transform="translate(676.688 -1158.789)" fill="none" stroke="#232323" stroke-width="1"/>
          <path id="パス_2668" data-name="パス 2668" d="M-658.565,1177.426s.5-.727.166-.913a10.148,10.148,0,0,0-2.533.187" transform="translate(683.953 -1153.961)" fill="none" stroke="#232323" stroke-width="1"/>
          <path id="パス_2669" data-name="パス 2669" d="M-666.586,1171.9s.851-.882.124-.9-2.1,0-2.1,0a10.911,10.911,0,0,0-1.557,1.64c-.042.27,0,5.231,0,5.231" transform="translate(691.621 -1149.402)" fill="none" stroke="#232323" stroke-width="1"/>
          <path id="パス_2670" data-name="パス 2670" d="M-686.724,1174.8l-1.892-.917-.217.123-.954-.425-.255.624,3.269,1.55" transform="translate(708.211 -1151.558)" fill="none" stroke="#232323" stroke-width="1"/>
          <path id="パス_2671" data-name="パス 2671" d="M-683.422,1176.605l.074-.7" transform="translate(702.694 -1153.5)" fill="none" stroke="#232323" stroke-width="1"/>
          <path id="パス_2672" data-name="パス 2672" d="M-686.591,1182.7l.9-1.118" transform="translate(705.334 -1158.228)" fill="none" stroke="#232323" stroke-width="1"/>
          <path id="パス_2673" data-name="パス 2673" d="M-677.748,1170.553l1.511-1.277" transform="translate(697.966 -1147.973)" fill="none" stroke="#232323" stroke-width="1"/>
          <path id="パス_2674" data-name="パス 2674" d="M-723.112,1078.715a3.051,3.051,0,0,0,.9.393c.479.11,3.193.407,3.353-.175s-.124-1.032.174-1.236.69-.3.683-.683-1.384-.969-1.384-.969,1.145.547,1.581.213.371-1.25.371-1.25,1.241-.1,1.352-.7a9.49,9.49,0,0,0-.907-2.762,7.383,7.383,0,0,1,.551-1.8c.281-.386.947-.245,1.158-.947a3.565,3.565,0,0,0,0-2.351c-.316-.386-1.822-2.871-3.148-3.175s-1.394-.228-1.529-.417a5.5,5.5,0,0,0-3.427-1.646c-1.781-.054-2.575-.509-4.628,0a8.739,8.739,0,0,0-3.6,2.064,7.377,7.377,0,0,0-1.733,3.554,12.283,12.283,0,0,0,.319,3.284l-.319,1.435" transform="translate(744.313 -1057.72)" fill="none" stroke="#232323" stroke-width="1"/>
          <g id="楕円形_232" data-name="楕円形 232" transform="translate(26.241 13.02)" fill="none" stroke="#232323" stroke-width="1">
            <ellipse cx="0.398" cy="0.696" rx="0.398" ry="0.696" stroke="none"/>
            <ellipse cx="0.398" cy="0.696" rx="0.102" ry="0.196" fill="none"/>
          </g>
          <g id="楕円形_233" data-name="楕円形 233" transform="translate(40.955 10.833)" fill="none" stroke="#232323" stroke-width="1">
            <ellipse cx="0.398" cy="0.597" rx="0.398" ry="0.597" stroke="none"/>
            <ellipse cx="0.398" cy="0.597" rx="0.102" ry="0.097" fill="none"/>
          </g>
          <g id="楕円形_234" data-name="楕円形 234" transform="translate(45.926 11.43)" fill="none" stroke="#232323" stroke-width="1">
            <ellipse cx="0.398" cy="0.696" rx="0.398" ry="0.696" stroke="none"/>
            <ellipse cx="0.398" cy="0.696" rx="0.102" ry="0.196" fill="none"/>
          </g>
          <path id="パス_2675" data-name="パス 2675" d="M-650.514,1114.25l-2.076.543" transform="translate(677.524 -1102.62)" fill="none" stroke="#232323" stroke-width="1"/>
          <path id="パス_2676" data-name="パス 2676" d="M-695.929,1098.677l-.145-2.177s-.664-.332-.644-.623a2.184,2.184,0,0,1-.581,1.578,9.954,9.954,0,0,1-2.74.955s-1.868,1.349-1.931,1.163a4.928,4.928,0,0,1,.457-1.765c.208-.332-1.661,2.865-2.72,2.865s-2.263-2.18-2.263-2.18a1.362,1.362,0,0,0-1.572-.254,2.4,2.4,0,0,0-.7,2.434,4.9,4.9,0,0,0,2.526,2.162" transform="translate(723.87 -1086.776)" fill="none" stroke="#232323" stroke-width="1"/>
          <path id="パス_2677" data-name="パス 2677" d="M-723.056,1122.307s.513.891,1.026,1.026a11.84,11.84,0,0,0,1.808.162" transform="translate(735.721 -1108.834)" fill="none" stroke="#232323" stroke-width="1"/>
          <path id="パス_2678" data-name="パス 2678" d="M-725.137,1129.43s.193,1.619-.293,2.186-1.107.972-1.673.675-1.3-2.024-1.3-2.024" transform="translate(740.173 -1114.77)" fill="none" stroke="#232323" stroke-width="1"/>
          <path id="パス_2679" data-name="パス 2679" d="M-731.471,1145.567s.917.162,1.106,0,.513-.351.378-.594" transform="translate(742.733 -1127.722)" fill="none" stroke="#232323" stroke-width="1"/>
          <path id="パス_2680" data-name="パス 2680" d="M-723.056,1149.7a3.2,3.2,0,0,0,1.107-2.3" transform="translate(735.721 -1129.746)" fill="none" stroke="#232323" stroke-width="1"/>
          <path id="パス_2681" data-name="パス 2681" d="M-701.407,1115.97s-.56-.789-.893-.166a1.788,1.788,0,0,0-.025,1.139c.106.478.348.951.5.916.27-.062.664-.27.561-.685s-.664-.664-.768-.581a.889.889,0,0,0-.187.249" transform="translate(718.511 -1103.216)" fill="none" stroke="#232323" stroke-width="1"/>
          <path id="パス_2682" data-name="パス 2682" d="M-646.343,1169.275s1.79.391,2.109,1.257a19.254,19.254,0,0,1,1.368,4.059c.091,1.186,1.14,7.024,1.414,7.981s1.277,1.642,1.095,2.463-.218.707-.218.707a3.023,3.023,0,0,1,1.176,1.339c.211.737,1.123,1.438,1.053,2.35s-.807.175-.807.175l.561.737v.667s-.386.7,0,1.017,1.824.982,1.895,1.4.07.807-.421.772-1.474-1.088-1.474-1.088l-.386-2.1a3.261,3.261,0,0,0-1.824-1.088c-.912-.035-2.316,0-2.316,0s-1.684.561-1.789.947a5.565,5.565,0,0,0,.175,1.579s-.246,1.473,0,1.754a.515.515,0,0,0,.5.21.828.828,0,0,0,.6-.5,10.208,10.208,0,0,0,.27-1.468l-.135-.977.59,1.044s2.094,3.01,2.331,2.838.458-.025.335-.749-.344-.939-.442-1.489-.283-1.877-.283-1.877" transform="translate(671.796 -1147.973)" fill="none" stroke="#232323" stroke-width="1"/>
          <path id="パス_2683" data-name="パス 2683" d="M-609.731,1304.86s.995.934,1.228.418-.381-1.72-.381-1.72a12.938,12.938,0,0,1-.369-1.855" transform="translate(641.287 -1258.326)" fill="none" stroke="#232323" stroke-width="1"/>
          <path id="パス_2684" data-name="パス 2684" d="M-602.044,1314.525s.647.7.758.246a4.26,4.26,0,0,0-.209-1.5" transform="translate(634.881 -1267.967)" fill="none" stroke="#232323" stroke-width="1"/>
          <path id="パス_2685" data-name="パス 2685" d="M-639.227,1286.621s-.386-.982-.281-1.228.7-1.3.7-1.3" transform="translate(666.115 -1243.654)" fill="none" stroke="#232323" stroke-width="1"/>
          <path id="パス_2686" data-name="パス 2686" d="M-674.513,1292.724l-1.7.631-5.3,2.28" transform="translate(701.102 -1250.844)" fill="none" stroke="#232323" stroke-width="1"/>
          <path id="パス_2687" data-name="パス 2687" d="M-649.056,1222.216s.264,1.719.264,2.316-.142,4.073-.142,4.073a8.737,8.737,0,0,1-.447,2.6c-.4.846-1.166,2.523-1.166,2.523l-.415.958" transform="translate(675.645 -1192.089)" fill="none" stroke="#232323" stroke-width="1"/>
          <path id="パス_2688" data-name="パス 2688" d="M-624.937,1069.059s1.961-4.789,2.28-5.291a6.026,6.026,0,0,0,.547-1.323s6.112-2.508,6.8-2.6.684-1.186.684-1.186h.912a7,7,0,0,1-.912-2.737c.046-1.049,0-3.466,0-3.466a8.391,8.391,0,0,1-.377-1.712c0-.54-.459-.162-.459-.162v-2.645a22.609,22.609,0,0,1,1.241-2.213,16.4,16.4,0,0,1,1.97-2.267c.621-.486,2.24-1.781,3.454-1.916a12.888,12.888,0,0,1,2.456,0s1.214,1.3,1.3,1.322.972-.216,1.377,0a7.827,7.827,0,0,1,1.862,1.727,30.213,30.213,0,0,1,1.97,4.156c.081.486.189,1.349.189,1.349l-.675-1.107v2.429s-1.349,2.969-1.646,3.4-.89,1.565-1.457,1.754-.513-.162-.513-.162a13.143,13.143,0,0,1-.864,1.916,10.19,10.19,0,0,1-2.375,1.97,11.066,11.066,0,0,1-2.888,1.241,3.384,3.384,0,0,1-2-.567c-.216-.27-1.652-2.314-1.652-2.314" transform="translate(653.958 -1041.482)" fill="none" stroke="#232323" stroke-width="1"/>
          <path id="パス_2689" data-name="パス 2689" d="M-506.749,1097.373s-.351-1.088-.6-1.719-1.123,1.859-1.123,1.859a12.5,12.5,0,0,0-.316-1.859.646.646,0,0,1-.281.491l-1.544-3.579" transform="translate(558.686 -1084.051)" fill="none" stroke="#232323" stroke-width="1"/>
          <path id="パス_2690" data-name="パス 2690" d="M-553.052,1075.9v.6l-4.772-4.6a29.709,29.709,0,0,0,.316,3.3c.14.175-2.14-1.544-2.421-2.526a7.64,7.64,0,0,1,0-2.631,4.663,4.663,0,0,1-.877,1.649c-.667.807-1.789,4.807-1.789,4.807" transform="translate(602.008 -1065.284)" fill="none" stroke="#232323" stroke-width="1"/>
          <path id="パス_2691" data-name="パス 2691" d="M-552.983,1100.954c-.474-.593-.857-.375-.857-.375l-1.322.675" transform="translate(595.815 -1090.695)" fill="none" stroke="#232323" stroke-width="1"/>
          <path id="パス_2692" data-name="パス 2692" d="M-555.163,1100.954c.474-.593.857-.375.857-.375l1.322.675" transform="translate(600.482 -1090.265)" fill="none" stroke="#232323" stroke-width="1"/>
          <path id="パス_2693" data-name="パス 2693" d="M-652.992,1151.737a1.4,1.4,0,0,1,.617-.263" transform="translate(677.336 -1133.139)" fill="none" stroke="#232323" stroke-width="1"/>
          <path id="パス_2694" data-name="パス 2694" d="M-542.3,1111.578a16.867,16.867,0,0,0-1.044,2.813c.061.344.823.688.823.688" transform="translate(585.971 -1099.894)" fill="none" stroke="#232323" stroke-width="1"/>
          <path id="パス_2695" data-name="パス 2695" d="M-549.82,1142.3a1.8,1.8,0,0,1,1.106-.233c.565.1,1.941.147,1.941.147s1.2.27,1.241.454" transform="translate(591.362 -1125.288)" fill="none" stroke="#232323" stroke-width="1"/>
          <path id="パス_2696" data-name="パス 2696" d="M-510.784,1143.912l.845.352s1-.062,1.142.166.519,1.121.519,1.121a57.483,57.483,0,0,1,5.439,3.072,38.2,38.2,0,0,1,3.423,5.29c.281.842,2.526,7.3,2.526,7.3s-1.438.176-2.526.176-3.789-.176-3.789-.176l-.842-.281-2.105,5.122s-1.3,4.035-1.4,4.28-1.859,2.912-1.859,2.912l-2.456,2.315h4.315s5.438-.386,6.385-.631,5.122-.842,5.122-.842l2.21-.246h1.859l.561-.842,2.807,1.3a2.048,2.048,0,0,0,.737-.456c.175-.246,1.174-.339,1.174-.339l.312-.624s-.066-.737.132-.935.794-.633.794-.633a3.468,3.468,0,0,1,0-1.219,8.515,8.515,0,0,1,.728-.728,5.686,5.686,0,0,1-.5-1.125.9.9,0,0,1,.265-.51l.472-.463s-.1-1.021-.4-1.153a2.849,2.849,0,0,0-1.081,0l2.593-5.182a11.607,11.607,0,0,1-2.079.456c-1.148.14-11.428-.176-11.428-.176" transform="translate(559.739 -1126.838)" fill="none" stroke="#232323" stroke-width="1"/>
          <path id="パス_2697" data-name="パス 2697" d="M-367.38,1277.243h-1.634s-.651.467-.479.8,1.081.614,1.081.614l2.2.049" transform="translate(441.118 -1237.944)" fill="none" stroke="#232323" stroke-width="1"/>
          <path id="パス_2698" data-name="パス 2698" d="M-360.345,1286.013l-.307.626" transform="translate(433.727 -1245.252)" fill="none" stroke="#232323" stroke-width="1"/>
          <path id="パス_2699" data-name="パス 2699" d="M-384.412,1289.919a6.379,6.379,0,0,0-.9-.295h-2.223s-2.236.16-2.3.221-.405.639-.086.9a8.526,8.526,0,0,0,2.432.2,7.664,7.664,0,0,1,2.174.344c.381.27.332.307.332.307" transform="translate(458.224 -1248.261)" fill="none" stroke="#232323" stroke-width="1"/>
          <path id="パス_2700" data-name="パス 2700" d="M-393.672,1295.5s-.431-.037-.591.135a.7.7,0,0,0,0,.823,6.763,6.763,0,0,0,1.142.467l2.015.307a9.5,9.5,0,0,1,1.965.663,1.206,1.206,0,0,1,.16.258" transform="translate(461.847 -1253.157)" fill="none" stroke="#232323" stroke-width="1"/>
          <path id="パス_2701" data-name="パス 2701" d="M-394.205,1302.592s-.467-.025-.43.356,1.155.811,1.155.811a14.339,14.339,0,0,1,2.2.872c.27.246,1.2.565,1.3.8a2.356,2.356,0,0,1,.135.43" transform="translate(462.047 -1259.067)" fill="none" stroke="#232323" stroke-width="1"/>
          <path id="パス_2702" data-name="パス 2702" d="M-390.008,1309.116s-.287.623-.16.926a2.449,2.449,0,0,1,.16.623" transform="translate(458.35 -1264.504)" fill="none" stroke="#232323" stroke-width="1"/>
          <path id="パス_2703" data-name="パス 2703" d="M-502.18,1164.209a12.058,12.058,0,0,1-1.338,1.814" transform="translate(552.779 -1143.752)" fill="none" stroke="#232323" stroke-width="1"/>
          <path id="パス_2704" data-name="パス 2704" d="M-536.267,1146.4a6.122,6.122,0,0,1-.088,1.972c-.228.519-1.08,1.91-1.08,1.91a20.75,20.75,0,0,1-2.8,2.263,2.181,2.181,0,0,0-1.308,1.453c-.125.54-.27.54-.477,1.412a4.635,4.635,0,0,1-.851,1.64s-.249.083-.477.913a12.145,12.145,0,0,0-.27,2.221" transform="translate(586.196 -1128.91)" fill="none" stroke="#232323" stroke-width="1"/>
          <path id="パス_2705" data-name="パス 2705" d="M-561.852,1158.314a10.292,10.292,0,0,0-.519-2.014c-.208-.249.021-1.744-.311-2.387a14.235,14.235,0,0,0-2.293-2.213,7.226,7.226,0,0,1-.894-1.581,2.33,2.33,0,0,1,.415-1.868c.351-.351,1.2-1.23,1.2-1.23" transform="translate(604.78 -1129.429)" fill="none" stroke="#232323" stroke-width="1"/>
          <path id="パス_2706" data-name="パス 2706" d="M-553.224,1151.427s-.032,1.07,0,1.262a14.448,14.448,0,0,0,.431,1.74" transform="translate(594.21 -1133.1)" fill="none" stroke="#232323" stroke-width="1"/>
          <path id="パス_2707" data-name="パス 2707" d="M-554.4,1178.46a4.361,4.361,0,0,0,1.932.846,23.116,23.116,0,0,0,2.411-.08l1.98-.974" transform="translate(595.177 -1155.454)" fill="none" stroke="#232323" stroke-width="1"/>
          <path id="パス_2708" data-name="パス 2708" d="M-573.013,1168.069a5.806,5.806,0,0,0,.27,1.121,11.892,11.892,0,0,0,1.162,1.308" transform="translate(610.689 -1146.968)" fill="none" stroke="#232323" stroke-width="1"/>
          <path id="パス_2709" data-name="パス 2709" d="M-539.55,1218.543a1.139,1.139,0,0,0,.151.453l.339.276" transform="translate(582.805 -1189.029)" fill="none" stroke="#232323" stroke-width="1"/>
          <path id="パス_2710" data-name="パス 2710" d="M-540.774,1230.61s-.05.427.2.516a1.356,1.356,0,0,0,.4.088" transform="translate(583.828 -1199.084)" fill="none" stroke="#232323" stroke-width="1"/>
          <path id="パス_2711" data-name="パス 2711" d="M-603.173,1195.706l1.029,4.521.967,3.867.746,3.231" transform="translate(635.822 -1169.998)" fill="none" stroke="#232323" stroke-width="1"/>
          <path id="パス_2712" data-name="パス 2712" d="M-605.042,1232.42a3.924,3.924,0,0,0,.892,1.482c.489.34,1.36.85,1.36.85" transform="translate(637.379 -1200.593)" fill="none" stroke="#232323" stroke-width="1"/>
          <path id="パス_2713" data-name="パス 2713" d="M-610.523,1262.9a1.944,1.944,0,0,1,1.144-.5c.523.049,1.749-.033,1.945.229s.474.458.262.572a15.409,15.409,0,0,1-1.716.376" transform="translate(641.946 -1225.576)" fill="none" stroke="#232323" stroke-width="1"/>
          <path id="パス_2714" data-name="パス 2714" d="M-589.965,1243.144l3.584-.191a1.953,1.953,0,0,0,1.509-.765c.446-.744,2.188-2.953,2.188-2.953s.956-.935,1.615-.871,3.336.552,3.336.552a15.67,15.67,0,0,1,2.273,2.4c.042.382-1.211.085-1.211.085l-1.445-1.232a13,13,0,0,1-2.167-.935" transform="translate(624.816 -1205.542)" fill="none" stroke="#232323" stroke-width="1"/>
          <path id="パス_2715" data-name="パス 2715" d="M-532.581,1250.063a11.426,11.426,0,0,1,1.02,2.146c.064.51.042,1.615-.234,1.593s-.637-.446-.637-.446-.17-2.061-.531-2.337a21.183,21.183,0,0,0-2.613-1.041" transform="translate(579.494 -1215.224)" fill="none" stroke="#232323" stroke-width="1"/>
          <path id="パス_2716" data-name="パス 2716" d="M-534.515,1260.259s-.106.914-.361.914a.845.845,0,0,1-.744-.68,8.33,8.33,0,0,0-.234-1.551c-.085-.042-2.273-.68-2.273-.68" transform="translate(581.618 -1222.127)" fill="none" stroke="#232323" stroke-width="1"/>
          <path id="パス_2717" data-name="パス 2717" d="M-537.8,1264.541s.208.871-.387.68-.595-1.615-.595-1.615a4.505,4.505,0,0,0-1.19-.722,3.348,3.348,0,0,0-.7,0" transform="translate(583.742 -1225.963)" fill="none" stroke="#232323" stroke-width="1"/>
          <path id="パス_2718" data-name="パス 2718" d="M-586.707,1269.2s-.637-.616-1.1-.531-1.169.956-1.169.956l-1.423,1.275s-1.551-.319-1.848-.085-4.313,2.1-4.313,2.1a3.408,3.408,0,0,1-1.147-.17,1.43,1.43,0,0,1-.446-.51" transform="translate(631.643 -1230.796)" fill="none" stroke="#232323" stroke-width="1"/>
          <path id="パス_2719" data-name="パス 2719" d="M-582.451,1291.672l16.337,1.04" transform="translate(618.554 -1249.968)" fill="none" stroke="#232323" stroke-width="1"/>
          <path id="パス_2720" data-name="パス 2720" d="M-650.23,1307.929l15.153.934-6.894,4.955-2.442-.431-5.458-.718-11.418-.215,6.643-3.339" transform="translate(684.25 -1263.515)" fill="none" stroke="#232323" stroke-width="1"/>
          <path id="パス_2721" data-name="パス 2721" d="M-697.111,1326.479a35.272,35.272,0,0,0-3.754,2.406c-.9.79-3.16,3.231-3.16,3.231a12.876,12.876,0,0,0-3.95-1.041c-1.688-.036-15.009-1.508-15.619-1.365s.5-1.185.5-1.185l6.319-3.3a44.288,44.288,0,0,1,5.027-1.58c.467.072,1.8.179,1.8.179" transform="translate(736.321 -1276.607)" fill="none" stroke="#232323" stroke-width="1"/>
          <path id="パス_2722" data-name="パス 2722" d="M-646.343,1318.728l1.531-1.07" transform="translate(671.796 -1271.622)" fill="none" stroke="#232323" stroke-width="1"/>
          <path id="パス_2723" data-name="パス 2723" d="M-628.622,1308.715l.467-.489" transform="translate(657.028 -1263.763)" fill="none" stroke="#232323" stroke-width="1"/>
          <path id="パス_2724" data-name="パス 2724" d="M-628.118,1336l-2.4,2.513a11.821,11.821,0,0,0-2.37-.682c-.718-.036-3.2,0-3.2,0l2.585-2.118" transform="translate(663.249 -1286.67)" fill="none" stroke="#232323" stroke-width="1"/>
          <path id="パス_2725" data-name="パス 2725" d="M-567.855,1354.557l6.206,1.657-6.96,3.922-5.193-2.734Z" transform="translate(611.347 -1302.37)" fill="none" stroke="#232323" stroke-width="1"/>
        </g>
        <g id="グループ_1778" data-name="グループ 1778" transform="translate(9.339 0)">
          <path id="前面オブジェクトで型抜き_1" data-name="前面オブジェクトで型抜き 1" d="M9.9,19.95h0V17.586H9.814a12.112,12.112,0,0,1-4.478-.838,11.051,11.051,0,0,1-1.908-.976,10.037,10.037,0,0,1-1.611-1.284,8.236,8.236,0,0,0,.546-2.946A8.681,8.681,0,0,0,0,5.671,8.512,8.512,0,0,1,1.537,3.386,10.005,10.005,0,0,1,3.79,1.592,11.873,11.873,0,0,1,9.814,0,12.2,12.2,0,0,1,13.9.691a10.765,10.765,0,0,1,3.336,1.884A8.858,8.858,0,0,1,19.485,5.37a7.5,7.5,0,0,1,.225,6.36,8.47,8.47,0,0,1-1.663,2.517,10.1,10.1,0,0,1-2.519,1.923,11.545,11.545,0,0,1-3.169,1.156L9.9,19.95Z" transform="translate(26.154)" fill="none" stroke="#232323" stroke-width="1"/>
          <path id="合体_4" data-name="合体 4" d="M12.925,19.331C5.737,19.123,0,14.877,0,9.67,0,4.329,6.034,0,13.478,0S26.956,4.329,26.956,9.67c0,4.885-5.049,8.924-11.607,9.577v2.469Z" transform="translate(0 1.862)" fill="none" stroke="#232323" stroke-width="1"/>
        </g>
      </g>
      <g id="グループ_1781" data-name="グループ 1781" transform="translate(14.614 11.096)">
        <g id="楕円形_237" data-name="楕円形 237" transform="translate(0 0)" fill="#fff" stroke="#232323" stroke-width="1">
          <circle cx="0.966" cy="0.966" r="0.966" stroke="none"/>
          <circle cx="0.966" cy="0.966" r="0.466" fill="none"/>
        </g>
        <g id="楕円形_238" data-name="楕円形 238" transform="translate(5.022 0)" fill="#fff" stroke="#232323" stroke-width="1">
          <circle cx="0.966" cy="0.966" r="0.966" stroke="none"/>
          <circle cx="0.966" cy="0.966" r="0.466" fill="none"/>
        </g>
        <g id="楕円形_239" data-name="楕円形 239" transform="translate(9.658 0)" fill="#fff" stroke="#232323" stroke-width="1">
          <circle cx="0.966" cy="0.966" r="0.966" stroke="none"/>
          <circle cx="0.966" cy="0.966" r="0.466" fill="none"/>
        </g>
        <g id="楕円形_240" data-name="楕円形 240" transform="translate(14.68 0)" fill="#fff" stroke="#232323" stroke-width="1">
          <circle cx="0.966" cy="0.966" r="0.966" stroke="none"/>
          <circle cx="0.966" cy="0.966" r="0.466" fill="none"/>
        </g>
      </g>
      <g id="グループ_1782" data-name="グループ 1782" transform="translate(41.335 8.823)">
        <g id="楕円形_237-2" data-name="楕円形 237" transform="translate(0 0)" fill="#fff" stroke="#232323" stroke-width="1">
          <ellipse cx="0.773" cy="0.75" rx="0.773" ry="0.75" stroke="none"/>
          <ellipse cx="0.773" cy="0.75" rx="0.273" ry="0.25" fill="none"/>
        </g>
        <g id="楕円形_238-2" data-name="楕円形 238" transform="translate(4.249 0)" fill="#fff" stroke="#232323" stroke-width="1">
          <ellipse cx="0.773" cy="0.75" rx="0.773" ry="0.75" stroke="none"/>
          <ellipse cx="0.773" cy="0.75" rx="0.273" ry="0.25" fill="none"/>
        </g>
        <g id="楕円形_239-2" data-name="楕円形 239" transform="translate(8.499 0)" fill="#fff" stroke="#232323" stroke-width="1">
          <ellipse cx="0.773" cy="0.75" rx="0.773" ry="0.75" stroke="none"/>
          <ellipse cx="0.773" cy="0.75" rx="0.273" ry="0.25" fill="none"/>
        </g>
      </g>
    </g>
    <g id="グループ_1871" data-name="グループ 1871" transform="translate(230.211 327.154)">
      <g id="グループ_1777" data-name="グループ 1777" transform="translate(0 0)">
        <g id="グループ_1776" data-name="グループ 1776" transform="translate(0)">
          <g id="グループ_1763" data-name="グループ 1763" transform="translate(1.636 4.642)">
            <g id="グループ_1762" data-name="グループ 1762" transform="translate(0 0)">
              <path id="パス_2632" data-name="パス 2632" d="M154.88,2559.528l-9.425-7.773a1.173,1.173,0,0,0-1.5,0l-9.429,7.773a1.184,1.184,0,0,0-.429.911v11.73a1.18,1.18,0,0,0,1.18,1.182H154.13a1.179,1.179,0,0,0,1.179-1.182v-11.73a1.179,1.179,0,0,0-.429-.911Zm-8.929,11.462h-2.5v-6.533h2.5Zm7,0h-4.636v-7.715a1.18,1.18,0,0,0-1.182-1.179h-4.856a1.177,1.177,0,0,0-1.179,1.179v7.715h-4.641V2561l8.249-6.8,8.245,6.8Z" transform="translate(-130.81 -2546.445)" fill="none" stroke="#000" stroke-width="0.5"/>
              <path id="パス_2633" data-name="パス 2633" d="M159.6,2559.377c-2.629-2.106-5.107-4.12-7.8-6.336-.805-.723-1.65-1.407-2.47-2.07-.8-.648-1.627-1.318-2.393-2.007a1.179,1.179,0,0,0-1.579,0c-.763.689-1.589,1.359-2.391,2.007-.82.662-1.664,1.347-2.466,2.07-2.693,2.216-5.173,4.23-7.8,6.336a1.18,1.18,0,1,0,1.477,1.841c2.643-2.116,5.136-4.143,7.845-6.372l.041-.036c.763-.685,1.589-1.355,2.389-2.005.561-.452,1.136-.916,1.7-1.395.563.479,1.136.943,1.7,1.395.8.65,1.629,1.32,2.393,2.005a.237.237,0,0,0,.039.036c2.709,2.229,5.2,4.256,7.845,6.372a1.18,1.18,0,1,0,1.475-1.841Z" transform="translate(-132.256 -2548.661)" fill="none" stroke="#000" stroke-width="0.5"/>
            </g>
          </g>
          <g id="グループ_1764" data-name="グループ 1764" transform="translate(39.195 43.189)">
            <path id="パス_2634" data-name="パス 2634" d="M170.6,2422.383a6.924,6.924,0,0,0-7.031,6.8,8.087,8.087,0,0,0,1.714,4.944,2.889,2.889,0,0,1,.7,1.44,2.937,2.937,0,0,0,1.312,2.333c.021.527.1,1.8.1,1.8v0c.013.363.2,1.107,1.454,1.524a2.126,2.126,0,0,0,.573.563.888.888,0,0,0,.5.151h1.356a.9.9,0,0,0,.5-.151,2.229,2.229,0,0,0,.575-.563c1.26-.417,1.442-1.174,1.452-1.527,0,0,.075-1.272.1-1.8a2.922,2.922,0,0,0,1.314-2.333,2.929,2.929,0,0,1,.705-1.446,8.062,8.062,0,0,0,1.707-4.937,6.922,6.922,0,0,0-7.029-6.8Zm3.85,10.742a4.28,4.28,0,0,0-1.011,2.439,1.316,1.316,0,0,1-.665.956h-4.346a1.311,1.311,0,0,1-.665-.956,4.3,4.3,0,0,0-1.017-2.448,6.385,6.385,0,0,1-1.4-3.935,5.259,5.259,0,0,1,10.508,0,6.383,6.383,0,0,1-1.406,3.944Z" transform="translate(-160.15 -2418.825)" fill="none" stroke="#000" stroke-width="0.5"/>
            <path id="パス_2635" data-name="パス 2635" d="M167.166,2422.9a.447.447,0,0,0,.446-.446v-1.331a.446.446,0,1,0-.891,0v1.331a.447.447,0,0,0,.446.446Z" transform="translate(-156.712 -2420.682)" fill="none" stroke="#000" stroke-width="0.5"/>
            <path id="パス_2636" data-name="パス 2636" d="M165.053,2423.144a.447.447,0,0,0,.609.165.445.445,0,0,0,.163-.609l-.668-1.155a.444.444,0,1,0-.768.444Z" transform="translate(-159.324 -2419.981)" fill="none" stroke="#000" stroke-width="0.5"/>
            <path id="パス_2637" data-name="パス 2637" d="M164.4,2423.8l-1.155-.665a.442.442,0,0,0-.607.163.448.448,0,0,0,.161.609l1.157.666a.445.445,0,0,0,.444-.772Z" transform="translate(-161.236 -2418.069)" fill="none" stroke="#000" stroke-width="0.5"/>
            <path id="パス_2638" data-name="パス 2638" d="M164.159,2425.909a.44.44,0,0,0-.444-.444h-1.333a.445.445,0,1,0,0,.89h1.333a.443.443,0,0,0,.444-.446Z" transform="translate(-161.937 -2415.455)" fill="none" stroke="#000" stroke-width="0.5"/>
            <path id="パス_2639" data-name="パス 2639" d="M163.957,2427.6l-1.157.672a.433.433,0,0,0-.161.6.441.441,0,0,0,.383.223.423.423,0,0,0,.224-.061l1.155-.663a.447.447,0,0,0,.161-.607.439.439,0,0,0-.6-.166Z" transform="translate(-161.237 -2413.192)" fill="none" stroke="#000" stroke-width="0.5"/>
            <path id="パス_2640" data-name="パス 2640" d="M172.134,2428.268l-1.155-.672a.444.444,0,0,0-.609.166.449.449,0,0,0,.163.607l1.157.663a.413.413,0,0,0,.22.061.446.446,0,0,0,.385-.22.44.44,0,0,0-.161-.6Z" transform="translate(-152.789 -2413.192)" fill="none" stroke="#000" stroke-width="0.5"/>
            <path id="パス_2641" data-name="パス 2641" d="M172.644,2425.466h-1.331a.445.445,0,1,0,0,.89h1.331a.445.445,0,1,0,0-.89Z" transform="translate(-152.181 -2415.455)" fill="none" stroke="#000" stroke-width="0.5"/>
            <path id="パス_2642" data-name="パス 2642" d="M170.757,2424.632a.452.452,0,0,0,.222-.061l1.155-.666a.447.447,0,0,0,.161-.609.439.439,0,0,0-.6-.163l-1.157.665a.447.447,0,0,0-.163.607.455.455,0,0,0,.387.227Z" transform="translate(-152.789 -2418.069)" fill="none" stroke="#000" stroke-width="0.5"/>
            <path id="パス_2643" data-name="パス 2643" d="M169.017,2423.309a.489.489,0,0,0,.22.057.445.445,0,0,0,.387-.222l.663-1.155a.443.443,0,1,0-.766-.444l-.667,1.155a.447.447,0,0,0,.163.609Z" transform="translate(-154.447 -2419.981)" fill="none" stroke="#000" stroke-width="0.5"/>
          </g>
          <g id="グループ_1769" data-name="グループ 1769" transform="translate(41.957 6.8)">
            <g id="グループ_1765" data-name="グループ 1765" transform="translate(0)">
              <path id="パス_2644" data-name="パス 2644" d="M710.3,739.468c0,3.835-3.443,6.944-7.691,6.944s-7.691-3.109-7.691-6.944,7.691-16.855,7.691-16.855S710.3,735.633,710.3,739.468Z" transform="translate(-694.914 -722.613)" fill="none" stroke="#000" stroke-width="0.5"/>
              <path id="パス_2645" data-name="パス 2645" d="M732.518,824.276c0,2.756-2.569,4.99-5.737,4.99s-5.737-2.234-5.737-4.99,5.737-12.112,5.737-12.112S732.518,821.52,732.518,824.276Z" transform="translate(-719.09 -805.467)" fill="#fff" stroke="#707070" stroke-width="0.5"/>
              <path id="パス_2646" data-name="パス 2646" d="M749.062,887.415c0,1.952-1.917,3.535-4.282,3.535s-4.282-1.583-4.282-3.535,4.282-8.58,4.282-8.58S749.062,885.463,749.062,887.415Z" transform="translate(-737.089 -867.152)" fill="none" stroke="#000" stroke-width="0.5"/>
            </g>
          </g>
          <line id="線_40" data-name="線 40" x2="66.371" transform="translate(0 36.457)" fill="none" stroke="#232323" stroke-width="0.5"/>
          <line id="線_41" data-name="線 41" y2="71.98" transform="translate(33.186)" fill="none" stroke="#232323" stroke-width="0.5"/>
        </g>
      </g>
      <g id="グループ_1849" data-name="グループ 1849" transform="translate(6.658 41.031)">
        <path id="パス_2751" data-name="パス 2751" d="M678.285,1410.683c-.886-1.224-1.758-2.186-1.764-2.193a.427.427,0,0,0-.652.024c0,.008-.776.986-1.553,2.235a8.985,8.985,0,0,0-1.588,3.973c0,.009,0,.033,0,.071a2.808,2.808,0,0,0,1.33,2.392,4.36,4.36,0,0,0,2.266.617c.045,0,.076,0,.1,0a4.745,4.745,0,0,0,2.343-.693,2.806,2.806,0,0,0,1.375-2.431v-.058A8.49,8.49,0,0,0,678.285,1410.683Zm1,3.993a1.942,1.942,0,0,1-.983,1.71,3.87,3.87,0,0,1-1.889.558h-.09a3.475,3.475,0,0,1-1.807-.482,1.942,1.942,0,0,1-.935-1.7l-.427.012.426-.038v-.016a8.409,8.409,0,0,1,1.459-3.521c.45-.723.9-1.356,1.189-1.746.324.383.841,1.012,1.362,1.73a8.029,8.029,0,0,1,1.695,3.43A.511.511,0,0,0,679.287,1414.675Zm9.449-16.913a.426.426,0,0,0-.437-.417l-3.627.094a3.949,3.949,0,0,0-2.122-.874h-.013v-2.021h.712c.007.015.006.031.013.047h0a2.053,2.053,0,0,0,1.837,1.143h.028a2.064,2.064,0,0,0,2.03-2.062v-.026a2.068,2.068,0,0,0-2.058-2.034h-.012a.456.456,0,0,0-.062,0,2.045,2.045,0,0,0-1.964,1.944.444.444,0,0,0,.017.127h-1.9a.518.518,0,0,0,.006-.077h0a2.048,2.048,0,0,0-2.025-1.843h-.055a2.063,2.063,0,0,0-2.009,2.059.531.531,0,0,0,0,.077,2.053,2.053,0,0,0,2.056,1.984h.034a2.055,2.055,0,0,0,1.848-1.238.48.48,0,0,0,.023-.106h.62v2.038a.274.274,0,0,0-.044,0h0a3.949,3.949,0,0,0-2.151.994l-2.977.077a.486.486,0,0,0-.109.018,3.653,3.653,0,0,0-3.351,3.469.444.444,0,0,0-.017.132l.083,3.195-.664.02a.425.425,0,0,0-.416.436l.067,2.621a.422.422,0,0,0,.132.3.427.427,0,0,0,.294.117h.012l7.334-.192a.426.426,0,0,0,.415-.438l-.069-2.619a.424.424,0,0,0-.437-.416l-.666.018-.018-.72.6-.015a3.938,3.938,0,0,0,2.456.867h.082a3.934,3.934,0,0,0,2.523-1l3.688-.1a.419.419,0,0,0,.3-.131.429.429,0,0,0,.117-.306Zm-4.821-4.148a1.19,1.19,0,0,1,1.151-1.144h.033a1.207,1.207,0,0,1,1.205,1.176.215.215,0,0,0,0,.028,1.209,1.209,0,0,1-1.176,1.209H685.1a1.2,1.2,0,0,1-1.072-.673.432.432,0,0,0-.223-.2.465.465,0,0,0-.038-.1A.431.431,0,0,0,683.914,1393.615Zm-3.491.505a.413.413,0,0,0-.165.188,1.2,1.2,0,0,1-1.065.729l-.012,0-.023,0a1.208,1.208,0,0,1-1.2-1.175v-.033a1.2,1.2,0,0,1,1.176-1.2l.034,0h0a1.192,1.192,0,0,1,1.175,1.08.434.434,0,0,0,.119.246.4.4,0,0,0-.033.168Zm4.16,8.476a.425.425,0,0,0-.285.12,3.078,3.078,0,0,1-2.061.872h-.077a3.1,3.1,0,0,1-2.029-.766.443.443,0,0,0-.289-.1l-1.19.032a.425.425,0,0,0-.415.438l.042,1.571a.419.419,0,0,0,.132.3.433.433,0,0,0,.3.118l.664-.019.047,1.766-6.481.169-.044-1.767.664-.015a.417.417,0,0,0,.3-.135.413.413,0,0,0,.119-.3l-.092-3.53a.491.491,0,0,0,.01-.087,2.8,2.8,0,0,1,2.647-2.74.578.578,0,0,0,.08-.011l3.049-.079a.421.421,0,0,0,.29-.125,3.072,3.072,0,0,1,1.783-.872.423.423,0,0,0,.229-.105.327.327,0,0,0,.261,0,.418.418,0,0,0,.226.094,3.066,3.066,0,0,1,1.766.774.436.436,0,0,0,.3.109l3.365-.088.113,4.3Z" transform="translate(-672.037 -1391.615)" fill="none" stroke="#000" stroke-width="0.5"/>
      </g>
    </g>
    <g id="グループ_1895" data-name="グループ 1895" transform="translate(130.8 307.188)">
      <g id="グループ_1717" data-name="グループ 1717" transform="translate(7.938)">
        <text id="情報_相談" data-name="情報・相談" transform="translate(3.626 11)" fill="#59944c" font-size="10" font-family="HiraginoSans-W6, Hiragino Sans" letter-spacing="0.05em"><tspan x="0" y="0">情報・相談</tspan></text>
        <g id="グループ_1716" data-name="グループ 1716" transform="translate(0 14)">
          <path id="パス_2608" data-name="パス 2608" d="M11.2,17.595C13.877,17.982,32.6,19.93,41.837.164A.282.282,0,0,1,42.2.022l8.289,3.523a.282.282,0,0,1,.142.387c-1.262,2.5-11.82,21.435-40.235,16.053a.283.283,0,0,0-.331.226l-.659,3.664a.283.283,0,0,1-.444.179L.117,17.664a.283.283,0,0,1,.088-.5L11.49,13.939a.283.283,0,0,1,.349.352l-.866,2.944A.282.282,0,0,0,11.2,17.595Z" transform="translate(7.049 57.265) rotate(17)" fill="#59944c"/>
          <path id="パス_2609" data-name="パス 2609" d="M11.2,17.595C13.877,17.982,32.6,19.93,41.837.164A.282.282,0,0,1,42.2.022l8.289,3.523a.282.282,0,0,1,.142.387c-1.262,2.5-11.82,21.435-40.235,16.053a.283.283,0,0,0-.331.226l-.659,3.664a.283.283,0,0,1-.444.179L.117,17.664a.283.283,0,0,1,.088-.5L11.49,13.939a.283.283,0,0,1,.349.352l-.866,2.944A.282.282,0,0,0,11.2,17.595Z" transform="translate(51.666 37.868) rotate(-163)" fill="#59944c"/>
        </g>
      </g>
      <text id="紹介_手配" data-name="紹介・手配" transform="translate(13.795 116.702)" fill="#59944c" font-size="10" font-family="HiraginoSans-W6, Hiragino Sans" letter-spacing="0.05em"><tspan x="0" y="0">紹介・手配</tspan></text>
      <g id="グループ_1893" data-name="グループ 1893" transform="translate(0 47.734)">
        <g id="ロゴタイプ_英_" data-name="ロゴタイプ（英）" transform="translate(28.795 8.266)">
          <path id="パス_2789" data-name="パス 2789" d="M255.076,183.126v-2.2a1.854,1.854,0,0,0-1.857-1.857h-2.786a.592.592,0,0,1-.414-.157.5.5,0,0,1-.171-.386v-.557a.526.526,0,0,1,.171-.393.577.577,0,0,1,.414-.164h3.443a.952.952,0,0,0,.707-.3.987.987,0,0,0,.293-.715.941.941,0,0,0-.293-.7.976.976,0,0,0-.707-.286h-4.286a1.853,1.853,0,0,0-1.857,1.843V179.1a1.853,1.853,0,0,0,1.857,1.857h2.786a.593.593,0,0,1,.414.157.5.5,0,0,1,.171.386v.929a.525.525,0,0,1-.171.393.577.577,0,0,1-.414.164h-3.7a1,1,0,1,0,0,2h4.543a1.854,1.854,0,0,0,1.857-1.858Z" transform="translate(-247.675 -175.254)" fill="#4ca223"/>
          <path id="パス_2790" data-name="パス 2790" d="M327.378,183.788a.8.8,0,0,0-.028-.3l-1.843-7.344a1.56,1.56,0,0,0-.521-.829,1.372,1.372,0,0,0-.907-.329h-1.914a1.4,1.4,0,0,0-.915.329,1.464,1.464,0,0,0-.514.829l-1.857,7.344a.778.778,0,0,0-.029.3.975.975,0,0,0,.35.693,1.023,1.023,0,0,0,.764.25.953.953,0,0,0,.986-.771l.586-2.429a.346.346,0,0,1,.371-.286h2.415a.346.346,0,0,1,.371.286l.586,2.429a.967.967,0,0,0,.986.771,1.048,1.048,0,0,0,.772-.25A.92.92,0,0,0,327.378,183.788Zm-3.315-4.815a.215.215,0,0,1-.243.243h-1.4a.214.214,0,0,1-.243-.243v-.057l.429-1.715a.214.214,0,0,1,.228-.185h.572a.215.215,0,0,1,.229.185l.414,1.715A.133.133,0,0,1,324.063,178.974Z" transform="translate(-309.259 -174.887)" fill="#4ca223"/>
          <path id="パス_2791" data-name="パス 2791" d="M405.734,179.169v-1.3a2.463,2.463,0,0,0-2.471-2.458h-3.715a1.1,1.1,0,0,0-.779.3.96.96,0,0,0-.321.729v7.687a.942.942,0,0,0,.307.707,1.108,1.108,0,0,0,1.5,0,.941.941,0,0,0,.307-.707V181.9q0-.272.3-.272h2.4a2.463,2.463,0,0,0,2.471-2.458Zm-2.114-.486a.875.875,0,0,1-.286.658.962.962,0,0,1-.686.271h-1.786q-.3,0-.3-.286V177.7q0-.286.3-.286h1.786a.96.96,0,0,1,.686.272.873.873,0,0,1,.286.657Z" transform="translate(-378.14 -175.254)" fill="#4ca223"/>
          <path id="パス_2792" data-name="パス 2792" d="M475.869,182.244v-4.5a2.537,2.537,0,0,0-2.543-2.544h-2.015a2.537,2.537,0,0,0-2.543,2.544v4.5a2.537,2.537,0,0,0,2.543,2.543h2.015a2.537,2.537,0,0,0,2.543-2.543Zm-2.115-.2a.707.707,0,0,1-.221.529.761.761,0,0,1-.55.214h-1.328a.767.767,0,0,1-.543-.214.7.7,0,0,1-.229-.529v-4.1a.7.7,0,0,1,.229-.522.753.753,0,0,1,.543-.222h1.328a.747.747,0,0,1,.55.222.715.715,0,0,1,.221.522Z" transform="translate(-438.988 -175.071)" fill="#4ca223"/>
          <path id="パス_2793" data-name="パス 2793" d="M544.439,182.96a.987.987,0,0,0-.293-.714.953.953,0,0,0-.707-.3h-3.186a.379.379,0,0,1-.429-.429v-6.272a.941.941,0,0,0-.307-.707,1.106,1.106,0,0,0-1.5,0,.941.941,0,0,0-.308.707v7a1.709,1.709,0,0,0,1.715,1.715h4.015a1,1,0,0,0,1-1Z" transform="translate(-498.644 -174.245)" fill="#4ca223"/>
        </g>
        <g id="ロゴタイプ_カナ_" data-name="ロゴタイプ（カナ）" transform="translate(42.28 19.311)">
          <path id="パス_2794" data-name="パス 2794" d="M351.962,259.255a.371.371,0,0,0-.11-.268.356.356,0,0,0-.265-.113h-.155c-.072,0-.108-.034-.108-.1v-.262a.353.353,0,0,0-.115-.266.416.416,0,0,0-.563,0,.353.353,0,0,0-.115.266v.262c0,.068-.037.1-.112.1h-1.088c-.072,0-.107-.034-.107-.1v-.241a.379.379,0,0,0-.118-.281.395.395,0,0,0-.675.281v.241c0,.068-.037.1-.112.1h-.156a.356.356,0,0,0-.265.113.37.37,0,0,0-.11.268.375.375,0,0,0,.375.375h.156c.075,0,.112.035.112.107v.348a.4.4,0,0,0,.793,0v-.348a.094.094,0,0,1,.107-.107h1.088c.075,0,.112.035.112.107v1.1a.2.2,0,0,1-.067.148.225.225,0,0,1-.158.061h-1.05a.378.378,0,0,0,0,.755h1.323a.74.74,0,0,0,.745-.74v-1.323a.1.1,0,0,1,.108-.107h.155a.375.375,0,0,0,.375-.375Z" transform="translate(-347.788 -257.882)" fill="#4ca223"/>
          <g id="グループ_1886" data-name="グループ 1886" transform="translate(5.23)">
            <g id="グループ_1885" data-name="グループ 1885" transform="translate(0 0.136)">
              <path id="パス_2795" data-name="パス 2795" d="M390.471,258.24a.36.36,0,0,0-.11-.265.368.368,0,0,0-.27-.11h-1.045a.1.1,0,0,1-.107-.107v-.128a.346.346,0,0,0-.115-.261.416.416,0,0,0-.562,0,.349.349,0,0,0-.115.261v.128c0,.071-.038.107-.113.107h-1.04a.375.375,0,0,0,0,.751h1.04c.075,0,.113.035.113.106v1.924a.4.4,0,0,0,.793,0v-1.924a.094.094,0,0,1,.107-.106h1.045a.372.372,0,0,0,.268-.11A.357.357,0,0,0,390.471,258.24Z" transform="translate(-386.619 -257.26)" fill="#4ca223"/>
              <path id="パス_2796" data-name="パス 2796" d="M387.867,270.413a.456.456,0,0,0,.027-.155.365.365,0,0,0-.241-.364.387.387,0,0,0-.155-.032.362.362,0,0,0-.359.24l-.488,1.141a.4.4,0,0,0-.032.156.361.361,0,0,0,.241.359.386.386,0,0,0,.155.032.365.365,0,0,0,.364-.235Z" transform="translate(-386.619 -268.165)" fill="#4ca223"/>
              <path id="パス_2797" data-name="パス 2797" d="M407,271.244l-.482-1.141a.367.367,0,0,0-.365-.24.389.389,0,0,0-.155.032.364.364,0,0,0-.241.364.392.392,0,0,0,.032.155l.483,1.142a.365.365,0,0,0,.364.235.387.387,0,0,0,.155-.032.361.361,0,0,0,.241-.359A.4.4,0,0,0,407,271.244Z" transform="translate(-403.177 -268.165)" fill="#4ca223"/>
            </g>
            <path id="パス_2798" data-name="パス 2798" d="M408.186,257.268a.508.508,0,1,1,.508-.508A.509.509,0,0,1,408.186,257.268Zm0-.744a.236.236,0,1,0,.237.236A.237.237,0,0,0,408.186,256.524Z" transform="translate(-404.842 -256.253)" fill="#4ca223"/>
          </g>
          <path id="パス_2799" data-name="パス 2799" d="M426.819,269.375a.368.368,0,0,0-.11-.27.362.362,0,0,0-.265-.109h-3.005a.363.363,0,0,0-.266.109.369.369,0,0,0-.11.27.375.375,0,0,0,.376.375h3.005a.376.376,0,0,0,.375-.375Z" transform="translate(-412.924 -267.279)" fill="#4ca223"/>
          <g id="グループ_1887" data-name="グループ 1887" transform="translate(14.951 0.196)">
            <path id="パス_2800" data-name="パス 2800" d="M459.946,258.164a.381.381,0,0,0-.08-.295.375.375,0,0,0-.268-.145.379.379,0,0,0-.289.077.386.386,0,0,0-.15.266L458.794,261a.392.392,0,0,0,.083.289.382.382,0,0,0,.265.15.368.368,0,0,0,.289-.081.385.385,0,0,0,.15-.263Z" transform="translate(-458.792 -257.72)" fill="#4ca223"/>
            <path id="パス_2801" data-name="パス 2801" d="M473.068,260.63v-1.163a.347.347,0,0,0-.115-.259.415.415,0,0,0-.563,0,.347.347,0,0,0-.115.259v.943a.2.2,0,0,1-.065.147.215.215,0,0,1-.155.062h-.338a.1.1,0,0,1-.113-.113v-2.4a.4.4,0,1,0-.793,0v2.887a.362.362,0,0,0,.11.266.367.367,0,0,0,.27.109h1.13a.741.741,0,0,0,.744-.739Z" transform="translate(-469.194 -257.71)" fill="#4ca223"/>
          </g>
        </g>
        <g id="ロゴマーク">
          <g id="目" transform="translate(11.688 8.381)">
            <path id="パス_2802" data-name="パス 2802" d="M121.312,181.718c.357,0,.647-.65.647-1.452s-.289-1.452-.647-1.452-.647.65-.647,1.452S120.954,181.718,121.312,181.718Z" transform="translate(-120.665 -178.313)" fill="#4ca223"/>
            <path id="パス_2803" data-name="パス 2803" d="M154.223,178.007c.357,0,.647-.65.647-1.452s-.289-1.452-.647-1.452-.646.65-.646,1.452S153.866,178.007,154.223,178.007Z" transform="translate(-149.144 -175.103)" fill="#4ca223"/>
          </g>
          <path id="取手" d="M118.84,212.578a.916.916,0,0,0-.159-.925c-.253-.321-.351-.474-.353-.478a.516.516,0,0,0-.876.546c.011.018.109.172.358.494a.928.928,0,0,1-.223.057l-5.11.716a1.363,1.363,0,0,1-1.092-.278l-.455-.653a.517.517,0,1,0-.848.59l.455.653a2.163,2.163,0,0,0,1.728.735,2.578,2.578,0,0,0,.354-.025l5.11-.716A1.315,1.315,0,0,0,118.84,212.578Z" transform="translate(-99.739 -197.726)" fill="#4ca223"/>
          <path id="パス_2804" data-name="パス 2804" d="M59.143,125.148c-.006-1.288-.75-2.329-1.662-2.326a1.226,1.226,0,0,0-.553.139v-7.194a3.256,3.256,0,0,0-3.207-2.889H37.095a3.21,3.21,0,0,0-3.207,3.207v19a3.21,3.21,0,0,0,3.207,3.206h1.656a2.85,2.85,0,0,0,3.188,2.031l11.924-1.7a3.686,3.686,0,0,0,3.066-3.534v-4.2a3.661,3.661,0,0,0,1.1-1.217,3.087,3.087,0,0,0,.188-2.425A2.536,2.536,0,0,0,59.143,125.148Zm-3.878,9.939a1.992,1.992,0,0,1-1.637,1.888L41.7,138.68l-.091.013.091-.013a1.21,1.21,0,0,1-1.4-1.217v-19a1.992,1.992,0,0,1,1.637-1.888l11.924-1.7a1.2,1.2,0,0,1,1.4,1.216v14.858a12.705,12.705,0,0,1-2.99.732.7.7,0,0,0-.753-.488l-2.649.31a.7.7,0,0,0-.618.782l.064.552a.7.7,0,0,0,.7.623.726.726,0,0,0,.083,0l2.649-.31a.7.7,0,0,0,.619-.724,14.256,14.256,0,0,0,2.9-.672Zm-13.737,3.617.045-.007Zm15.841-9.384a2.58,2.58,0,0,1-.441.588v-2.566a1.231,1.231,0,0,0,.572.143h.008A2.354,2.354,0,0,1,57.369,129.321Z" transform="translate(-33.888 -112.879)" fill="#4ca223"/>
        </g>
      </g>
    </g>
    <text id="新生活の総合支援" transform="translate(263.213 421.35)" fill="#232323" font-size="10" font-family="HiraginoSans-W6, Hiragino Sans" letter-spacing="0.1em"><tspan x="-43.5" y="0">新生活の総合支援</tspan></text>
  </g>
</svg>
