<svg xmlns="http://www.w3.org/2000/svg" xmlns:xlink="http://www.w3.org/1999/xlink" width="157" height="149" viewBox="0 0 157 149">
  <defs>
    <filter id="長方形_682" x="0" y="0" width="157" height="149" filterUnits="userSpaceOnUse">
      <feOffset dy="3" input="SourceAlpha"/>
      <feGaussianBlur stdDeviation="3" result="blur"/>
      <feFlood flood-opacity="0.161"/>
      <feComposite operator="in" in2="blur"/>
      <feComposite in="SourceGraphic"/>
    </filter>
  </defs>
  <g id="グループ_75" data-name="グループ 75" transform="translate(6 6.039)">
    <g id="グループ_74" data-name="グループ 74" transform="translate(3 0)">
      <g transform="matrix(1, 0, 0, 1, -9, -6.04)" filter="url(#長方形_682)">
        <rect id="長方形_682-2" data-name="長方形 682" width="139" height="131" rx="19" transform="translate(9 6)" fill="#fff"/>
      </g>
    </g>
    <g id="グループ_34" data-name="グループ 34" transform="translate(26.335 34.951)">
      <path id="パス_61" data-name="パス 61" d="M147.961,1756.422a7.43,7.43,0,1,0-7.43,7.43A7.432,7.432,0,0,0,147.961,1756.422Z" transform="translate(-94.698 -1694.33)" fill="none" stroke="#232323" stroke-linecap="round" stroke-miterlimit="10" stroke-width="2.5"/>
      <path id="パス_62" data-name="パス 62" d="M166.886,1743.548a50.271,50.271,0,0,1,37.191,16.432l8.641-7.89a62,62,0,0,0-91.665,0l8.641,7.89A50.271,50.271,0,0,1,166.886,1743.548Z" transform="translate(-121.053 -1731.843)" fill="none" stroke="#232323" stroke-linecap="round" stroke-miterlimit="10" stroke-width="2.5"/>
      <path id="パス_63" data-name="パス 63" d="M200.124,1751.377a54.428,54.428,0,0,0-74.679,0l-2.518-2.3a57.826,57.826,0,0,1,79.715,0Z" transform="translate(-116.954 -1728.994)" fill="#5c9453"/>
      <path id="パス_64" data-name="パス 64" d="M153.332,1751.941a23.585,23.585,0,0,1,17.445,7.7l8.638-7.886a35.283,35.283,0,0,0-52.166,0l8.638,7.886A23.585,23.585,0,0,1,153.332,1751.941Z" transform="translate(-107.499 -1713.481)" fill="none" stroke="#232323" stroke-linecap="round" stroke-miterlimit="10" stroke-width="2.5"/>
      <path id="パス_65" data-name="パス 65" d="M129.153,1748.834a31.1,31.1,0,0,1,40.028,0l-2.537,2.314a27.722,27.722,0,0,0-34.957,0Z" transform="translate(-103.335 -1710.636)" fill="#5c9453"/>
    </g>
  </g>
</svg>
