<svg xmlns="http://www.w3.org/2000/svg" width="65.638" height="65.452" viewBox="0 0 65.638 65.452">
  <g id="グループ_1803" data-name="グループ 1803" transform="translate(0 0)">
    <g id="グループ_1796" data-name="グループ 1796" transform="translate(0)">
      <g id="グループ_1791" data-name="グループ 1791">
        <path id="パス_2735" data-name="パス 2735" d="M3019.5,2088.075l-2.281-1.239a30.228,30.228,0,1,0-54.275-2.289l-2.374,1.041a32.822,32.822,0,1,1,62.888-13.162A32.956,32.956,0,0,1,3019.5,2088.075Z" transform="translate(-2957.818 -2039.604)" fill="#fff"/>
      </g>
      <g id="グループ_1792" data-name="グループ 1792" transform="translate(15.559)">
        <path id="パス_2736" data-name="パス 2736" d="M2994.632,2086.12l-2.523-.6a56.232,56.232,0,0,0,1.478-13.093c0-16.391-6.723-30.229-14.673-30.229s-14.661,13.839-14.661,30.229a60,60,0,0,0,.315,6.225l-2.576.259a63.905,63.905,0,0,1-.333-6.484c0-18.4,7.582-32.822,17.254-32.822s17.265,14.422,17.265,32.822A59,59,0,0,1,2994.632,2086.12Z" transform="translate(-2961.66 -2039.604)" fill="#fff"/>
      </g>
      <g id="グループ_1793" data-name="グループ 1793" transform="translate(10.918 8.59)">
        <path id="パス_2737" data-name="パス 2737" d="M2982.41,2052.037a32.723,32.723,0,0,1-21.895-8.379l1.729-1.932a30.2,30.2,0,0,0,39.755.51l1.682,1.98A32.857,32.857,0,0,1,2982.41,2052.037Z" transform="translate(-2960.516 -2041.726)" fill="#fff"/>
      </g>
      <g id="グループ_1794" data-name="グループ 1794" transform="translate(1.298 31.524)">
        <rect id="長方形_1286" data-name="長方形 1286" width="63.044" height="2.594" fill="#fff"/>
      </g>
      <g id="グループ_1795" data-name="グループ 1795" transform="translate(31.523 1.295)">
        <rect id="長方形_1287" data-name="長方形 1287" width="2.587" height="38.601" fill="#fff"/>
      </g>
    </g>
    <g id="グループ_1802" data-name="グループ 1802" transform="translate(0 16.986)">
      <g id="グループ_1797" data-name="グループ 1797">
        <path id="パス_2738" data-name="パス 2738" d="M2990.631,2092.266a32.827,32.827,0,0,1-28.847-48.467l2.27,1.235a30.232,30.232,0,1,0,56.81,14.41,29.931,29.931,0,0,0-2.539-12.125l2.377-1.037a32.823,32.823,0,0,1-30.071,45.984Z" transform="translate(-2957.818 -2043.799)" fill="#fff"/>
      </g>
      <g id="グループ_1798" data-name="グループ 1798" transform="translate(15.559 1.944)">
        <path id="パス_2739" data-name="パス 2739" d="M2978.914,2090.8c-9.672,0-17.254-14.414-17.254-32.822a59.554,59.554,0,0,1,1.544-13.7l2.52.607a56.713,56.713,0,0,0-1.47,13.094c0,16.382,6.71,30.229,14.661,30.229s14.673-13.847,14.673-30.229a61.52,61.52,0,0,0-.315-6.225l2.575-.263a64.5,64.5,0,0,1,.332,6.488C2996.179,2076.388,2988.6,2090.8,2978.914,2090.8Z" transform="translate(-2961.66 -2044.279)" fill="#fff"/>
      </g>
      <g id="グループ_1799" data-name="グループ 1799" transform="translate(11.555 29.57)">
        <path id="パス_2740" data-name="パス 2740" d="M3002.1,2061.406a30.223,30.223,0,0,0-39.746-.518l-1.68-1.972a32.816,32.816,0,0,1,43.16.562Z" transform="translate(-2960.672 -2051.1)" fill="#fff"/>
      </g>
      <g id="グループ_1800" data-name="グループ 1800" transform="translate(1.298 14.345)">
        <rect id="長方形_1288" data-name="長方形 1288" width="63.044" height="2.594" fill="#fff"/>
      </g>
      <g id="グループ_1801" data-name="グループ 1801" transform="translate(31.523 8.566)">
        <rect id="長方形_1289" data-name="長方形 1289" width="2.587" height="38.605" fill="#fff"/>
      </g>
    </g>
  </g>
</svg>
