<svg xmlns="http://www.w3.org/2000/svg" xmlns:xlink="http://www.w3.org/1999/xlink" width="157" height="149" viewBox="0 0 157 149">
  <defs>
    <filter id="長方形_682" x="0" y="0" width="157" height="149" filterUnits="userSpaceOnUse">
      <feOffset dy="3" input="SourceAlpha"/>
      <feGaussianBlur stdDeviation="3" result="blur"/>
      <feFlood flood-opacity="0.161"/>
      <feComposite operator="in" in2="blur"/>
      <feComposite in="SourceGraphic"/>
    </filter>
  </defs>
  <g id="グループ_66" data-name="グループ 66" transform="translate(9 6.039)">
    <g id="グループ_65" data-name="グループ 65">
      <g transform="matrix(1, 0, 0, 1, -9, -6.04)" filter="url(#長方形_682)">
        <rect id="長方形_682-2" data-name="長方形 682" width="139" height="131" rx="19" transform="translate(9 6)" fill="#fff"/>
      </g>
    </g>
    <g id="グループ_33" data-name="グループ 33" transform="translate(22.243 26.969)">
      <path id="パス_55" data-name="パス 55" d="M986.034,1518.908a7.921,7.921,0,1,1,7.919,7.923A7.921,7.921,0,0,1,986.034,1518.908Z" transform="translate(-920.904 -1450.904)" fill="none" stroke="#232323" stroke-linecap="round" stroke-miterlimit="10" stroke-width="3"/>
      <path id="パス_56" data-name="パス 56" d="M999.455,1518.908a7.921,7.921,0,1,1,7.923,7.923A7.922,7.922,0,0,1,999.455,1518.908Z" transform="translate(-983.782 -1450.904)" fill="none" stroke="#232323" stroke-linecap="round" stroke-miterlimit="10" stroke-width="3"/>
      <path id="パス_57" data-name="パス 57" d="M997.763,1545.564v-41.836a5.614,5.614,0,0,1,5.616-5.615h8.538" transform="translate(-974.168 -1485.479)" fill="none" stroke="#232323" stroke-linecap="round" stroke-miterlimit="10" stroke-width="3"/>
      <line id="線_7" data-name="線 7" x1="33.616" transform="translate(31.514 68.005)" fill="none" stroke="#232323" stroke-linecap="round" stroke-miterlimit="10" stroke-width="3"/>
      <line id="線_8" data-name="線 8" x1="10.101" transform="translate(0.777 54.352)" fill="none" stroke="#232323" stroke-linecap="round" stroke-miterlimit="10" stroke-width="3"/>
      <path id="パス_58" data-name="パス 58" d="M1025.2,1502.907h-11.508c-3.431,0-5.137,2.037-6.5,5.734-2.631,7.635-5.586,16.638-5.586,27.66v4.307h15.673" transform="translate(-1001.604 -1472.605)" fill="none" stroke="#232323" stroke-linecap="round" stroke-miterlimit="10" stroke-width="3"/>
      <g id="グループ_31" data-name="グループ 31" transform="translate(58.054)">
        <path id="パス_59" data-name="パス 59" d="M1007.466,1512.487H997.5v7.838L982.367,1507.5l15.131-12.816v7.753h15.684a5.619,5.619,0,0,1,5.616,5.616v49.807a4.828,4.828,0,0,1-4.831,4.827h-8.682" transform="translate(-982.367 -1494.684)" fill="none" stroke="#232323" stroke-linecap="round" stroke-linejoin="round" stroke-width="3"/>
      </g>
      <line id="線_9" data-name="線 9" x2="12.022" transform="translate(41.989 12.632)" fill="none" stroke="#232323" stroke-linecap="round" stroke-linejoin="round" stroke-width="3" stroke-dasharray="0 1.537"/>
      <g id="グループ_32" data-name="グループ 32" transform="translate(7.541 36.359)">
        <path id="パス_60" data-name="パス 60" d="M1008.356,1504.123h5.05v12.8h-10.217c.856-3.55,1.965-6.946,3.137-10.339C1007.234,1504.123,1007.729,1504.123,1008.356,1504.123Z" transform="translate(-1003.188 -1504.123)" fill="#5c9453"/>
      </g>
    </g>
  </g>
</svg>
