<svg xmlns="http://www.w3.org/2000/svg" width="39.603" height="59.991" viewBox="0 0 39.603 59.991">
  <g id="グループ_1790" data-name="グループ 1790" transform="translate(0)">
    <g id="グループ_1787" data-name="グループ 1787" transform="translate(0)">
      <path id="パス_2732" data-name="パス 2732" d="M2831.712,2086.456c-12.02,0-20.09-8.388-20.09-16.216,0-7.257,6.265-16.969,6.533-17.378l1.023-1.576,1.608,4.291c.9-3.187,2.745-8.126,6.151-11.53,5.264-5.264,9.2-6.145,9.364-6.177l1.389-.294-.264,1.4c-.018.077-1.483,8.118,1.465,12.755a17.289,17.289,0,0,1,2.529,5.952l3.086-3.8.726.982c.413.549,9.9,13.6,4.145,22.716C2844.716,2084.945,2838.943,2086.456,2831.712,2086.456Zm-12.963-30.908c-1.757,3.035-5.228,9.669-5.228,14.693,0,6.774,7.468,14.316,18.191,14.316,6.791,0,11.85-1.335,16.057-7.987,4.219-6.679-1.329-16.4-3.361-19.547l-5.661,6.979.923-4c0-.015.51-2.709-2.382-7.249-2.513-3.961-2.261-9.738-1.955-12.521a24.544,24.544,0,0,0-7.056,5.157c-4.848,4.86-6.322,13.524-6.337,13.616l-.581,3.507Z" transform="translate(-2811.622 -2037.576)" fill="#fff"/>
    </g>
    <g id="グループ_1788" data-name="グループ 1788" transform="translate(9.657 23.656)">
      <path id="パス_2733" data-name="パス 2733" d="M2824.864,2070.535c-3.688,0-6.636-.774-9.028-4.545-2.965-4.694,1.872-11.343,2.076-11.628l.552-.742,1.422,1.76a9.669,9.669,0,0,1,1.19-2.573c1.429-2.24.712-6.169.7-6.21l-.2-1.047,1.045.22c.086.021,2.115.478,4.794,3.157a13.212,13.212,0,0,1,2.934,5.192l.721-1.932.769,1.181c.131.21,3.308,5.121,3.308,8.821C2835.15,2066.221,2831.017,2070.535,2824.864,2070.535Zm-6.32-14.551c-1.1,1.775-3.432,6.2-1.507,9.243,2.047,3.231,4.518,3.884,7.827,3.884,5.225,0,8.86-3.646,8.86-6.922,0-2.24-1.424-5.154-2.339-6.788l-1.429,3.833-.433-2.626c-.012-.044-.742-4.309-3.107-6.673a12.582,12.582,0,0,0-3.079-2.346c.124,1.524.118,4.132-1.06,5.981-1.379,2.169-1.161,3.448-1.155,3.459l.528,2.783Z" transform="translate(-2814.876 -2045.55)" fill="#fff"/>
    </g>
    <g id="グループ_1789" data-name="グループ 1789" transform="translate(2.107 50.467)">
      <path id="パス_2734" data-name="パス 2734" d="M2847.455,2064.109h-35.123v-9.524h35.123Zm-33.225-1.9h31.326v-5.723h-31.326Z" transform="translate(-2812.332 -2054.585)" fill="#fff"/>
    </g>
  </g>
</svg>
