<svg xmlns="http://www.w3.org/2000/svg" width="43.42" height="62.076" viewBox="0 0 43.42 62.076">
  <path id="パス_2731" data-name="パス 2731" d="M533.329,1054.809v0h-.459c-11.328.013-21.441,9.115-21.477,20.576a22.868,22.868,0,0,0,4.838,13.531c2.426,3.3,4.908,5.9,5.055,6.823a35.951,35.951,0,0,1,.625,3.709,3.629,3.629,0,0,0,2.678,2.9c1.632.5,4.965.638,8.514.651,3.539-.013,6.875-.156,8.507-.651a3.62,3.62,0,0,0,2.679-2.9,36.784,36.784,0,0,1,.628-3.705c.153-.927,2.635-3.529,5.064-6.826a22.885,22.885,0,0,0,4.832-13.531C554.777,1063.927,544.668,1054.825,533.329,1054.809Zm14.485,32.553c-2.263,3.227-4.706,5.31-5.467,7.666a32.319,32.319,0,0,0-.668,3.878c-.243.682-.007.522-.881.911a57,57,0,0,1-15.392,0c-.874-.389-.638-.233-.881-.911a34.419,34.419,0,0,0-.668-3.871c-.758-2.363-3.193-4.446-5.463-7.673a20.208,20.208,0,0,1-4.33-11.973,17.362,17.362,0,0,1,5.662-12.638,19.355,19.355,0,0,1,13.143-5.27l.459-.007v.007a19.337,19.337,0,0,1,13.146,5.27,17.33,17.33,0,0,1,5.669,12.638A20.208,20.208,0,0,1,547.815,1087.362Zm-23.77,20.238h18.121v-2.668H524.045Zm0,4.639h18.121v-2.665H524.045Zm0,4.646h18.121v-2.672H524.045Z" transform="translate(-511.394 -1054.809)" fill="#fff"/>
</svg>
