<svg xmlns="http://www.w3.org/2000/svg" width="38.561" height="59.985" viewBox="0 0 38.561 59.985">
  <g id="グループ_1804" data-name="グループ 1804" transform="translate(0)">
    <path id="パス_2741" data-name="パス 2741" d="M686.349,1435.293c-2.029-2.8-4.028-5.006-4.042-5.023a.98.98,0,0,0-1.494.053c-.011.02-1.777,2.259-3.557,5.121-1.763,2.89-3.6,6.29-3.638,9.1,0,.02,0,.076,0,.163a6.434,6.434,0,0,0,3.047,5.48,9.98,9.98,0,0,0,5.191,1.413c.1,0,.174-.005.221-.005a10.874,10.874,0,0,0,5.367-1.587,6.427,6.427,0,0,0,3.151-5.569v-.132C690.478,1441.446,688.367,1438.135,686.349,1435.293Zm2.3,9.146a4.447,4.447,0,0,1-2.251,3.918,8.864,8.864,0,0,1-4.328,1.278l-.207,0a7.965,7.965,0,0,1-4.14-1.1,4.448,4.448,0,0,1-2.141-3.894l-.978.028.975-.087,0-.036c-.039-1.923,1.617-5.328,3.341-8.067,1.031-1.656,2.06-3.106,2.724-4,.743.877,1.926,2.318,3.12,3.964,1.97,2.679,3.882,6.04,3.882,7.856A1.208,1.208,0,0,0,688.644,1444.439Zm21.645-38.742a.976.976,0,0,0-1-.956l-8.308.216a9.05,9.05,0,0,0-4.86-2l-.031,0v-4.63h1.631c.017.033.014.07.031.109h0a4.7,4.7,0,0,0,4.207,2.618h.065a4.728,4.728,0,0,0,4.65-4.723v-.059a4.737,4.737,0,0,0-4.715-4.658h-.028a1.091,1.091,0,0,0-.143.008,4.683,4.683,0,0,0-4.5,4.454,1,1,0,0,0,.039.292h-4.342a1.2,1.2,0,0,0,.014-.177v0a4.692,4.692,0,0,0-4.639-4.221h-.031l-.1,0h0a4.725,4.725,0,0,0-4.6,4.717,1.24,1.24,0,0,0,.008.177,4.7,4.7,0,0,0,4.709,4.544h.079a4.708,4.708,0,0,0,4.232-2.837,1.1,1.1,0,0,0,.053-.244h1.421V1403a.656.656,0,0,0-.1-.006v0a9.046,9.046,0,0,0-4.928,2.276l-6.82.176a1.121,1.121,0,0,0-.25.042,8.368,8.368,0,0,0-7.677,7.946,1.019,1.019,0,0,0-.039.3l.19,7.318-1.522.045a.974.974,0,0,0-.953,1l.154,6a.967.967,0,0,0,.3.684.979.979,0,0,0,.673.269h.028l16.8-.44a.976.976,0,0,0,.95-1l-.157-6a.972.972,0,0,0-1-.953l-1.525.042-.042-1.648,1.382-.033a9.023,9.023,0,0,0,5.625,1.987h.188a9.014,9.014,0,0,0,5.78-2.29l8.448-.219a.96.96,0,0,0,.684-.3.985.985,0,0,0,.269-.7Zm-11.044-9.5a2.726,2.726,0,0,1,2.638-2.621h.076a2.764,2.764,0,0,1,2.761,2.694.471.471,0,0,0,0,.064,2.77,2.77,0,0,1-2.694,2.77h-.068a2.748,2.748,0,0,1-2.455-1.542.991.991,0,0,0-.51-.459,1.036,1.036,0,0,0-.087-.227A.988.988,0,0,0,699.245,1396.2Zm-8,1.157a.951.951,0,0,0-.378.432,2.745,2.745,0,0,1-2.439,1.67l-.028-.005-.053.005a2.768,2.768,0,0,1-2.758-2.691l0-.076a2.759,2.759,0,0,1,2.694-2.758l.079-.006v0a2.73,2.73,0,0,1,2.691,2.475.99.99,0,0,0,.272.563.919.919,0,0,0-.076.384Zm9.53,19.416a.974.974,0,0,0-.653.275,7.05,7.05,0,0,1-4.72,2h-.177a7.1,7.1,0,0,1-4.647-1.754,1.014,1.014,0,0,0-.662-.239l-2.727.073a.974.974,0,0,0-.95,1l.1,3.6a.964.964,0,0,0,.3.687,1,1,0,0,0,.7.269l1.522-.042.107,4.045-14.847.387-.1-4.048,1.522-.034a.958.958,0,0,0,.684-.308.947.947,0,0,0,.272-.7l-.21-8.086a1.132,1.132,0,0,0,.022-.2,6.415,6.415,0,0,1,6.063-6.276,1.375,1.375,0,0,0,.182-.026l6.985-.182a.962.962,0,0,0,.664-.286,7.037,7.037,0,0,1,4.084-2,.973.973,0,0,0,.524-.241.756.756,0,0,0,.6,0,.959.959,0,0,0,.519.215,7.025,7.025,0,0,1,4.044,1.772,1,1,0,0,0,.681.249l7.708-.2.258,9.844Z" transform="translate(-672.037 -1391.615)" fill="#fff"/>
  </g>
</svg>
