<svg xmlns="http://www.w3.org/2000/svg" width="24.227" height="24.081" viewBox="0 0 24.227 24.081">
  <path id="パス_2745" data-name="パス 2745" d="M1379.257,1844.594l-5.228-5.2-.332-.331-.367.292a7.01,7.01,0,0,1-4.252,1.81,5.9,5.9,0,0,1-4.144-2,5.827,5.827,0,0,1-2.009-4.118,6.947,6.947,0,0,1,1.82-4.22l.3-.37-.337-.335-5.224-5.194-.274-.271-.341.175a9.758,9.758,0,0,0-1.913,1.4,5.715,5.715,0,0,0-1.649,4.188c-.006,2.348,1.134,6.292,6.615,11.733,5.466,5.439,9.428,6.581,11.791,6.581a5.83,5.83,0,0,0,4.243-1.649,9.642,9.642,0,0,0,1.395-1.883l.183-.344Z" transform="translate(-1355.305 -1824.664)" fill="#232323"/>
</svg>
