<?xml version="1.0" encoding="utf-8"?>
<!-- Generator: Adobe Illustrator 25.4.1, SVG Export Plug-In . SVG Version: 6.00 Build 0)  -->
<svg version="1.1" id="レイヤー_1" xmlns="http://www.w3.org/2000/svg" xmlns:xlink="http://www.w3.org/1999/xlink" x="0px"
	 y="0px" viewBox="0 0 350.4 506.3" style="enable-background:new 0 0 350.4 506.3;" xml:space="preserve">
<style type="text/css">
	.st0{fill:#FFFFFF;}
	.st1{fill:none;stroke:#59944C;}
	.st2{fill:#59944C;}
	.st3{font-family:'HiraginoSans-W6-83pv-RKSJ-H';}
	.st4{font-size:14px;}
	.st5{font-family:'SegoeUI-Bold';}
	.st6{font-size:15px;}
	.st7{fill:#4CA223;}
	.st8{fill:#528E44;}
	.st9{font-size:12px;}
</style>
<g id="グループ_1966" transform="translate(-11.619 -347.745)">
	<g id="グループ_1954" transform="translate(-391.633 -251)">
		<g id="長方形_705" transform="translate(540.633 599)">
			<rect x="0" y="0" class="st0" width="213" height="115"/>
			<rect x="0.5" y="0.5" class="st1" width="212" height="114"/>
		</g>
		<text transform="matrix(1 0 0 1 591.633 640)" class="st2 st3 st4">引っ越し時に面倒な</text>
		<text transform="matrix(1 0 0 1 570.633 663)" class="st2 st3 st4">家具選びの手間やコストの</text>
		<text transform="matrix(1 0 0 1 556.633 686)" class="st2 st3 st4">悩み解決可能なサービス提供。</text>
	</g>
	<g id="グループ_122" transform="translate(-397 -51)">
		<g id="長方形_705-2" transform="translate(546 600)">
			<rect x="0" y="0" class="st0" width="213" height="111"/>
			<rect x="0.5" y="0.5" class="st1" width="212" height="110"/>
		</g>
		<text transform="matrix(1 0 0 1 574.935 639)" class="st2 st3 st4">物件確定時に不動産会社</text>
		<text transform="matrix(1 0 0 1 728.9349 639)" class="st2 st5 st4">or</text>
		<text transform="matrix(1 0 0 1 561.21 662)" class="st2 st3 st4">サポールの家具・家電サービス</text>
		<text transform="matrix(1 0 0 1 596.49 685)" class="st2 st3 st4">紹介を行って頂く。</text>
	</g>
	<g id="グループ_123" transform="translate(-396.381 143)">
		<g id="長方形_705-3" transform="translate(546.381 600)">
			<rect x="0" y="0" class="st0" width="212" height="111"/>
			<rect x="0.5" y="0.5" class="st1" width="211" height="110"/>
		</g>
		<text transform="matrix(1 0 0 1 586.381 628)" class="st2 st3 st6">仲介業者が紹介を行い</text>
		<text transform="matrix(1 0 0 1 586.381 651)" class="st2 st3 st6">サービスを希望された</text>
		<text transform="matrix(1 0 0 1 609.256 674)" class="st2 st3 st6">退寮者に対して</text>
		<text transform="matrix(1 0 0 1 601.381 697)" class="st2 st3 st6">提案、契約業務。</text>
	</g>
	<g id="グループ_1964">
		<g id="グループ_1963">
			<g id="グループ_1904" transform="translate(51.675 318.745)">
				<g id="ロゴタイプ_英_" transform="translate(-24.872 109.499)">
					<path id="パス_2789" class="st7" d="M17,18v-5c0-2.3-1.9-4.3-4.2-4.3c0,0,0,0,0,0H6.3C6,8.8,5.6,8.6,5.4,8.4
						C5.1,8.2,5,7.8,5,7.5V6.2c0-0.3,0.1-0.7,0.4-0.9C5.6,5.1,6,4.9,6.3,4.9h7.9c0.6,0,1.2-0.2,1.6-0.7c0.4-0.4,0.7-1,0.7-1.6
						c0-0.6-0.2-1.2-0.7-1.6c-0.4-0.4-1-0.7-1.6-0.7H4.4c-2.3,0-4.2,1.9-4.3,4.2v4.2c0,2.3,1.9,4.3,4.2,4.3c0,0,0,0,0,0h6.4
						c0.4,0,0.7,0.1,1,0.4c0.3,0.2,0.4,0.5,0.4,0.9v2.1c0,0.3-0.1,0.7-0.4,0.9c-0.3,0.2-0.6,0.4-1,0.4H2.3C1,17.7,0,18.8,0,20
						s1,2.3,2.3,2.3h10.4C15.1,22.3,17,20.4,17,18C17,18.1,17,18.1,17,18L17,18z"/>
					<path id="パス_2790" class="st7" d="M41.5,20.4c0-0.2,0-0.5-0.1-0.7L37.3,2.9c-0.2-0.7-0.6-1.4-1.2-1.9
						c-0.6-0.5-1.3-0.8-2.1-0.8h-4.4c-0.8,0-1.5,0.3-2.1,0.8c-0.6,0.5-1,1.2-1.2,1.9L22,19.7C22,19.9,22,20.2,22,20.4
						c0,0.6,0.3,1.2,0.8,1.6c0.5,0.4,1.1,0.6,1.8,0.6c1.1,0.1,2.1-0.7,2.3-1.8l1.3-5.6c0.1-0.4,0.4-0.7,0.9-0.7h5.5
						c0.4,0,0.8,0.2,0.9,0.7l1.3,5.6c0.2,1.1,1.2,1.8,2.3,1.8c0.6,0.1,1.3-0.2,1.8-0.6C41.2,21.6,41.5,21,41.5,20.4z M33.9,9.4
						c0,0.3-0.1,0.5-0.4,0.6c0,0-0.1,0-0.1,0h-3.2c-0.3,0-0.5-0.1-0.6-0.4c0,0,0-0.1,0-0.1V9.2l1-3.9c0-0.3,0.3-0.4,0.5-0.4h1.3
						c0.3,0,0.5,0.2,0.5,0.4l1,3.9C33.9,9.3,33.9,9.3,33.9,9.4L33.9,9.4z"/>
					<path id="パス_2791" class="st7" d="M63.3,9V6c0-3.1-2.5-5.6-5.7-5.6c0,0,0,0,0,0h-8.5c-0.7,0-1.3,0.2-1.8,0.7
						c-0.5,0.4-0.7,1-0.7,1.7v17.6c0,0.6,0.2,1.2,0.7,1.6c1,0.9,2.5,0.9,3.4,0c0.5-0.4,0.7-1,0.7-1.6v-5.1c0-0.4,0.2-0.6,0.7-0.6
						h5.5C60.7,14.6,63.3,12.1,63.3,9C63.3,9,63.3,9,63.3,9L63.3,9z M58.4,7.9c0,0.6-0.2,1.1-0.7,1.5c-0.4,0.4-1,0.6-1.6,0.6h-4.1
						c-0.5,0-0.7-0.2-0.7-0.7V5.6c0-0.4,0.2-0.7,0.7-0.7h4.1c0.6,0,1.2,0.2,1.6,0.6c0.4,0.4,0.7,0.9,0.7,1.5V7.9z"/>
					<path id="パス_2792" class="st7" d="M84.6,16.4V6.1c0-3.2-2.6-5.8-5.8-5.8c0,0,0,0,0,0h-4.6c-3.2,0-5.8,2.6-5.8,5.8
						c0,0,0,0,0,0v10.3c0,3.2,2.6,5.8,5.8,5.8c0,0,0,0,0,0h4.6C82,22.3,84.6,19.7,84.6,16.4C84.6,16.5,84.6,16.5,84.6,16.4
						L84.6,16.4z M79.7,16c0,0.5-0.2,0.9-0.5,1.2c-0.3,0.3-0.8,0.5-1.3,0.5h-3c-0.5,0-0.9-0.2-1.2-0.5c-0.3-0.3-0.5-0.8-0.5-1.2V6.6
						c0-0.5,0.2-0.9,0.5-1.2c0.3-0.3,0.8-0.5,1.2-0.5h3c0.5,0,0.9,0.2,1.3,0.5c0.3,0.3,0.5,0.7,0.5,1.2V16z"/>
					<path id="パス_2793" class="st7" d="M105,20c0-0.6-0.2-1.2-0.7-1.6c-0.4-0.4-1-0.7-1.6-0.7h-7.3c-0.5,0.1-0.9-0.3-1-0.7
						c0-0.1,0-0.2,0-0.2V2.3c0-0.6-0.2-1.2-0.7-1.6c-1-0.9-2.5-0.9-3.4,0c-0.5,0.4-0.7,1-0.7,1.6v16.1c0,2.2,1.7,3.9,3.9,3.9
						c0,0,0,0,0,0h9.2C104,22.3,105,21.3,105,20L105,20z"/>
				</g>
				<g id="ロゴタイプ_カナ_" transform="translate(6.049 134.828)">
					<path id="パス_2794" class="st7" d="M9.6,3.1c0-0.2-0.1-0.5-0.3-0.6C9.2,2.4,8.9,2.3,8.7,2.3H8.4C8.2,2.3,8.1,2.2,8.1,2V1.4
						C8.1,1.2,8,1,7.8,0.8c-0.4-0.3-0.9-0.3-1.3,0C6.4,1,6.3,1.2,6.3,1.4V2c0,0.2-0.1,0.2-0.3,0.2H3.5C3.4,2.3,3.3,2.2,3.3,2V1.5
						C3.3,1.2,3.2,1,3,0.8c-0.4-0.4-0.9-0.4-1.3,0C1.6,1,1.5,1.2,1.5,1.5V2c0,0.2-0.1,0.2-0.3,0.2H0.9c-0.2,0-0.5,0.1-0.6,0.3
						C0.1,2.7,0,2.9,0,3.2C0,3.6,0.4,4,0.9,4h0.4c0.2,0,0.3,0.1,0.3,0.2v0.8C1.5,5.6,1.9,6,2.4,6c0.5,0,0.9-0.4,0.9-0.9V4.3
						C3.3,4.1,3.4,4,3.5,4c0,0,0,0,0.1,0H6c0.2,0,0.3,0.1,0.3,0.2v2.5c0,0.1-0.1,0.3-0.2,0.3C6,7.2,5.9,7.3,5.8,7.3H3.4
						c-0.5,0-0.9,0.4-0.9,0.9C2.5,8.6,2.9,9,3.4,9h3c0.9,0,1.7-0.8,1.7-1.7c0,0,0,0,0,0v-3C8.1,4.1,8.2,4,8.3,4c0,0,0,0,0.1,0h0.4
						C9.2,4,9.6,3.6,9.6,3.1L9.6,3.1z"/>
					<g id="グループ_1886" transform="translate(11.994)">
						<g id="グループ_1885" transform="translate(0 0.311)">
							<path id="パス_2795" class="st7" d="M8.8,2.2c0-0.2-0.1-0.4-0.3-0.6C8.4,1.5,8.2,1.4,8,1.4H5.6c-0.1,0-0.2-0.1-0.2-0.2
								c0,0,0,0,0-0.1V0.8c0-0.2-0.1-0.4-0.3-0.6c-0.4-0.3-0.9-0.3-1.3,0C3.6,0.4,3.5,0.6,3.5,0.8v0.3c0,0.2-0.1,0.2-0.3,0.2H0.9
								C0.4,1.4,0,1.8,0,2.3c0,0.5,0.4,0.9,0.9,0.9h2.4c0.2,0,0.3,0.1,0.3,0.2v4.4c0,0.5,0.4,0.9,0.9,0.9c0.5,0,0.9-0.4,0.9-0.9V3.4
								c0-0.1,0.1-0.2,0.2-0.2c0,0,0,0,0.1,0H8c0.2,0,0.5-0.1,0.6-0.3C8.7,2.7,8.8,2.5,8.8,2.2z"/>
							<path id="パス_2796" class="st7" d="M2.9,5.2c0-0.1,0.1-0.2,0.1-0.4c0-0.4-0.2-0.7-0.6-0.8C2.3,3.9,2.1,3.9,2,3.9
								c-0.4,0-0.7,0.2-0.8,0.6L0.1,7.1C0,7.2,0,7.3,0,7.4c0,0.4,0.2,0.7,0.6,0.8c0.1,0,0.2,0.1,0.4,0.1c0.4,0,0.7-0.2,0.8-0.5
								L2.9,5.2z"/>
							<path id="パス_2797" class="st7" d="M8.8,7.1L7.7,4.4C7.5,4.1,7.2,3.9,6.8,3.9c-0.1,0-0.2,0-0.4,0.1
								C6.1,4.1,5.9,4.4,5.9,4.8c0,0.1,0,0.2,0.1,0.4l1.1,2.6c0.1,0.3,0.5,0.6,0.8,0.5c0.1,0,0.2,0,0.4-0.1c0.3-0.1,0.6-0.5,0.6-0.8
								C8.8,7.3,8.8,7.2,8.8,7.1z"/>
						</g>
						<path id="パス_2798" class="st7" d="M7.7,2.3C7,2.3,6.5,1.8,6.5,1.2S7,0,7.7,0s1.2,0.5,1.2,1.2C8.8,1.8,8.3,2.3,7.7,2.3z
							 M7.7,0.6c-0.3,0-0.5,0.2-0.5,0.5c0,0.3,0.2,0.5,0.5,0.5c0.3,0,0.5-0.2,0.5-0.5c0,0,0,0,0,0C8.2,0.9,8,0.6,7.7,0.6L7.7,0.6z"
							/>
					</g>
					<path id="パス_2799" class="st7" d="M31.9,4.8c0-0.2-0.1-0.5-0.3-0.6C31.5,4,31.2,3.9,31,3.9h-6.9c-0.2,0-0.4,0.1-0.6,0.3
						c-0.2,0.2-0.3,0.4-0.3,0.6c0,0.5,0.4,0.9,0.9,0.9c0,0,0,0,0,0H31C31.5,5.7,31.9,5.3,31.9,4.8L31.9,4.8z"/>
					<g id="グループ_1887" transform="translate(34.285 0.45)">
						<path id="パス_2800" class="st7" d="M2.6,1c0-0.2,0-0.5-0.2-0.7C2.3,0.2,2.1,0,1.8,0C1.6,0,1.4,0,1.2,0.2
							C1,0.3,0.9,0.6,0.8,0.8L0,7.5C0,7.8,0,8,0.2,8.2c0.1,0.2,0.4,0.3,0.6,0.3c0.2,0,0.5,0,0.7-0.2C1.7,8.2,1.8,8,1.8,7.7L2.6,1z"
							/>
						<path id="パス_2801" class="st7" d="M8.9,6.7V4c0-0.2-0.1-0.4-0.3-0.6c-0.4-0.3-0.9-0.3-1.3,0C7.2,3.6,7.1,3.8,7.1,4v2.2
							c0,0.1-0.1,0.3-0.1,0.3C6.8,6.6,6.7,6.7,6.6,6.7H5.8c-0.1,0-0.2-0.1-0.3-0.2c0,0,0,0,0-0.1V0.9C5.5,0.4,5.1,0,4.6,0
							C4.1,0,3.7,0.4,3.7,0.9c0,0,0,0,0,0v6.6C3.7,7.8,3.8,8,4,8.1c0.2,0.2,0.4,0.3,0.6,0.3h2.6C8.1,8.4,8.9,7.6,8.9,6.7
							C8.9,6.7,8.9,6.7,8.9,6.7L8.9,6.7z"/>
					</g>
				</g>
				<g id="ロゴマーク" transform="translate(-1.323 29)">
					<g id="目" transform="translate(26.803 19.219)">
						<path id="パス_2802" class="st7" d="M1.5,7.8C2.3,7.8,3,6.3,3,4.5S2.3,1.1,1.5,1.1S0,2.6,0,4.5S0.7,7.8,1.5,7.8z"/>
						<path id="パス_2803" class="st7" d="M11.6,6.7c0.8,0,1.5-1.5,1.5-3.3S12.5,0,11.6,0s-1.5,1.5-1.5,3.3S10.8,6.7,11.6,6.7z"/>
					</g>
					<path id="取手" class="st7" d="M43.8,34.1c0.3-0.7,0.1-1.5-0.4-2.1c-0.6-0.7-0.8-1.1-0.8-1.1c-0.3-0.6-1.1-0.7-1.6-0.4
						c-0.6,0.3-0.7,1.1-0.4,1.6l0,0c0,0,0.2,0.4,0.8,1.1c-0.2,0.1-0.3,0.1-0.5,0.1L29.2,35c-0.9,0.2-1.8-0.1-2.5-0.6l-1-1.5
						c-0.4-0.5-1.1-0.7-1.6-0.3s-0.7,1.1-0.3,1.6l0,0l1,1.5c1,1.1,2.5,1.8,4,1.7c0.3,0,0.5,0,0.8-0.1l11.7-1.6
						C42.3,35.7,43.3,35,43.8,34.1z"/>
					<path id="パス_2804" class="st7" d="M57.9,28.1c0-3-1.7-5.3-3.8-5.3c-0.4,0-0.9,0.1-1.3,0.3V6.6C52.4,2.9,49.3,0,45.5,0H7.4
						C3.3,0,0,3.3,0,7.4v43.6c0,4.1,3.3,7.3,7.4,7.4h3.8c0.9,3.2,4,5.2,7.3,4.7L45.8,59c4-0.7,6.9-4.1,7-8.1v-9.6
						c1-0.7,1.9-1.7,2.5-2.8c0.9-1.7,1.1-3.7,0.4-5.6C57.2,31.8,58,30,57.9,28.1z M49,50.9c-0.1,2.1-1.6,3.9-3.8,4.3l-27.3,3.9
						l-0.2,0l0.2,0c-1.5,0.2-2.9-0.8-3.2-2.3c0-0.2,0-0.3,0-0.5V12.8c0.1-2.1,1.6-3.9,3.8-4.3l27.3-3.9c1.5-0.3,2.9,0.8,3.2,2.3
						c0,0.2,0,0.4,0,0.5v34.1c-2.2,0.8-4.5,1.4-6.9,1.7c-0.2-0.7-1-1.2-1.7-1.1l-6.1,0.7c-0.9,0.1-1.5,0.9-1.4,1.8c0,0,0,0,0,0
						l0.1,1.3c0.1,0.8,0.8,1.4,1.6,1.4c0.1,0,0.1,0,0.2,0l6.1-0.7c0.8-0.1,1.4-0.8,1.4-1.7c2.3-0.3,4.5-0.8,6.6-1.5L49,50.9z
						 M17.5,59.2L17.5,59.2L17.5,59.2z M53.8,37.7c-0.3,0.5-0.6,0.9-1,1.3v-5.9c0.4,0.2,0.9,0.3,1.3,0.3h0
						C54.6,34.9,54.5,36.4,53.8,37.7L53.8,37.7z"/>
				</g>
			</g>
			<g id="グループ_119" transform="translate(-1031.754 111.516)">
				<g id="グループ_107" transform="translate(1050.374 435.183)">
					<path id="パス_125" class="st8" d="M29.2,0v89.6h34V77.2h11.3v12.5h12.4V0H29.2z M61.9,9.9h13.9v13.9H61.9V9.9z M40.3,9.9
						h13.9v13.9H40.2L40.3,9.9z M54.2,68v1.8H40.2V55.9h13.9L54.2,68z M54.2,45v1.8H40.2V32.9h13.9L54.2,45z M75.8,68v1.8H61.9V55.9
						h13.9V68z M75.8,45v1.8H61.9V32.9h13.9V45z"/>
					<text transform="matrix(1 0 0 1 -4.876 110.399)" class="st2 st3 st9">不動産会社</text>
					<text transform="matrix(1 0 0 1 55.124 110.399)" class="st2 st5 st9">or</text>
					<text transform="matrix(1 0 0 1 67.2353 110.399)" class="st2 st3 st9">サポール</text>
				</g>
			</g>
			<g id="グループ_1955" transform="translate(0 -58)">
				<text transform="matrix(1 0 0 1 12.159 908.723)" class="st2 st3 st9">家電レンタル、販売会社</text>
				<path id="Icon_awesome-bed" class="st8" d="M89,871.2c3.9,0,7.1-3.2,7.1-7.1c0-3.9-3.2-7.1-7.1-7.1c-3.9,0-7.1,3.2-7.1,7.1
					C81.8,868,85,871.2,89,871.2z M120.4,859.7h-20c-0.8,0-1.4,0.6-1.4,1.4c0,0,0,0,0,0V874H79v-18.6c0-0.8-0.6-1.4-1.4-1.4
					c0,0,0,0,0,0h-2.9c-0.8,0-1.4,0.6-1.4,1.4c0,0,0,0,0,0v31.4c0,0.8,0.6,1.4,1.4,1.4c0,0,0,0,0,0h2.9c0.8,0,1.4-0.6,1.4-1.4
					c0,0,0,0,0,0v-4.3h45.7v4.3c0,0.8,0.6,1.4,1.4,1.4c0,0,0,0,0,0h2.9c0.8,0,1.4-0.6,1.4-1.4c0,0,0,0,0,0v-17.1
					C130.4,864.2,125.9,859.7,120.4,859.7C120.4,859.7,120.4,859.7,120.4,859.7z"/>
				<path id="Icon_map-furniture-store" class="st8" d="M83.6,804.1H33.8c-1.7,0.2-3,1.6-2.9,3.3c0,1.7,1.2,3.2,2.9,3.3h0.7v6.7H83
					v-6.7h0.6c1.7-0.2,3-1.6,2.9-3.3C86.5,805.7,85.3,804.3,83.6,804.1z M58.7,814.2c-0.9-0.1-1.5-0.9-1.5-1.7
					c-0.1-0.9,0.6-1.6,1.5-1.7c0.9,0.1,1.5,0.9,1.5,1.7C60.2,813.3,59.6,814.1,58.7,814.2z M34.5,830.8H83v-10.7H34.5V830.8z
					 M58.7,823.7c1,0.2,1.6,1.1,1.4,2c-0.1,0.7-0.7,1.3-1.4,1.4c-1-0.2-1.6-1.1-1.4-2C57.4,824.4,58,823.8,58.7,823.7z M34.5,840.1
					v7.8c0,0.9,0.1,1.7,0.9,1.7h5.8c0.8,0,1.2-0.8,1.2-1.7v-5h32.7v5c0,0.9,0.3,1.7,1.1,1.7H82c0.8,0,1-0.8,1-1.7v-14.3H34.5V840.1z
					 M58.7,836.6c1,0.2,1.6,1.1,1.4,2c-0.1,0.7-0.7,1.3-1.4,1.4c-1-0.2-1.6-1.1-1.4-2C57.4,837.3,58,836.7,58.7,836.6z"/>
			</g>
			<path id="Icon_awesome-long-arrow-alt-right" class="st8" d="M83.5,514.1v-31.9c0-0.7-0.6-1.3-1.3-1.3c0,0,0,0,0,0h-5.9
				c-0.7,0-1.3,0.6-1.3,1.3c0,0,0,0,0,0v31.9h-4.9c-1.4,0-2.5,1.1-2.5,2.5c0,0.7,0.3,1.3,0.7,1.8l9.1,9.1c1,1,2.6,1,3.6,0l9.1-9.1
				c1-1,1-2.6,0-3.6c-0.5-0.5-1.1-0.7-1.8-0.7H83.5z"/>
		</g>
		<path id="Icon_awesome-long-arrow-alt-right-2" class="st8" d="M81.8,711.7v-31.9c0-0.7-0.6-1.3-1.3-1.3c0,0,0,0,0,0h-5.9
			c-0.7,0-1.3,0.6-1.3,1.3c0,0,0,0,0,0v31.9h-4.9c-1.4,0-2.5,1.1-2.5,2.5c0,0.7,0.3,1.3,0.7,1.8l9.1,9.1c1,1,2.6,1,3.6,0l9.1-9.1
			c1-1,1-2.6,0-3.6c-0.5-0.5-1.1-0.7-1.8-0.7H81.8z"/>
	</g>
</g>
</svg>
