<svg xmlns="http://www.w3.org/2000/svg" width="718.703" height="198.063" viewBox="0 0 718.703 198.063">
  <g id="グループ_1924" data-name="グループ 1924" transform="translate(-629.348 -450.088)">
    <g id="グループ_1922" data-name="グループ 1922">
      <path id="Icon_awesome-long-arrow-alt-right" data-name="Icon awesome-long-arrow-alt-right" d="M96.571,31.823H3.691A3.691,3.691,0,0,0,0,35.515V52.741a3.691,3.691,0,0,0,3.691,3.691h92.88V70.6a7.383,7.383,0,0,0,12.6,5.22l26.472-26.472a7.382,7.382,0,0,0,0-10.441L109.174,12.435a7.383,7.383,0,0,0-12.6,5.22Z" transform="translate(901 516.424)" fill="#528e44"/>
      <g id="グループ_1851" data-name="グループ 1851" transform="translate(-37.494 33.104)">
        <g id="グループ_106" data-name="グループ 106" transform="translate(666.842 460.877)">
          <path id="パス_121" data-name="パス 121" d="M2873.5,1366.338a19.09,19.09,0,1,1-19.1,19.095A19.1,19.1,0,0,1,2873.5,1366.338Z" transform="translate(-2782.676 -1366.338)" fill="#59944c"/>
          <path id="パス_122" data-name="パス 122" d="M2876.934,1366.338a17.182,17.182,0,1,1-17.172,17.182A17.17,17.17,0,0,1,2876.934,1366.338Z" transform="translate(-2729.116 -1366.338)" fill="#59944c"/>
          <path id="パス_123" data-name="パス 123" d="M2894.424,1414.669h-30.9v-22.825h-6.348v22.825h-9.294v-21.527a22.8,22.8,0,0,1,22.759-22.781H2892.8a22.58,22.58,0,0,1,14.518,5.313,31.884,31.884,0,0,0-12.892,25.585Zm82.249,10.856h-11.058v-25.672h-6.356v25.672h-41.6v-25.672h-6.348v25.672H2900.76V1401.26a25.68,25.68,0,0,1,25.654-25.652h24.616a25.686,25.686,0,0,1,25.644,25.652Zm52.863-10.856h-9.306v-22.825h-6.344v22.825h-30.9V1401.26a31.916,31.916,0,0,0-12.878-25.6,22.67,22.67,0,0,1,14.541-5.3h22.131a22.8,22.8,0,0,1,22.758,22.781Z" transform="translate(-2847.885 -1326.109)" fill="#59944c"/>
          <path id="パス_124" data-name="パス 124" d="M2866.569,1366.338a17.182,17.182,0,1,1-17.17,17.182A17.191,17.191,0,0,1,2866.569,1366.338Z" transform="translate(-2832.756 -1366.338)" fill="#59944c"/>
        </g>
        <text id="不動産賃貸会社" transform="translate(757.093 609.047)" fill="#59944c" font-size="25" font-family="HiraginoSans-W6, Hiragino Sans" letter-spacing="-0.001em"><tspan x="-87.425" y="0">不動産賃貸会社</tspan></text>
      </g>
      <g id="グループ_1921" data-name="グループ 1921">
        <g id="グループ_1854" data-name="グループ 1854" transform="translate(-13 12.202)">
          <g id="グループ_1852" data-name="グループ 1852" transform="translate(1121.323 436.274)">
            <g id="グループ_1822" data-name="グループ 1822" transform="translate(0 54.98)">
              <g id="グループ_1796" data-name="グループ 1796" transform="translate(0 0)">
                <g id="グループ_1791" data-name="グループ 1791">
                  <path id="パス_2735" data-name="パス 2735" d="M2995.921,2069.548l-1.409-.765a18.674,18.674,0,1,0-33.529-1.414l-1.466.643a20.273,20.273,0,1,1,36.4,1.536Z" transform="translate(-2957.818 -2039.605)" fill="#528e44" stroke="#528e44" stroke-width="2"/>
                </g>
                <g id="グループ_1792" data-name="グループ 1792" transform="translate(9.612)">
                  <path id="パス_2736" data-name="パス 2736" d="M2982.03,2068.34l-1.559-.371a34.74,34.74,0,0,0,.913-8.089c0-10.125-4.153-18.675-9.064-18.675s-9.057,8.549-9.057,18.675a37.083,37.083,0,0,0,.2,3.846l-1.592.16a39.511,39.511,0,0,1-.205-4.006c0-11.366,4.684-20.276,10.659-20.276s10.666,8.91,10.666,20.276A36.442,36.442,0,0,1,2982.03,2068.34Z" transform="translate(-2961.66 -2039.605)" fill="#528e44" stroke="#528e44" stroke-width="2"/>
                </g>
                <g id="グループ_1793" data-name="グループ 1793" transform="translate(6.745 5.307)">
                  <path id="パス_2737" data-name="パス 2737" d="M2974.042,2048.1a20.213,20.213,0,0,1-13.525-5.176l1.068-1.194a18.653,18.653,0,0,0,24.559.315l1.039,1.223A20.3,20.3,0,0,1,2974.042,2048.1Z" transform="translate(-2960.516 -2041.726)" fill="#528e44" stroke="#528e44" stroke-width="2"/>
                </g>
                <g id="グループ_1794" data-name="グループ 1794" transform="translate(0.802 19.474)">
                  <rect id="長方形_1286" data-name="長方形 1286" width="38.946" height="1.603" fill="#528e44" stroke="#528e44" stroke-width="2"/>
                </g>
                <g id="グループ_1795" data-name="グループ 1795" transform="translate(19.474 0.8)">
                  <rect id="長方形_1287" data-name="長方形 1287" width="1.598" height="23.847" fill="#528e44" stroke="#528e44" stroke-width="2"/>
                </g>
              </g>
              <g id="グループ_1802" data-name="グループ 1802" transform="translate(0 10.493)">
                <g id="グループ_1797" data-name="グループ 1797">
                  <path id="パス_2738" data-name="パス 2738" d="M2978.089,2073.74a20.279,20.279,0,0,1-17.821-29.941l1.4.763a18.676,18.676,0,1,0,35.1,8.9,18.487,18.487,0,0,0-1.568-7.491l1.468-.64a20.277,20.277,0,0,1-18.577,28.407Z" transform="translate(-2957.818 -2043.799)" fill="#528e44" stroke="#528e44" stroke-width="2"/>
                </g>
                <g id="グループ_1798" data-name="グループ 1798" transform="translate(9.612 1.201)">
                  <path id="パス_2739" data-name="パス 2739" d="M2972.319,2073.019c-5.975,0-10.659-8.9-10.659-20.277a36.79,36.79,0,0,1,.954-8.464l1.556.375a35.036,35.036,0,0,0-.908,8.089c0,10.121,4.146,18.675,9.057,18.675s9.064-8.554,9.064-18.675a38.084,38.084,0,0,0-.195-3.845l1.591-.163a39.918,39.918,0,0,1,.2,4.008C2982.985,2064.115,2978.3,2073.019,2972.319,2073.019Z" transform="translate(-2961.66 -2044.279)" fill="#528e44" stroke="#528e44" stroke-width="2"/>
                </g>
                <g id="グループ_1799" data-name="グループ 1799" transform="translate(7.138 18.267)">
                  <path id="パス_2740" data-name="パス 2740" d="M2986.264,2057.467a18.669,18.669,0,0,0-24.553-.32l-1.038-1.219a20.272,20.272,0,0,1,26.663.347Z" transform="translate(-2960.672 -2051.1)" fill="#528e44" stroke="#528e44" stroke-width="2"/>
                </g>
                <g id="グループ_1800" data-name="グループ 1800" transform="translate(0.802 8.862)">
                  <rect id="長方形_1288" data-name="長方形 1288" width="38.946" height="1.603" fill="#528e44" stroke="#528e44" stroke-width="2"/>
                </g>
                <g id="グループ_1801" data-name="グループ 1801" transform="translate(19.474 5.292)">
                  <rect id="長方形_1289" data-name="長方形 1289" width="1.598" height="23.849" fill="#528e44" stroke="#528e44" stroke-width="2"/>
                </g>
              </g>
            </g>
          </g>
        </g>
        <g id="グループ_1863" data-name="グループ 1863" transform="translate(735.236 -665.861)">
          <path id="パス_2756" data-name="パス 2756" d="M502.133,1121.005a18.574,18.574,0,0,0-12.609-5.056h-.433a18.566,18.566,0,0,0-12.6,5.056,16.654,16.654,0,0,0-5.434,12.124,19.388,19.388,0,0,0,4.147,11.479c2.169,3.078,4.494,5.084,5.2,7.283a33.078,33.078,0,0,1,.636,3.687c.226.667.047.578.906.948a54.538,54.538,0,0,0,14.736,0c.862-.369.681-.276.909-.942a31.164,31.164,0,0,1,.636-3.693c.705-2.2,3.034-4.2,5.2-7.28a19.424,19.424,0,0,0,4.147-11.479A16.649,16.649,0,0,0,502.133,1121.005Z" transform="translate(0 0)" fill="#528e44"/>
          <rect id="長方形_1300" data-name="長方形 1300" width="15.709" height="2.131" transform="translate(481.456 1159.138)" fill="#528e44"/>
          <rect id="長方形_1301" data-name="長方形 1301" width="15.709" height="2.128" transform="translate(481.456 1163.163)" fill="#528e44"/>
          <rect id="長方形_1302" data-name="長方形 1302" width="15.709" height="2.131" transform="translate(481.456 1167.186)" fill="#528e44"/>
        </g>
        <g id="グループ_1866" data-name="グループ 1866" transform="translate(358.418 -343.656)">
          <g id="グループ_1864" data-name="グループ 1864">
            <ellipse id="楕円形_241" data-name="楕円形 241" cx="3.488" cy="1.77" rx="3.488" ry="1.77" transform="translate(963.353 853.656)" fill="#5c9453"/>
            <path id="パス_2757" data-name="パス 2757" d="M989.128,887.211c.169,0,.337-.006.505-.013v-21.85c-.168-.008-.336-.013-.505-.013a10.938,10.938,0,0,0,0,21.876Z" fill="#5c9453"/>
            <rect id="長方形_1303" data-name="長方形 1303" width="25.632" height="12.073" transform="translate(962.166 870.643)" fill="#5c9453"/>
            <path id="パス_2758" data-name="パス 2758" d="M974.335,876.68c0,5.576-3.521,8.2-7.864,8.2s-7.863-2.626-7.863-8.2,3.521-10.1,7.863-10.1S974.335,871.1,974.335,876.68Z" fill="#5c9453"/>
            <rect id="長方形_1304" data-name="長方形 1304" width="5.884" height="14.96" transform="translate(963.529 857.887)" fill="#5c9453"/>
            <path id="パス_2759" data-name="パス 2759" d="M972.418,868.218H960.55a2.075,2.075,0,0,1-2.07-2.069h0a2.076,2.076,0,0,1,2.07-2.07h11.868a2.077,2.077,0,0,1,2.07,2.07h0A2.076,2.076,0,0,1,972.418,868.218Z" fill="#5c9453"/>
            <path id="パス_2760" data-name="パス 2760" d="M973.168,860.975H959.613a2.4,2.4,0,0,1-2.363-2.364h0a2.911,2.911,0,0,1,2.35-2.752,48.722,48.722,0,0,1,13.581,0,2.911,2.911,0,0,1,2.35,2.752h0A2.4,2.4,0,0,1,973.168,860.975Z" fill="#5c9453"/>
            <ellipse id="楕円形_242" data-name="楕円形 242" cx="3.688" cy="3.83" rx="3.688" ry="3.83" transform="translate(954.599 854.349)" fill="#5c9453"/>
            <ellipse id="楕円形_243" data-name="楕円形 243" cx="3.688" cy="3.83" rx="3.688" ry="3.83" transform="translate(971.309 854.349)" fill="#5c9453"/>
            <path id="パス_2761" data-name="パス 2761" d="M947.65,892.51s-2.119-18.608,13.758-16.433" fill="#5c9453" stroke="#5c9453" stroke-miterlimit="10" stroke-width="9.176"/>
            <path id="パス_2762" data-name="パス 2762" d="M953.641,893.754c.012,1.582-2.685,2.046-6.014,2.07s-6.033-.4-6.045-1.981,2.679-2.885,6.008-2.909S953.629,892.172,953.641,893.754Z" fill="#5c9453"/>
            <path id="パス_2763" data-name="パス 2763" d="M948.505,879.047s1.777-5.917,10.271-5.53" fill="#5c9453" stroke="#fff" stroke-linecap="round" stroke-miterlimit="10" stroke-width="1.398"/>
          </g>
          <g id="グループ_1865" data-name="グループ 1865">
            <path id="パス_2764" data-name="パス 2764" d="M952.52,907.863c0,3.171-2.222,5.742-4.964,5.742s-4.965-2.571-4.965-5.742,4.965-10.78,4.965-10.78S952.52,904.692,952.52,907.863Z" fill="#5c9453"/>
            <path id="パス_2765" data-name="パス 2765" d="M944.606,909.124a3.427,3.427,0,0,0,2.95,3.153" fill="#5c9453" stroke="#fff" stroke-linecap="round" stroke-linejoin="round" stroke-width="1.116"/>
          </g>
        </g>
        <g id="グループ_1867" data-name="グループ 1867" transform="translate(626.603 22.081)">
          <path id="パス_2766" data-name="パス 2766" d="M536.7,612.493a13.577,13.577,0,1,1-27.154,0c0-7.5,13.577-32.954,13.577-32.954S536.7,604.994,536.7,612.493Z" transform="translate(0)" fill="#528e44"/>
          <path id="パス_2767" data-name="パス 2767" d="M555.189,696.209a9.758,9.758,0,0,1-19.513,0c0-5.3,9.756-23.283,9.756-23.283S555.189,690.911,555.189,696.209Z" transform="translate(-22.308 -79.732)" fill="#fff"/>
          <path id="パス_2768" data-name="パス 2768" d="M568.954,752.537a6.912,6.912,0,1,1-13.824,0c0-3.817,6.912-16.776,6.912-16.776S568.954,748.719,568.954,752.537Z" transform="translate(-38.918 -133.379)" fill="#528e44"/>
        </g>
        <path id="パス_2769" data-name="パス 2769" d="M734.387,492.926s-19.247,28.867.043,29.076c0,0,18.237.679-.043-29.076" transform="translate(541.969 112.421)" fill="#528e44"/>
        <path id="パス_2770" data-name="パス 2770" d="M731.931,492.926s-13.713,20.567.031,20.716c0,0,12.993.484-.031-20.716" transform="translate(558.646 134.508)" fill="#528e44"/>
        <path id="パス_2771" data-name="パス 2771" d="M734.974,492.926S714.4,523.777,735.02,524c0,0,19.49.726-.046-31.075" transform="translate(570.527 100.884)" fill="#528e44"/>
      </g>
    </g>
    <g id="グループ_1923" data-name="グループ 1923" transform="translate(1130.476 436.24)">
      <g id="ロゴタイプ_英_" data-name="ロゴタイプ（英）" transform="translate(74.325 121.625)">
        <path id="パス_2789" data-name="パス 2789" d="M259.94,188.2v-3.646a3.072,3.072,0,0,0-3.078-3.078h-4.617a.981.981,0,0,1-.687-.261.834.834,0,0,1-.284-.639v-.923a.872.872,0,0,1,.284-.651.957.957,0,0,1,.687-.272h5.706a1.577,1.577,0,0,0,1.172-.5,1.636,1.636,0,0,0,.486-1.184,1.56,1.56,0,0,0-.486-1.16,1.618,1.618,0,0,0-1.172-.474h-7.1a3.071,3.071,0,0,0-3.077,3.055v3.054a3.071,3.071,0,0,0,3.077,3.078h4.618a.983.983,0,0,1,.686.26.835.835,0,0,1,.284.64v1.539a.869.869,0,0,1-.284.651.957.957,0,0,1-.686.272h-6.132a1.657,1.657,0,1,0,0,3.315h7.529a3.072,3.072,0,0,0,3.078-3.079Z" transform="translate(-247.675 -175.151)" fill="#5c9453"/>
        <path id="パス_2790" data-name="パス 2790" d="M332.986,189.573a1.326,1.326,0,0,0-.047-.5l-3.055-12.17a2.585,2.585,0,0,0-.864-1.374,2.273,2.273,0,0,0-1.5-.545h-3.172a2.319,2.319,0,0,0-1.516.545,2.426,2.426,0,0,0-.852,1.374l-3.078,12.17a1.289,1.289,0,0,0-.048.5,1.616,1.616,0,0,0,.58,1.148,1.7,1.7,0,0,0,1.267.414,1.579,1.579,0,0,0,1.634-1.278l.971-4.025a.573.573,0,0,1,.616-.474h4a.574.574,0,0,1,.616.474l.97,4.025a1.6,1.6,0,0,0,1.633,1.278,1.736,1.736,0,0,0,1.279-.414A1.524,1.524,0,0,0,332.986,189.573Zm-5.493-7.979a.356.356,0,0,1-.4.4h-2.32a.355.355,0,0,1-.4-.4v-.1l.71-2.842a.355.355,0,0,1,.379-.307h.947a.356.356,0,0,1,.379.307l.687,2.842A.22.22,0,0,1,327.493,181.594Z" transform="translate(-302.959 -174.821)" fill="#5c9453"/>
        <path id="パス_2791" data-name="パス 2791" d="M410.523,181.639v-2.154a4.081,4.081,0,0,0-4.1-4.073h-6.156a1.821,1.821,0,0,0-1.291.5,1.592,1.592,0,0,0-.532,1.207v12.739a1.56,1.56,0,0,0,.509,1.172,1.836,1.836,0,0,0,2.486,0,1.56,1.56,0,0,0,.509-1.172v-3.693q0-.45.5-.45h3.978a4.081,4.081,0,0,0,4.1-4.073Zm-3.5-.806a1.45,1.45,0,0,1-.474,1.09,1.6,1.6,0,0,1-1.137.45h-2.959q-.5,0-.5-.474v-2.7q0-.473.5-.473h2.959a1.591,1.591,0,0,1,1.137.45,1.446,1.446,0,0,1,.474,1.089Z" transform="translate(-364.793 -175.151)" fill="#5c9453"/>
        <path id="パス_2792" data-name="パス 2792" d="M480.536,186.873v-7.458a4.2,4.2,0,0,0-4.215-4.215h-3.339a4.2,4.2,0,0,0-4.214,4.215v7.458a4.2,4.2,0,0,0,4.214,4.215h3.339a4.2,4.2,0,0,0,4.215-4.215Zm-3.5-.331a1.171,1.171,0,0,1-.367.876,1.262,1.262,0,0,1-.912.355h-2.2a1.271,1.271,0,0,1-.9-.355,1.154,1.154,0,0,1-.379-.876v-6.795a1.168,1.168,0,0,1,.379-.864,1.248,1.248,0,0,1,.9-.367h2.2a1.239,1.239,0,0,1,.912.367,1.185,1.185,0,0,1,.367.864Z" transform="translate(-419.417 -174.987)" fill="#5c9453"/>
        <path id="パス_2793" data-name="パス 2793" d="M548.862,188.688a1.636,1.636,0,0,0-.486-1.183,1.579,1.579,0,0,0-1.172-.5h-5.279a.628.628,0,0,1-.71-.711V175.9a1.559,1.559,0,0,0-.509-1.172,1.833,1.833,0,0,0-2.486,0,1.558,1.558,0,0,0-.51,1.172v11.6a2.832,2.832,0,0,0,2.842,2.842H547.2a1.659,1.659,0,0,0,1.658-1.658Z" transform="translate(-472.97 -174.245)" fill="#5c9453"/>
      </g>
      <g id="ロゴタイプ_カナ_" data-name="ロゴタイプ（カナ）" transform="translate(92.857 137.986)">
        <path id="パス_2794" data-name="パス 2794" d="M355.284,260.146a.667.667,0,0,0-.2-.481.639.639,0,0,0-.476-.2h-.279c-.128,0-.194-.061-.194-.183v-.471a.634.634,0,0,0-.207-.477.748.748,0,0,0-1.011,0,.635.635,0,0,0-.206.477v.471c0,.122-.067.183-.2.183h-1.954c-.129,0-.192-.061-.192-.183v-.433a.681.681,0,0,0-.212-.5.709.709,0,0,0-1.212.5v.433c0,.122-.067.183-.2.183h-.28a.639.639,0,0,0-.476.2.665.665,0,0,0-.2.481.674.674,0,0,0,.673.674h.28c.135,0,.2.063.2.192v.626a.712.712,0,0,0,1.424,0v-.626a.169.169,0,0,1,.192-.192h1.954c.134,0,.2.063.2.192v1.973a.35.35,0,0,1-.12.266.4.4,0,0,1-.284.11h-1.886a.678.678,0,0,0,0,1.357H352.8a1.329,1.329,0,0,0,1.337-1.329v-2.377a.17.17,0,0,1,.194-.192h.279a.674.674,0,0,0,.673-.674Z" transform="translate(-347.788 -257.68)" fill="#5c9453"/>
        <g id="グループ_1886" data-name="グループ 1886" transform="translate(9.394)">
          <g id="グループ_1885" data-name="グループ 1885" transform="translate(0 0.244)">
            <path id="パス_2795" data-name="パス 2795" d="M393.537,259.021a.647.647,0,0,0-.2-.476.661.661,0,0,0-.485-.2h-1.876a.17.17,0,0,1-.193-.192v-.231a.621.621,0,0,0-.207-.468.747.747,0,0,0-1.01,0,.627.627,0,0,0-.206.468v.231c0,.127-.068.192-.2.192h-1.867a.674.674,0,0,0,0,1.348h1.867c.135,0,.2.063.2.191v3.456a.712.712,0,0,0,1.424,0v-3.456a.169.169,0,0,1,.193-.191h1.876a.667.667,0,0,0,.481-.2A.641.641,0,0,0,393.537,259.021Z" transform="translate(-386.619 -257.26)" fill="#5c9453"/>
            <path id="パス_2796" data-name="パス 2796" d="M388.861,270.852a.818.818,0,0,0,.048-.279.655.655,0,0,0-.434-.654.7.7,0,0,0-.279-.058.649.649,0,0,0-.644.432l-.877,2.05a.71.71,0,0,0-.057.28.649.649,0,0,0,.432.644.7.7,0,0,0,.279.058.655.655,0,0,0,.654-.422Z" transform="translate(-386.619 -266.813)" fill="#5c9453"/>
            <path id="パス_2797" data-name="パス 2797" d="M407.987,272.343l-.866-2.05a.659.659,0,0,0-.655-.432.7.7,0,0,0-.279.058.654.654,0,0,0-.433.654.7.7,0,0,0,.057.279l.867,2.05a.656.656,0,0,0,.654.422.7.7,0,0,0,.279-.058.649.649,0,0,0,.432-.644A.711.711,0,0,0,407.987,272.343Z" transform="translate(-401.125 -266.813)" fill="#5c9453"/>
          </g>
          <path id="パス_2798" data-name="パス 2798" d="M408.59,258.077a.912.912,0,1,1,.912-.912A.913.913,0,0,1,408.59,258.077Zm0-1.336a.424.424,0,1,0,.425.424A.425.425,0,0,0,408.59,256.74Z" transform="translate(-402.584 -256.253)" fill="#5c9453"/>
        </g>
        <path id="パス_2799" data-name="パス 2799" d="M429.809,269.677a.662.662,0,0,0-.2-.486.651.651,0,0,0-.476-.2h-5.4a.653.653,0,0,0-.478.2.662.662,0,0,0-.2.486.673.673,0,0,0,.675.674h5.4a.674.674,0,0,0,.673-.674Z" transform="translate(-404.853 -265.913)" fill="#5c9453"/>
        <g id="グループ_1887" data-name="グループ 1887" transform="translate(26.853 0.352)">
          <path id="パス_2800" data-name="パス 2800" d="M460.864,258.517a.684.684,0,0,0-.144-.529.674.674,0,0,0-.482-.26.681.681,0,0,0-.52.139.694.694,0,0,0-.269.477l-.654,5.263a.7.7,0,0,0,.149.52.685.685,0,0,0,.476.269.66.66,0,0,0,.52-.145.691.691,0,0,0,.269-.471Z" transform="translate(-458.792 -257.718)" fill="#5c9453"/>
          <path id="パス_2801" data-name="パス 2801" d="M474.864,262.954v-2.089a.623.623,0,0,0-.206-.466.745.745,0,0,0-1.011,0,.623.623,0,0,0-.207.466v1.694a.35.35,0,0,1-.116.264.387.387,0,0,1-.278.111h-.607a.178.178,0,0,1-.2-.2v-4.31a.712.712,0,1,0-1.424,0v5.186a.65.65,0,0,0,.2.477.659.659,0,0,0,.486.2h2.03a1.331,1.331,0,0,0,1.337-1.328Z" transform="translate(-467.905 -257.71)" fill="#5c9453"/>
        </g>
      </g>
      <g id="ロゴマーク" transform="translate(33.888 112.879)">
        <g id="目" transform="translate(15.196 10.896)">
          <path id="パス_2802" data-name="パス 2802" d="M121.506,182.589c.464,0,.841-.845.841-1.888s-.376-1.888-.841-1.888-.841.845-.841,1.888S121.041,182.589,121.506,182.589Z" transform="translate(-120.665 -178.163)" fill="#5c9453"/>
          <path id="パス_2803" data-name="パス 2803" d="M154.417,178.879c.464,0,.841-.845.841-1.888s-.376-1.888-.841-1.888-.84.845-.84,1.888S153.953,178.879,154.417,178.879Z" transform="translate(-147.814 -175.103)" fill="#5c9453"/>
        </g>
        <path id="取手" d="M121.5,213.072a1.19,1.19,0,0,0-.207-1.2c-.328-.417-.456-.617-.459-.621a.671.671,0,0,0-1.139.71c.014.023.141.223.465.643a1.2,1.2,0,0,1-.29.074l-6.643.931a1.772,1.772,0,0,1-1.42-.362l-.591-.849a.672.672,0,1,0-1.1.768l.592.849a2.813,2.813,0,0,0,2.247.955,3.35,3.35,0,0,0,.461-.032l6.643-.931A1.71,1.71,0,0,0,121.5,213.072Z" transform="translate(-96.663 -193.762)" fill="#5c9453"/>
        <path id="パス_2804" data-name="パス 2804" d="M66.723,128.831c-.007-1.675-.975-3.028-2.161-3.024a1.593,1.593,0,0,0-.718.181v-9.353a4.234,4.234,0,0,0-4.169-3.756H38.057a4.173,4.173,0,0,0-4.169,4.169v24.7a4.173,4.173,0,0,0,4.169,4.169H40.21a3.706,3.706,0,0,0,4.145,2.641l15.5-2.214a4.792,4.792,0,0,0,3.986-4.6V136.3a4.759,4.759,0,0,0,1.43-1.582,4.013,4.013,0,0,0,.245-3.153A3.3,3.3,0,0,0,66.723,128.831Zm-5.042,12.922a2.59,2.59,0,0,1-2.129,2.455l-15.5,2.215-.118.017.118-.017a1.573,1.573,0,0,1-1.823-1.582v-24.7a2.59,2.59,0,0,1,2.129-2.455l15.5-2.215a1.563,1.563,0,0,1,1.824,1.581v19.317a16.516,16.516,0,0,1-3.887.952.912.912,0,0,0-.98-.635l-3.444.4a.916.916,0,0,0-.8,1.017l.084.718a.916.916,0,0,0,.909.81.942.942,0,0,0,.108-.006l3.443-.4a.915.915,0,0,0,.8-.941,18.534,18.534,0,0,0,3.765-.874Zm-17.86,4.7.059-.009Zm20.6-12.2a3.354,3.354,0,0,1-.573.765v-3.336a1.6,1.6,0,0,0,.743.186h.01A3.06,3.06,0,0,1,64.417,134.256Z" transform="translate(-33.888 -112.879)" fill="#5c9453"/>
      </g>
    </g>
  </g>
</svg>
