<svg xmlns="http://www.w3.org/2000/svg" width="767.442" height="97.552" viewBox="0 0 767.442 97.552">
  <g id="グループ_1905" data-name="グループ 1905" transform="translate(-541 -483.448)">
    <g id="グループ_107" data-name="グループ 107" transform="translate(-143 34.042)">
      <g id="グループ_106" data-name="グループ 106" transform="translate(684 453.731)">
        <path id="パス_121" data-name="パス 121" d="M2867.418,1366.338a13.008,13.008,0,1,1-13.012,13.011A13.015,13.015,0,0,1,2867.418,1366.338Z" transform="translate(-2805.53 -1366.338)" fill="#59944c"/>
        <path id="パス_122" data-name="パス 122" d="M2871.463,1366.338a11.708,11.708,0,1,1-11.7,11.708A11.7,11.7,0,0,1,2871.463,1366.338Z" transform="translate(-2770.741 -1366.338)" fill="#59944c"/>
        <path id="パス_123" data-name="パス 123" d="M2879.6,1400.552h-21.053V1385h-4.326v15.553h-6.333v-14.668a15.536,15.536,0,0,1,15.508-15.522h15.1a15.386,15.386,0,0,1,9.893,3.62,21.726,21.726,0,0,0-8.784,17.434Zm56.044,7.4h-7.535v-17.493h-4.332v17.493h-28.347v-17.493H2891.1v17.493h-7.188v-16.534a17.5,17.5,0,0,1,17.48-17.479h16.773a17.5,17.5,0,0,1,17.474,17.479Zm36.02-7.4h-6.341V1385H2961v15.553h-21.056v-9.137a21.748,21.748,0,0,0-8.775-17.442,15.445,15.445,0,0,1,9.907-3.613h15.08a15.536,15.536,0,0,1,15.507,15.522Z" transform="translate(-2847.886 -1340.208)" fill="#59944c"/>
        <path id="パス_124" data-name="パス 124" d="M2861.1,1366.338a11.708,11.708,0,1,1-11.7,11.708A11.714,11.714,0,0,1,2861.1,1366.338Z" transform="translate(-2838.059 -1366.338)" fill="#59944c"/>
      </g>
      <path id="パス_125" data-name="パス 125" d="M474.836,1578.819v80.552h30.552v-11.192H515.58v11.192h11.142v-80.552Zm29.383,8.864h12.529v12.534H504.22Zm-19.421,0h12.534v12.534H484.8Zm12.534,52.281v1.621H484.8v-12.538h12.534Zm0-20.693v1.627H484.8v-12.535h12.534Zm19.422,20.693v1.621H504.22v-12.538h12.534Zm0-20.693v1.627H504.22v-12.535h12.534Z" transform="translate(883.721 -1129.412)" fill="#59944c"/>
      <path id="パス_2748" data-name="パス 2748" d="M474.836,1578.82v47.315h17.946v-6.574h5.986v6.574h6.544V1578.82Zm17.259,5.207h7.359v7.362H492.1Zm-11.408,0h7.362v7.362h-7.362Zm7.362,30.709v.952h-7.362v-7.365h7.362Zm0-12.155v.956h-7.362v-7.363h7.362Zm11.408,12.155v.952H492.1v-7.365h7.362Zm0-12.155v.956H492.1v-7.363h7.362Z" transform="translate(946.13 -1096.176)" fill="#59944c"/>
      <path id="Icon_awesome-arrows-alt-h" data-name="Icon awesome-arrows-alt-h" d="M37.824,12.665v4.61H13.417v-4.61a2.4,2.4,0,0,0-4.1-1.7L.7,19.579a2.4,2.4,0,0,0,0,3.4l8.613,8.613a2.4,2.4,0,0,0,4.1-1.7V25.281H37.824v4.61a2.4,2.4,0,0,0,4.1,1.7l8.613-8.613a2.4,2.4,0,0,0,0-3.4l-8.613-8.613a2.4,2.4,0,0,0-4.1,1.7Z" transform="translate(1238.996 472.386)" fill="#59944c"/>
      <path id="Icon_awesome-arrows-alt-h-2" data-name="Icon awesome-arrows-alt-h" d="M37.824,12.665v4.61H13.417v-4.61a2.4,2.4,0,0,0-4.1-1.7L.7,19.579a2.4,2.4,0,0,0,0,3.4l8.613,8.613a2.4,2.4,0,0,0,4.1-1.7V25.281H37.824v4.61a2.4,2.4,0,0,0,4.1,1.7l8.613-8.613a2.4,2.4,0,0,0,0-3.4l-8.613-8.613a2.4,2.4,0,0,0-4.1,1.7Z" transform="translate(867.502 472.386)" fill="#59944c"/>
      <text id="紹介手配" transform="translate(1266.996 544.958)" fill="#59944c" font-size="14" font-family="HiraginoSans-W6, Hiragino Sans" letter-spacing="-0.001em"><tspan x="-27.979" y="0">紹介手配</tspan></text>
      <text id="情報_生活支援" data-name="情報・生活支援" transform="translate(893.122 542.516)" fill="#59944c" font-size="15" font-family="HiraginoSans-W6, Hiragino Sans" letter-spacing="-0.001em"><tspan x="-52.455" y="0">情報・生活支援</tspan></text>
    </g>
    <g id="グループ_1904" data-name="グループ 1904" transform="translate(791.941 374.833)">
      <g id="ロゴタイプ_英_" data-name="ロゴタイプ（英）" transform="translate(127.184 139.659)">
        <path id="パス_2789" data-name="パス 2789" d="M271.653,200.407V193.28a6.006,6.006,0,0,0-6.018-6.017h-9.027a1.918,1.918,0,0,1-1.342-.51,1.631,1.631,0,0,1-.556-1.249V183.7a1.7,1.7,0,0,1,.556-1.273,1.871,1.871,0,0,1,1.342-.532h11.156a3.083,3.083,0,0,0,2.291-.972,3.2,3.2,0,0,0,.95-2.315,3.05,3.05,0,0,0-.95-2.268,3.162,3.162,0,0,0-2.291-.926H253.877a6,6,0,0,0-6.016,5.972v5.972a6,6,0,0,0,6.016,6.017H262.9a1.921,1.921,0,0,1,1.342.509,1.632,1.632,0,0,1,.556,1.25v3.009a1.7,1.7,0,0,1-.556,1.273,1.871,1.871,0,0,1-1.342.532H250.916a3.24,3.24,0,1,0,0,6.481h14.72a6.006,6.006,0,0,0,6.018-6.019Z" transform="translate(-247.675 -174.902)" fill="#4ca223"/>
        <path id="パス_2790" data-name="パス 2790" d="M346.491,203.5a2.592,2.592,0,0,0-.092-.972l-5.972-23.793a5.054,5.054,0,0,0-1.689-2.686,4.444,4.444,0,0,0-2.939-1.065h-6.2a4.534,4.534,0,0,0-2.963,1.065,4.744,4.744,0,0,0-1.666,2.686l-6.018,23.793a2.52,2.52,0,0,0-.093.972,3.159,3.159,0,0,0,1.134,2.245,3.314,3.314,0,0,0,2.477.81,3.087,3.087,0,0,0,3.194-2.5l1.9-7.869a1.12,1.12,0,0,1,1.2-.927h7.823a1.122,1.122,0,0,1,1.2.927l1.9,7.869a3.132,3.132,0,0,0,3.193,2.5,3.4,3.4,0,0,0,2.5-.81A2.98,2.98,0,0,0,346.491,203.5Zm-10.739-15.6a.7.7,0,0,1-.787.786h-4.536a.7.7,0,0,1-.787-.786v-.186l1.389-5.556a.7.7,0,0,1,.74-.6h1.852a.7.7,0,0,1,.741.6l1.343,5.556A.431.431,0,0,1,335.753,187.9Z" transform="translate(-287.786 -174.663)" fill="#4ca223"/>
        <path id="パス_2791" data-name="パス 2791" d="M422.055,187.587v-4.212a7.979,7.979,0,0,0-8.008-7.963H402.012a3.56,3.56,0,0,0-2.524.973,3.112,3.112,0,0,0-1.04,2.36V203.65a3.051,3.051,0,0,0,.995,2.291,3.589,3.589,0,0,0,4.86,0,3.049,3.049,0,0,0,1-2.291v-7.221q0-.88.973-.88h7.777a7.979,7.979,0,0,0,8.008-7.963Zm-6.849-1.575a2.834,2.834,0,0,1-.927,2.131,3.118,3.118,0,0,1-2.222.879h-5.785q-.972,0-.973-.927v-5.276q0-.926.973-.926h5.785a3.111,3.111,0,0,1,2.222.88,2.828,2.828,0,0,1,.927,2.129Z" transform="translate(-332.651 -174.902)" fill="#4ca223"/>
        <path id="パス_2792" data-name="パス 2792" d="M491.775,198.021v-14.58a8.219,8.219,0,0,0-8.24-8.241h-6.528a8.219,8.219,0,0,0-8.239,8.241v14.58a8.219,8.219,0,0,0,8.239,8.241h6.528a8.219,8.219,0,0,0,8.24-8.241Zm-6.852-.648a2.29,2.29,0,0,1-.717,1.713,2.467,2.467,0,0,1-1.783.694h-4.3a2.486,2.486,0,0,1-1.759-.694,2.256,2.256,0,0,1-.741-1.713V184.089a2.283,2.283,0,0,1,.741-1.69,2.441,2.441,0,0,1,1.759-.718h4.3a2.422,2.422,0,0,1,1.783.718,2.317,2.317,0,0,1,.717,1.69Z" transform="translate(-372.284 -174.783)" fill="#4ca223"/>
        <path id="パス_2793" data-name="パス 2793" d="M559.514,202.481a3.2,3.2,0,0,0-.95-2.313,3.089,3.089,0,0,0-2.292-.971H545.95a1.227,1.227,0,0,1-1.389-1.389V177.486a3.049,3.049,0,0,0-1-2.291,3.583,3.583,0,0,0-4.86,0,3.047,3.047,0,0,0-1,2.291v22.682a5.537,5.537,0,0,0,5.556,5.556h13.007a3.243,3.243,0,0,0,3.242-3.242Z" transform="translate(-411.139 -174.245)" fill="#4ca223"/>
      </g>
      <g id="ロゴタイプ_カナ_" data-name="ロゴタイプ（カナ）" transform="translate(170.873 175.447)">
        <path id="パス_2794" data-name="パス 2794" d="M361.31,261.763a1.2,1.2,0,0,0-.356-.868,1.153,1.153,0,0,0-.859-.365h-.5c-.232,0-.349-.111-.349-.331v-.849a1.144,1.144,0,0,0-.373-.861,1.349,1.349,0,0,0-1.824,0,1.145,1.145,0,0,0-.372.861v.849c0,.22-.121.331-.363.331h-3.524c-.233,0-.347-.111-.347-.331v-.781a1.228,1.228,0,0,0-.383-.91,1.279,1.279,0,0,0-2.186.91v.781c0,.22-.12.331-.364.331H349a1.153,1.153,0,0,0-.859.365,1.2,1.2,0,0,0-.356.868A1.215,1.215,0,0,0,349,262.978h.5c.244,0,.364.114.364.346v1.129a1.285,1.285,0,0,0,2.569,0v-1.129a.305.305,0,0,1,.347-.346h3.524c.243,0,.363.114.363.346v3.559a.631.631,0,0,1-.217.479.73.73,0,0,1-.512.2h-3.4a1.224,1.224,0,0,0,0,2.448h4.287a2.4,2.4,0,0,0,2.413-2.4v-4.287a.307.307,0,0,1,.349-.346h.5a1.216,1.216,0,0,0,1.215-1.215Z" transform="translate(-347.788 -257.314)" fill="#4ca223"/>
        <g id="グループ_1886" data-name="グループ 1886" transform="translate(16.946)">
          <g id="グループ_1885" data-name="グループ 1885" transform="translate(0 0.439)">
            <path id="パス_2795" data-name="パス 2795" d="M399.1,260.436a1.167,1.167,0,0,0-.355-.859,1.192,1.192,0,0,0-.875-.356h-3.385a.307.307,0,0,1-.348-.346v-.416a1.121,1.121,0,0,0-.374-.844,1.348,1.348,0,0,0-1.822,0,1.131,1.131,0,0,0-.372.844v.416c0,.23-.123.346-.366.346h-3.369a1.216,1.216,0,0,0,0,2.432H391.2c.243,0,.366.114.366.344v6.234a1.284,1.284,0,0,0,2.569,0V262a.305.305,0,0,1,.348-.344h3.385a1.2,1.2,0,0,0,.868-.358A1.156,1.156,0,0,0,399.1,260.436Z" transform="translate(-386.619 -257.26)" fill="#4ca223"/>
            <path id="パス_2796" data-name="パス 2796" d="M390.664,271.649a1.478,1.478,0,0,0,.087-.5,1.181,1.181,0,0,0-.782-1.18,1.256,1.256,0,0,0-.5-.1,1.171,1.171,0,0,0-1.162.779l-1.582,3.7a1.281,1.281,0,0,0-.1.5,1.17,1.17,0,0,0,.78,1.163,1.253,1.253,0,0,0,.5.1,1.182,1.182,0,0,0,1.18-.762Z" transform="translate(-386.619 -264.363)" fill="#4ca223"/>
            <path id="パス_2797" data-name="パス 2797" d="M409.782,274.339l-1.562-3.7a1.188,1.188,0,0,0-1.181-.779,1.262,1.262,0,0,0-.5.1,1.181,1.181,0,0,0-.781,1.18,1.269,1.269,0,0,0,.1.5l1.564,3.7a1.184,1.184,0,0,0,1.18.762,1.255,1.255,0,0,0,.5-.1,1.171,1.171,0,0,0,.78-1.163A1.282,1.282,0,0,0,409.782,274.339Z" transform="translate(-397.404 -264.363)" fill="#4ca223"/>
          </g>
          <path id="パス_2798" data-name="パス 2798" d="M409.323,259.543a1.645,1.645,0,1,1,1.645-1.645A1.647,1.647,0,0,1,409.323,259.543Zm0-2.411a.765.765,0,1,0,.766.765A.767.767,0,0,0,409.323,257.132Z" transform="translate(-398.488 -256.253)" fill="#4ca223"/>
        </g>
        <path id="パス_2799" data-name="パス 2799" d="M435.232,270.226a1.193,1.193,0,0,0-.357-.876,1.174,1.174,0,0,0-.858-.354H424.28a1.177,1.177,0,0,0-.862.354,1.2,1.2,0,0,0-.355.876,1.214,1.214,0,0,0,1.217,1.215h9.737a1.217,1.217,0,0,0,1.215-1.215Z" transform="translate(-390.213 -263.434)" fill="#4ca223"/>
        <g id="グループ_1887" data-name="グループ 1887" transform="translate(48.442 0.636)">
          <path id="パス_2800" data-name="パス 2800" d="M462.531,259.156a1.234,1.234,0,0,0-.259-.954,1.216,1.216,0,0,0-.869-.469,1.229,1.229,0,0,0-.938.25,1.252,1.252,0,0,0-.486.861l-1.18,9.495a1.27,1.27,0,0,0,.268.938,1.236,1.236,0,0,0,.859.486,1.191,1.191,0,0,0,.937-.261,1.247,1.247,0,0,0,.486-.851Z" transform="translate(-458.792 -257.716)" fill="#4ca223"/>
          <path id="パス_2801" data-name="パス 2801" d="M478.12,267.171V263.4a1.123,1.123,0,0,0-.371-.84,1.345,1.345,0,0,0-1.824,0,1.125,1.125,0,0,0-.373.84v3.057a.632.632,0,0,1-.209.477.7.7,0,0,1-.5.2h-1.094a.322.322,0,0,1-.365-.365V259a1.284,1.284,0,1,0-2.568,0v9.355a1.173,1.173,0,0,0,.356.861,1.189,1.189,0,0,0,.876.355h3.663a2.4,2.4,0,0,0,2.412-2.4Z" transform="translate(-465.567 -257.71)" fill="#4ca223"/>
        </g>
      </g>
      <g id="ロゴマーク" transform="translate(33.888 112.879)">
        <g id="目" transform="translate(37.869 27.154)">
          <path id="パス_2802" data-name="パス 2802" d="M122.76,188.224c1.157,0,2.095-2.106,2.095-4.705s-.937-4.706-2.095-4.706-2.1,2.106-2.1,4.706S121.6,188.224,122.76,188.224Z" transform="translate(-120.665 -177.194)" fill="#4ca223"/>
          <path id="パス_2803" data-name="パス 2803" d="M155.67,184.513c1.157,0,2.1-2.106,2.1-4.7s-.938-4.706-2.1-4.706-2.093,2.107-2.093,4.706S154.514,184.513,155.67,184.513Z" transform="translate(-139.214 -175.103)" fill="#4ca223"/>
        </g>
        <path id="取手" d="M138.665,216.264a2.967,2.967,0,0,0-.515-3c-.818-1.04-1.136-1.537-1.143-1.549a1.673,1.673,0,0,0-2.839,1.77c.036.058.352.557,1.16,1.6a3,3,0,0,1-.723.185l-16.556,2.319a4.415,4.415,0,0,1-3.54-.9l-1.474-2.116a1.673,1.673,0,1,0-2.746,1.913l1.475,2.116c1.008,1.446,3.286,2.38,5.6,2.38a8.353,8.353,0,0,0,1.148-.079l16.555-2.319A4.261,4.261,0,0,0,138.665,216.264Z" transform="translate(-76.779 -168.142)" fill="#4ca223"/>
        <path id="パス_2804" data-name="パス 2804" d="M115.715,152.631c-.018-4.174-2.429-7.547-5.386-7.535a3.971,3.971,0,0,0-1.79.45V122.238a10.55,10.55,0,0,0-10.39-9.359H44.278a10.4,10.4,0,0,0-10.39,10.39v61.566a10.4,10.4,0,0,0,10.39,10.388h5.366A9.235,9.235,0,0,0,59.972,201.8l38.633-5.518a11.942,11.942,0,0,0,9.933-11.452V171.241A11.861,11.861,0,0,0,112.1,167.3a10,10,0,0,0,.61-7.856C114.5,158.212,115.728,155.626,115.715,152.631Zm-12.564,32.2a6.455,6.455,0,0,1-5.3,6.117l-38.635,5.52-.294.043.294-.043a3.919,3.919,0,0,1-4.544-3.942V130.964a6.453,6.453,0,0,1,5.305-6.117l38.633-5.519a3.9,3.9,0,0,1,4.545,3.941v48.139a41.16,41.16,0,0,1-9.687,2.373,2.272,2.272,0,0,0-2.441-1.582l-8.583,1a2.282,2.282,0,0,0-2,2.534l.209,1.789a2.282,2.282,0,0,0,2.266,2.02,2.348,2.348,0,0,0,.269-.016l8.581-1.005a2.279,2.279,0,0,0,2-2.345A46.188,46.188,0,0,0,103.15,174Zm-44.509,11.72.147-.021Zm51.325-30.4a8.359,8.359,0,0,1-1.428,1.905v-8.312a3.986,3.986,0,0,0,1.852.465l.025,0A7.625,7.625,0,0,1,109.967,166.151Z" transform="translate(-33.888 -112.879)" fill="#4ca223"/>
      </g>
    </g>
  </g>
</svg>
