<svg xmlns="http://www.w3.org/2000/svg" width="242.715" height="401.665" viewBox="0 0 242.715 401.665">
  <g id="グループ_1961" data-name="グループ 1961" transform="translate(-73.401 -311.849)">
    <g id="グループ_1905" data-name="グループ 1905" transform="translate(-515.851 -156)">
      <g id="グループ_107" data-name="グループ 107" transform="translate(645.578 496.522)">
        <g id="グループ_106" data-name="グループ 106" transform="translate(-56.326 313)">
          <path id="パス_121" data-name="パス 121" d="M2865.93,1366.338a11.52,11.52,0,1,1-11.523,11.523A11.526,11.526,0,0,1,2865.93,1366.338Z" transform="translate(-2811.121 -1366.338)" fill="#59944c"/>
          <path id="パス_122" data-name="パス 122" d="M2870.124,1366.338a10.368,10.368,0,1,1-10.362,10.369A10.362,10.362,0,0,1,2870.124,1366.338Z" transform="translate(-2780.925 -1366.338)" fill="#59944c"/>
          <path id="パス_123" data-name="パス 123" d="M2875.969,1397.1h-18.644v-13.774h-3.831V1397.1h-5.608v-12.99a13.758,13.758,0,0,1,13.734-13.747h13.368a13.626,13.626,0,0,1,8.761,3.206,19.24,19.24,0,0,0-7.78,15.439Zm49.633,6.551h-6.673v-15.492h-3.836v15.492h-25.1v-15.492h-3.831v15.492h-6.365v-14.643a15.5,15.5,0,0,1,15.481-15.479h14.854a15.5,15.5,0,0,1,15.475,15.479Zm31.9-6.551h-5.616v-13.774h-3.828V1397.1h-18.647v-8.092a19.259,19.259,0,0,0-7.771-15.446,13.678,13.678,0,0,1,8.774-3.2h13.355a13.758,13.758,0,0,1,13.733,13.747Z" transform="translate(-2847.886 -1343.657)" fill="#59944c"/>
          <path id="パス_124" data-name="パス 124" d="M2859.76,1366.338a10.368,10.368,0,1,1-10.361,10.369A10.374,10.374,0,0,1,2859.76,1366.338Z" transform="translate(-2839.356 -1366.338)" fill="#59944c"/>
        </g>
        <path id="パス_125" data-name="パス 125" d="M474.836,1578.819v80.241h30.434v-11.149h10.152v11.149h11.1v-80.241Zm29.27,8.83h12.481v12.486H504.106Zm-19.346,0h12.486v12.486H484.76Zm12.486,52.08v1.614H484.76v-12.49h12.486Zm0-20.613v1.621H484.76v-12.486h12.486Zm19.347,20.613v1.614H504.106v-12.49h12.486Zm0-20.613v1.621H504.106v-12.486h12.486Z" transform="translate(-522.068 -1607.493)" fill="#59944c"/>
        <path id="パス_2748" data-name="パス 2748" d="M474.836,1578.82v47.132h17.877V1619.4h5.963v6.549H505.2V1578.82Zm17.193,5.187h7.331v7.334h-7.331Zm-11.364,0H488v7.334h-7.334ZM488,1614.6v.948h-7.334v-7.337H488Zm0-12.108v.952h-7.334v-7.334H488Zm11.364,12.108v.948h-7.334v-7.337h7.334Zm0-12.108v.952h-7.334v-7.334h7.334Z" transform="translate(-457.965 -1574.384)" fill="#59944c"/>
        <text id="引っ越し業者" transform="translate(128.872 349.496)" fill="#59944c" font-size="16" font-family="HiraginoSans-W6, Hiragino Sans"><tspan x="-48" y="0">引っ越し業者</tspan></text>
        <text id="不動産賃貸会社" transform="translate(130.389 37.496)" fill="#59944c" font-size="16" font-family="HiraginoSans-W6, Hiragino Sans"><tspan x="-56" y="0">不動産賃貸会社</tspan></text>
      </g>
      <g id="グループ_1904" data-name="グループ 1904" transform="translate(612.851 641.281)">
        <g id="ロゴタイプ_英_" data-name="ロゴタイプ（英）" transform="translate(69.739 20.018)">
          <path id="パス_2789" data-name="パス 2789" d="M265.6,194.1v-5.328a4.49,4.49,0,0,0-4.5-4.5h-6.748a1.433,1.433,0,0,1-1-.381,1.219,1.219,0,0,1-.415-.934v-1.35a1.274,1.274,0,0,1,.415-.952,1.4,1.4,0,0,1,1-.4h8.339a2.3,2.3,0,0,0,1.713-.727,2.391,2.391,0,0,0,.71-1.731,2.28,2.28,0,0,0-.71-1.7,2.364,2.364,0,0,0-1.713-.693H252.311a4.488,4.488,0,0,0-4.5,4.464v4.464a4.488,4.488,0,0,0,4.5,4.5h6.748a1.436,1.436,0,0,1,1,.38,1.22,1.22,0,0,1,.415.935V192.4a1.27,1.27,0,0,1-.415.952,1.4,1.4,0,0,1-1,.4H250.1a2.422,2.422,0,1,0,0,4.844h11a4.49,4.49,0,0,0,4.5-4.5Z" transform="translate(-247.675 -175.031)" fill="#4ca223"/>
          <path id="パス_2790" data-name="パス 2790" d="M339.511,196.3a1.937,1.937,0,0,0-.069-.726l-4.464-17.785a3.778,3.778,0,0,0-1.263-2.008,3.322,3.322,0,0,0-2.2-.8h-4.636a3.389,3.389,0,0,0-2.215.8,3.546,3.546,0,0,0-1.245,2.008l-4.5,17.785a1.884,1.884,0,0,0-.07.726,2.362,2.362,0,0,0,.848,1.678,2.477,2.477,0,0,0,1.851.605,2.308,2.308,0,0,0,2.388-1.868l1.419-5.882a.837.837,0,0,1,.9-.693h5.848a.838.838,0,0,1,.9.693l1.418,5.882a2.341,2.341,0,0,0,2.387,1.868,2.538,2.538,0,0,0,1.87-.605A2.228,2.228,0,0,0,339.511,196.3Zm-8.027-11.661a.52.52,0,0,1-.589.588H327.5a.519.519,0,0,1-.588-.588V184.5l1.038-4.153a.519.519,0,0,1,.553-.449h1.384a.52.52,0,0,1,.554.449l1,4.153A.322.322,0,0,1,331.483,184.642Z" transform="translate(-295.629 -174.745)" fill="#4ca223"/>
          <path id="パス_2791" data-name="パス 2791" d="M416.094,184.512v-3.149a5.964,5.964,0,0,0-5.986-5.953h-9a2.661,2.661,0,0,0-1.886.727,2.326,2.326,0,0,0-.777,1.764V196.52a2.281,2.281,0,0,0,.743,1.713,2.683,2.683,0,0,0,3.633,0,2.279,2.279,0,0,0,.744-1.713v-5.4q0-.658.727-.658h5.813a5.964,5.964,0,0,0,5.986-5.952Zm-5.12-1.177a2.119,2.119,0,0,1-.693,1.593,2.331,2.331,0,0,1-1.661.657H404.3q-.727,0-.727-.693v-3.944q0-.692.727-.692h4.325a2.325,2.325,0,0,1,1.661.658,2.114,2.114,0,0,1,.693,1.592Z" transform="translate(-349.265 -175.031)" fill="#4ca223"/>
          <path id="パス_2792" data-name="パス 2792" d="M485.965,192.259v-10.9a6.143,6.143,0,0,0-6.159-6.16h-4.88a6.144,6.144,0,0,0-6.159,6.16v10.9a6.144,6.144,0,0,0,6.159,6.16h4.88a6.143,6.143,0,0,0,6.159-6.16Zm-5.122-.484a1.711,1.711,0,0,1-.536,1.281,1.844,1.844,0,0,1-1.333.519h-3.217a1.858,1.858,0,0,1-1.315-.519,1.686,1.686,0,0,1-.554-1.281v-9.93a1.707,1.707,0,0,1,.554-1.263,1.824,1.824,0,0,1,1.315-.537h3.217a1.81,1.81,0,0,1,1.333.537,1.732,1.732,0,0,1,.536,1.263Z" transform="translate(-396.646 -174.888)" fill="#4ca223"/>
          <path id="パス_2793" data-name="パス 2793" d="M554.008,195.352a2.391,2.391,0,0,0-.71-1.729,2.309,2.309,0,0,0-1.713-.726h-7.715a.917.917,0,0,1-1.038-1.039v-15.19a2.279,2.279,0,0,0-.744-1.713,2.679,2.679,0,0,0-3.633,0,2.277,2.277,0,0,0-.745,1.713v16.955a4.139,4.139,0,0,0,4.153,4.153h9.723a2.424,2.424,0,0,0,2.423-2.424Z" transform="translate(-443.098 -174.245)" fill="#4ca223"/>
        </g>
        <g id="ロゴタイプ_カナ_" data-name="ロゴタイプ（カナ）" transform="translate(102.396 46.77)">
          <path id="パス_2794" data-name="パス 2794" d="M357.9,260.847a.9.9,0,0,0-.266-.649.862.862,0,0,0-.642-.273h-.376c-.173,0-.261-.083-.261-.247v-.635a.855.855,0,0,0-.279-.644,1.009,1.009,0,0,0-1.363,0,.856.856,0,0,0-.278.644v.635c0,.164-.09.247-.272.247h-2.634c-.174,0-.259-.083-.259-.247v-.584a.918.918,0,0,0-.286-.68.956.956,0,0,0-1.634.68v.584c0,.164-.09.247-.272.247H348.7a.862.862,0,0,0-.642.273.9.9,0,0,0-.266.649.908.908,0,0,0,.908.908h.377c.182,0,.272.085.272.259v.844a.96.96,0,0,0,1.92,0v-.844a.228.228,0,0,1,.259-.259h2.634c.181,0,.272.085.272.259v2.661a.472.472,0,0,1-.162.358.545.545,0,0,1-.383.148h-2.543a.915.915,0,0,0,0,1.83h3.2a1.793,1.793,0,0,0,1.8-1.792v-3.2a.23.23,0,0,1,.261-.259h.376a.909.909,0,0,0,.908-.908Z" transform="translate(-347.788 -257.521)" fill="#4ca223"/>
          <g id="グループ_1886" data-name="グループ 1886" transform="translate(12.667)">
            <g id="グループ_1885" data-name="グループ 1885" transform="translate(0 0.328)">
              <path id="パス_2795" data-name="パス 2795" d="M395.948,259.634a.872.872,0,0,0-.266-.642.891.891,0,0,0-.654-.266H392.5a.229.229,0,0,1-.26-.259v-.311a.838.838,0,0,0-.28-.631,1.007,1.007,0,0,0-1.362,0,.846.846,0,0,0-.278.631v.311c0,.172-.092.259-.273.259h-2.518a.909.909,0,0,0,0,1.818h2.518c.181,0,.273.085.273.257v4.66a.96.96,0,0,0,1.92,0V260.8a.228.228,0,0,1,.26-.257h2.53a.9.9,0,0,0,.649-.268A.864.864,0,0,0,395.948,259.634Z" transform="translate(-386.619 -257.26)" fill="#4ca223"/>
              <path id="パス_2796" data-name="パス 2796" d="M389.642,271.2a1.105,1.105,0,0,0,.065-.376.883.883,0,0,0-.585-.882.939.939,0,0,0-.376-.078.876.876,0,0,0-.868.582l-1.182,2.764a.958.958,0,0,0-.077.377.875.875,0,0,0,.583.869.937.937,0,0,0,.376.078.884.884,0,0,0,.882-.57Z" transform="translate(-386.619 -265.751)" fill="#4ca223"/>
              <path id="パス_2797" data-name="パス 2797" d="M408.765,273.208l-1.168-2.764a.888.888,0,0,0-.883-.582.943.943,0,0,0-.376.078.882.882,0,0,0-.584.882.949.949,0,0,0,.077.376L407,273.962a.885.885,0,0,0,.882.57.938.938,0,0,0,.376-.078.875.875,0,0,0,.583-.869A.958.958,0,0,0,408.765,273.208Z" transform="translate(-399.512 -265.751)" fill="#4ca223"/>
            </g>
            <path id="パス_2798" data-name="パス 2798" d="M408.908,258.712a1.23,1.23,0,1,1,1.229-1.23A1.231,1.231,0,0,1,408.908,258.712Zm0-1.8a.572.572,0,1,0,.573.572A.573.573,0,0,0,408.908,256.91Z" transform="translate(-400.808 -256.253)" fill="#4ca223"/>
          </g>
          <path id="パス_2799" data-name="パス 2799" d="M432.159,269.915a.892.892,0,0,0-.267-.655.878.878,0,0,0-.641-.265h-7.279a.88.88,0,0,0-.644.265.894.894,0,0,0-.266.655.908.908,0,0,0,.91.909h7.279a.909.909,0,0,0,.908-.909Z" transform="translate(-398.508 -264.839)" fill="#4ca223"/>
          <g id="グループ_1887" data-name="グループ 1887" transform="translate(36.21 0.475)">
            <path id="パス_2800" data-name="パス 2800" d="M461.587,258.794a.923.923,0,0,0-.194-.714.909.909,0,0,0-.65-.35.919.919,0,0,0-.7.187.936.936,0,0,0-.363.644l-.882,7.1a.949.949,0,0,0,.2.7.924.924,0,0,0,.642.363.89.89,0,0,0,.7-.2.932.932,0,0,0,.363-.636Z" transform="translate(-458.792 -257.717)" fill="#4ca223"/>
            <path id="パス_2801" data-name="パス 2801" d="M476.275,264.782v-2.817a.84.84,0,0,0-.278-.628,1.005,1.005,0,0,0-1.364,0,.841.841,0,0,0-.279.628v2.285a.472.472,0,0,1-.157.357.522.522,0,0,1-.375.149h-.818a.241.241,0,0,1-.273-.273v-5.812a.96.96,0,1,0-1.92,0v6.993a.877.877,0,0,0,.266.644.889.889,0,0,0,.655.265h2.738a1.795,1.795,0,0,0,1.8-1.79Z" transform="translate(-466.892 -257.71)" fill="#4ca223"/>
          </g>
        </g>
        <g id="ロゴマーク">
          <g id="目" transform="translate(28.307 20.298)">
            <path id="パス_2802" data-name="パス 2802" d="M122.231,185.848c.865,0,1.566-1.574,1.566-3.517s-.7-3.517-1.566-3.517-1.566,1.574-1.566,3.517S121.365,185.848,122.231,185.848Z" transform="translate(-120.665 -177.603)" fill="#4ca223"/>
            <path id="パス_2803" data-name="パス 2803" d="M155.142,182.137c.865,0,1.566-1.575,1.566-3.517s-.7-3.518-1.566-3.518-1.565,1.575-1.565,3.518S154.278,182.137,155.142,182.137Z" transform="translate(-142.841 -175.103)" fill="#4ca223"/>
          </g>
          <path id="取手" d="M131.425,214.918a2.218,2.218,0,0,0-.385-2.24c-.612-.777-.849-1.149-.854-1.158a1.25,1.25,0,0,0-2.122,1.323c.027.043.263.416.867,1.2a2.244,2.244,0,0,1-.541.138l-12.375,1.733a3.3,3.3,0,0,1-2.646-.674l-1.1-1.581a1.251,1.251,0,1,0-2.053,1.43l1.1,1.582a5.24,5.24,0,0,0,4.186,1.779,6.245,6.245,0,0,0,.858-.059l12.375-1.733A3.185,3.185,0,0,0,131.425,214.918Z" transform="translate(-85.165 -178.947)" fill="#4ca223"/>
          <path id="パス_2804" data-name="パス 2804" d="M95.053,142.594c-.013-3.12-1.816-5.641-4.026-5.632a2.968,2.968,0,0,0-1.338.337V119.875a7.886,7.886,0,0,0-7.767-7H41.654a7.774,7.774,0,0,0-7.766,7.766v46.021a7.774,7.774,0,0,0,7.766,7.765h4.011a6.9,6.9,0,0,0,7.721,4.919l28.878-4.125a8.926,8.926,0,0,0,7.425-8.56V156.5a8.866,8.866,0,0,0,2.664-2.947,7.476,7.476,0,0,0,.456-5.873A6.142,6.142,0,0,0,95.053,142.594Zm-9.392,24.072a4.825,4.825,0,0,1-3.965,4.573l-28.879,4.126-.22.032.22-.032a2.93,2.93,0,0,1-3.4-2.947V126.4a4.824,4.824,0,0,1,3.966-4.573L82.264,117.7a2.911,2.911,0,0,1,3.4,2.946V156.63a30.767,30.767,0,0,1-7.241,1.774,1.7,1.7,0,0,0-1.825-1.183l-6.416.751a1.706,1.706,0,0,0-1.5,1.894l.156,1.337a1.706,1.706,0,0,0,1.694,1.51,1.756,1.756,0,0,0,.2-.012l6.415-.751a1.7,1.7,0,0,0,1.5-1.753,34.525,34.525,0,0,0,7.013-1.628Zm-33.27,8.761.11-.016ZM90.757,152.7a6.248,6.248,0,0,1-1.067,1.424v-6.214a2.98,2.98,0,0,0,1.384.347h.019A5.7,5.7,0,0,1,90.757,152.7Z" transform="translate(-33.888 -112.879)" fill="#4ca223"/>
        </g>
      </g>
    </g>
    <path id="Icon_awesome-long-arrow-alt-right" data-name="Icon awesome-long-arrow-alt-right" d="M38.422,18.838H1.469A1.469,1.469,0,0,0,0,20.307V27.16a1.469,1.469,0,0,0,1.469,1.469H38.422v5.637a2.937,2.937,0,0,0,5.014,2.077L53.969,25.811a2.937,2.937,0,0,0,0-4.154L43.436,11.124A2.937,2.937,0,0,0,38.422,13.2Z" transform="translate(211.234 421.942) rotate(90)" fill="#528e44"/>
    <path id="Icon_awesome-long-arrow-alt-right-2" data-name="Icon awesome-long-arrow-alt-right" d="M38.422,18.838H1.469A1.469,1.469,0,0,0,0,20.307V27.16a1.469,1.469,0,0,0,1.469,1.469H38.422v5.637a2.937,2.937,0,0,0,5.014,2.077L53.969,25.811a2.937,2.937,0,0,0,0-4.154L43.436,11.124A2.937,2.937,0,0,0,38.422,13.2Z" transform="translate(211.234 562.942) rotate(90)" fill="#528e44"/>
  </g>
</svg>
