<svg xmlns="http://www.w3.org/2000/svg" width="193.001" height="266.657" viewBox="0 0 193.001 266.657">
  <g id="グループ_1970" data-name="グループ 1970" transform="translate(-96.999 -284.849)">
    <path id="Icon_awesome-long-arrow-alt-right" data-name="Icon awesome-long-arrow-alt-right" d="M37.938,18.73H1.45A1.45,1.45,0,0,0,0,20.18v6.767A1.45,1.45,0,0,0,1.45,28.4H37.938v5.566a2.9,2.9,0,0,0,4.951,2.051l10.4-10.4a2.9,2.9,0,0,0,0-4.1l-10.4-10.4a2.9,2.9,0,0,0-4.951,2.051Z" transform="translate(210.87 419.56) rotate(90)" fill="#528e44"/>
    <g id="グループ_1851" data-name="グループ 1851" transform="translate(-572.093 -196.984)">
      <text id="不動産賃貸会社" transform="translate(759.093 590.047)" fill="#59944c" font-size="15" font-family="HiraginoSans-W6, Hiragino Sans"><tspan x="-52.5" y="0">不動産賃貸会社</tspan></text>
      <path id="パス_125" data-name="パス 125" d="M474.836,1578.819v80.241h30.434v-11.149h10.152v11.149h11.1v-80.241Zm29.27,8.83h12.481v12.486H504.106Zm-19.346,0h12.486v12.486H484.76Zm12.486,52.08v1.614H484.76v-12.49h12.486Zm0-20.613v1.621H484.76v-12.486h12.486Zm19.347,20.613v1.614H504.106v-12.49h12.486Zm0-20.613v1.621H504.106v-12.486h12.486Z" transform="translate(238.927 -1096.987)" fill="#59944c"/>
      <path id="パス_2748" data-name="パス 2748" d="M474.836,1578.82v47.132h17.877V1619.4h5.963v6.549H505.2V1578.82Zm17.193,5.187h7.331v7.334h-7.331Zm-11.364,0H488v7.334h-7.334ZM488,1614.6v.948h-7.334v-7.337H488Zm0-12.108v.952h-7.334v-7.334H488Zm11.364,12.108v.948h-7.334v-7.337h7.334Zm0-12.108v.952h-7.334v-7.334h7.334Z" transform="translate(303.029 -1063.878)" fill="#59944c"/>
    </g>
    <g id="グループ_1923" data-name="グループ 1923" transform="translate(96.999 492.238)">
      <g id="ロゴタイプ_英_" data-name="ロゴタイプ（英）" transform="translate(67.089 14.511)">
        <path id="パス_2789" data-name="パス 2789" d="M268.023,196.623v-6.048a5.1,5.1,0,0,0-5.106-5.106h-7.661a1.627,1.627,0,0,1-1.139-.433,1.384,1.384,0,0,1-.471-1.06v-1.532a1.446,1.446,0,0,1,.471-1.081,1.587,1.587,0,0,1,1.139-.451h9.467a2.616,2.616,0,0,0,1.944-.825,2.714,2.714,0,0,0,.806-1.965,2.588,2.588,0,0,0-.806-1.925,2.683,2.683,0,0,0-1.944-.786H252.938a5.1,5.1,0,0,0-5.105,5.068v5.068a5.1,5.1,0,0,0,5.105,5.106H260.6a1.63,1.63,0,0,1,1.139.432,1.385,1.385,0,0,1,.471,1.061V194.7a1.442,1.442,0,0,1-.471,1.081,1.588,1.588,0,0,1-1.139.451H250.425a2.75,2.75,0,1,0,0,5.5h12.492a5.1,5.1,0,0,0,5.106-5.108Z" transform="translate(-247.675 -174.979)" fill="#4ca223"/>
        <path id="パス_2790" data-name="パス 2790" d="M342.306,199.186a2.2,2.2,0,0,0-.078-.825L337.16,178.17a4.288,4.288,0,0,0-1.434-2.279,3.771,3.771,0,0,0-2.494-.9h-5.263a3.848,3.848,0,0,0-2.515.9,4.025,4.025,0,0,0-1.414,2.279l-5.107,20.191a2.139,2.139,0,0,0-.079.825,2.681,2.681,0,0,0,.963,1.9,2.812,2.812,0,0,0,2.1.687,2.62,2.62,0,0,0,2.711-2.121l1.611-6.677a.951.951,0,0,1,1.021-.787H333.9a.952.952,0,0,1,1.021.787l1.61,6.677a2.658,2.658,0,0,0,2.71,2.121,2.881,2.881,0,0,0,2.123-.687A2.529,2.529,0,0,0,342.306,199.186Zm-9.113-13.238a.59.59,0,0,1-.668.667h-3.849a.59.59,0,0,1-.668-.667v-.158l1.178-4.715a.589.589,0,0,1,.628-.51h1.572a.59.59,0,0,1,.628.51l1.139,4.715A.366.366,0,0,1,333.193,185.948Z" transform="translate(-292.488 -174.712)" fill="#4ca223"/>
        <path id="パス_2791" data-name="パス 2791" d="M418.481,185.743v-3.574a6.771,6.771,0,0,0-6.8-6.758H401.472a3.022,3.022,0,0,0-2.142.826,2.641,2.641,0,0,0-.882,2v21.135a2.589,2.589,0,0,0,.844,1.944,3.046,3.046,0,0,0,4.124,0,2.588,2.588,0,0,0,.845-1.944v-6.128q0-.747.825-.747h6.6a6.771,6.771,0,0,0,6.8-6.757Zm-5.812-1.337a2.4,2.4,0,0,1-.787,1.808,2.646,2.646,0,0,1-1.886.746h-4.909q-.825,0-.825-.787V181.7q0-.785.825-.785H410a2.64,2.64,0,0,1,1.886.747,2.4,2.4,0,0,1,.787,1.807Z" transform="translate(-342.612 -174.979)" fill="#4ca223"/>
        <path id="パス_2792" data-name="パス 2792" d="M488.292,194.566V182.194A6.975,6.975,0,0,0,481.3,175.2h-5.54a6.974,6.974,0,0,0-6.992,6.994v12.373a6.974,6.974,0,0,0,6.992,6.993h5.54a6.975,6.975,0,0,0,6.992-6.993Zm-5.815-.55a1.943,1.943,0,0,1-.608,1.454,2.093,2.093,0,0,1-1.513.589H476.7a2.109,2.109,0,0,1-1.493-.589,1.914,1.914,0,0,1-.629-1.454V182.743a1.937,1.937,0,0,1,.629-1.434,2.071,2.071,0,0,1,1.493-.609h3.653a2.055,2.055,0,0,1,1.513.609,1.966,1.966,0,0,1,.608,1.434Z" transform="translate(-386.891 -174.846)" fill="#4ca223"/>
        <path id="パス_2793" data-name="パス 2793" d="M556.212,198.206a2.714,2.714,0,0,0-.806-1.963,2.621,2.621,0,0,0-1.945-.824H544.7a1.042,1.042,0,0,1-1.179-1.179V177a2.587,2.587,0,0,0-.845-1.944,3.041,3.041,0,0,0-4.124,0,2.586,2.586,0,0,0-.846,1.944v19.248a4.7,4.7,0,0,0,4.715,4.715h11.038a2.752,2.752,0,0,0,2.751-2.752Z" transform="translate(-430.301 -174.245)" fill="#4ca223"/>
      </g>
      <g id="ロゴタイプ_カナ_" data-name="ロゴタイプ（カナ）" transform="translate(97.834 41.655)">
        <path id="パス_2794" data-name="パス 2794" d="M360.224,261.471a1.106,1.106,0,0,0-.327-.8,1.061,1.061,0,0,0-.79-.336h-.463c-.213,0-.321-.1-.321-.3v-.781a1.052,1.052,0,0,0-.343-.792,1.241,1.241,0,0,0-1.677,0,1.053,1.053,0,0,0-.342.792v.781c0,.2-.111.3-.334.3h-3.241c-.214,0-.319-.1-.319-.3v-.718a1.129,1.129,0,0,0-.352-.837,1.176,1.176,0,0,0-2.01.837v.718c0,.2-.111.3-.335.3H348.9a1.061,1.061,0,0,0-.79.336,1.1,1.1,0,0,0-.327.8,1.118,1.118,0,0,0,1.117,1.118h.464c.224,0,.335.105.335.318v1.038a1.181,1.181,0,0,0,2.363,0v-1.038a.281.281,0,0,1,.319-.318h3.241c.223,0,.334.105.334.318v3.273a.581.581,0,0,1-.2.441.672.672,0,0,1-.471.182h-3.129a1.126,1.126,0,0,0,0,2.251H356.1a2.205,2.205,0,0,0,2.219-2.2v-3.943a.283.283,0,0,1,.321-.318h.463a1.118,1.118,0,0,0,1.117-1.118Z" transform="translate(-347.788 -257.38)" fill="#4ca223"/>
        <g id="グループ_1886" data-name="グループ 1886" transform="translate(15.585)">
          <g id="グループ_1885" data-name="グループ 1885" transform="translate(0 0.404)">
            <path id="パス_2795" data-name="パス 2795" d="M398.1,260.181a1.073,1.073,0,0,0-.327-.79,1.1,1.1,0,0,0-.805-.328h-3.113a.282.282,0,0,1-.32-.318v-.383a1.031,1.031,0,0,0-.344-.776,1.24,1.24,0,0,0-1.676,0,1.041,1.041,0,0,0-.342.776v.383c0,.212-.113.318-.336.318h-3.1a1.119,1.119,0,0,0,0,2.237h3.1c.223,0,.336.105.336.317v5.733a1.181,1.181,0,0,0,2.362,0v-5.733a.281.281,0,0,1,.32-.317h3.113a1.107,1.107,0,0,0,.8-.329A1.063,1.063,0,0,0,398.1,260.181Z" transform="translate(-386.619 -257.26)" fill="#4ca223"/>
            <path id="パス_2796" data-name="パス 2796" d="M390.339,271.505a1.355,1.355,0,0,0,.08-.463,1.087,1.087,0,0,0-.72-1.085,1.157,1.157,0,0,0-.462-.1,1.077,1.077,0,0,0-1.068.716l-1.455,3.4a1.179,1.179,0,0,0-.094.464,1.076,1.076,0,0,0,.718,1.069,1.154,1.154,0,0,0,.463.1,1.087,1.087,0,0,0,1.085-.7Z" transform="translate(-386.619 -264.804)" fill="#4ca223"/>
            <path id="パス_2797" data-name="パス 2797" d="M409.458,273.979l-1.437-3.4a1.093,1.093,0,0,0-1.087-.716,1.161,1.161,0,0,0-.463.1,1.086,1.086,0,0,0-.718,1.085,1.169,1.169,0,0,0,.094.463l1.439,3.4a1.088,1.088,0,0,0,1.085.7,1.155,1.155,0,0,0,.463-.1,1.077,1.077,0,0,0,.717-1.069A1.179,1.179,0,0,0,409.458,273.979Z" transform="translate(-398.074 -264.804)" fill="#4ca223"/>
          </g>
          <path id="パス_2798" data-name="パス 2798" d="M409.191,259.279a1.513,1.513,0,1,1,1.513-1.513A1.515,1.515,0,0,1,409.191,259.279Zm0-2.217a.7.7,0,1,0,.7.7A.7.7,0,0,0,409.191,257.062Z" transform="translate(-399.226 -256.253)" fill="#4ca223"/>
        </g>
        <path id="パス_2799" data-name="パス 2799" d="M434.255,270.127a1.1,1.1,0,0,0-.328-.806,1.079,1.079,0,0,0-.789-.326h-8.955a1.083,1.083,0,0,0-.793.326,1.1,1.1,0,0,0-.327.806,1.117,1.117,0,0,0,1.119,1.118h8.955a1.119,1.119,0,0,0,1.117-1.118Z" transform="translate(-392.851 -263.881)" fill="#4ca223"/>
        <g id="グループ_1887" data-name="グループ 1887" transform="translate(44.551 0.585)">
          <path id="パス_2800" data-name="パス 2800" d="M462.23,259.041a1.136,1.136,0,0,0-.238-.878,1.119,1.119,0,0,0-.8-.431,1.13,1.13,0,0,0-.862.23,1.151,1.151,0,0,0-.447.792l-1.085,8.732a1.168,1.168,0,0,0,.247.862,1.137,1.137,0,0,0,.79.447,1.1,1.1,0,0,0,.862-.24,1.146,1.146,0,0,0,.447-.782Z" transform="translate(-458.791 -257.717)" fill="#4ca223"/>
          <path id="パス_2801" data-name="パス 2801" d="M477.533,266.411v-3.466a1.033,1.033,0,0,0-.341-.773,1.237,1.237,0,0,0-1.678,0,1.034,1.034,0,0,0-.343.773v2.811a.581.581,0,0,1-.193.439.641.641,0,0,1-.462.183H473.51a.3.3,0,0,1-.335-.335v-7.15a1.181,1.181,0,1,0-2.362,0v8.6a1.078,1.078,0,0,0,.327.792,1.094,1.094,0,0,0,.806.326h3.369a2.208,2.208,0,0,0,2.218-2.2Z" transform="translate(-465.988 -257.71)" fill="#4ca223"/>
        </g>
      </g>
      <g id="ロゴマーク" transform="translate(0 0)">
        <g id="目" transform="translate(25.211 18.078)">
          <path id="パス_2802" data-name="パス 2802" d="M122.06,185.078c.77,0,1.395-1.4,1.395-3.132s-.624-3.133-1.395-3.133-1.395,1.4-1.395,3.133S121.288,185.078,122.06,185.078Z" transform="translate(-120.665 -177.735)" fill="#4ca223"/>
          <path id="パス_2803" data-name="パス 2803" d="M154.971,181.368c.77,0,1.395-1.4,1.395-3.132s-.624-3.133-1.395-3.133-1.394,1.4-1.394,3.133S154.2,181.368,154.971,181.368Z" transform="translate(-144.015 -175.103)" fill="#4ca223"/>
        </g>
        <path id="取手" d="M129.08,214.482a1.975,1.975,0,0,0-.343-2c-.545-.692-.756-1.023-.761-1.031a1.114,1.114,0,0,0-1.89,1.178c.024.039.234.371.772,1.066a2,2,0,0,1-.481.123l-11.022,1.544a2.94,2.94,0,0,1-2.356-.6l-.981-1.409a1.114,1.114,0,1,0-1.828,1.274l.982,1.409a4.667,4.667,0,0,0,3.728,1.585,5.56,5.56,0,0,0,.764-.053l11.022-1.544A2.837,2.837,0,0,0,129.08,214.482Z" transform="translate(-87.88 -182.445)" fill="#4ca223"/>
        <path id="パス_2804" data-name="パス 2804" d="M88.364,139.344c-.012-2.779-1.617-5.024-3.585-5.016a2.643,2.643,0,0,0-1.192.3V119.11a7.024,7.024,0,0,0-6.917-6.231H40.8a6.924,6.924,0,0,0-6.917,6.917v40.988A6.924,6.924,0,0,0,40.8,167.7h3.572a6.148,6.148,0,0,0,6.877,4.381l25.72-3.674a7.95,7.95,0,0,0,6.613-7.624v-9.05a7.9,7.9,0,0,0,2.373-2.625,6.658,6.658,0,0,0,.406-5.23A5.47,5.47,0,0,0,88.364,139.344ZM80,160.783a4.3,4.3,0,0,1-3.532,4.073l-25.721,3.675-.2.029.2-.029a2.609,2.609,0,0,1-3.025-2.624V124.919a4.3,4.3,0,0,1,3.532-4.073l25.72-3.674A2.593,2.593,0,0,1,80,119.8v32.049a27.4,27.4,0,0,1-6.449,1.58,1.512,1.512,0,0,0-1.625-1.053l-5.714.669a1.519,1.519,0,0,0-1.332,1.687l.139,1.191a1.519,1.519,0,0,0,1.509,1.345,1.563,1.563,0,0,0,.179-.01l5.713-.669a1.517,1.517,0,0,0,1.334-1.561A30.749,30.749,0,0,0,80,153.572Zm-29.632,7.8.1-.014Zm34.17-20.241a5.564,5.564,0,0,1-.951,1.268v-5.534a2.655,2.655,0,0,0,1.233.309h.017A5.077,5.077,0,0,1,84.538,148.345Z" transform="translate(-33.888 -112.879)" fill="#4ca223"/>
      </g>
    </g>
  </g>
</svg>
