<svg xmlns="http://www.w3.org/2000/svg" width="775.719" height="127.913" viewBox="0 0 775.719 127.913">
  <g id="グループ_1907" data-name="グループ 1907" transform="translate(-550.282 -454.087)">
    <g id="グループ_119" data-name="グループ 119" transform="translate(-141.416 18.904)">
      <g id="グループ_107" data-name="グループ 107" transform="translate(698.915 435.183)">
        <path id="パス_125" data-name="パス 125" d="M474.836,1578.819v97.351H511.76v-13.527h12.316v13.527h13.465v-97.351Zm35.512,10.713H525.49v15.148H510.348Zm-23.472,0h15.148v15.148H486.876Zm15.148,63.185v1.959H486.876v-15.154h15.148Zm0-25.008v1.967H486.876v-15.149h15.148Zm23.472,25.008v1.959H510.348v-15.154H525.5Zm0-25.008v1.967H510.348v-15.149H525.5Z" transform="translate(-91.691 -1578.819)" fill="#528e44"/>
        <text id="家電レンタル_販売会社" data-name="家電レンタル、販売会社" transform="translate(691.501 125.913)" fill="#59944c" font-size="14" font-family="HiraginoSans-W6, Hiragino Sans" letter-spacing="-0.001em"><tspan x="-76.3" y="0">家電レンタル、販売会社</tspan></text>
        <text id="不動産会社orサポール" transform="translate(415.458 120.817)" fill="#59944c" font-size="14" font-family="HiraginoSans-W6, Hiragino Sans" letter-spacing="-0.001em"><tspan x="-69.72" y="0">不動産会社</tspan><tspan y="0" font-family="Helvetica-Bold, Helvetica" font-weight="700">or</tspan><tspan y="0">サポール</tspan></text>
      </g>
      <path id="Icon_awesome-bed" data-name="Icon awesome-bed" d="M17.955,24.087a8.161,8.161,0,1,0-8.161-8.161A8.171,8.171,0,0,0,17.955,24.087Zm35.91-13.058H31.013a1.632,1.632,0,0,0-1.632,1.632v14.69H6.529V6.132A1.632,1.632,0,0,0,4.9,4.5H1.632A1.632,1.632,0,0,0,0,6.132v35.91a1.632,1.632,0,0,0,1.632,1.632H4.9a1.632,1.632,0,0,0,1.632-1.632v-4.9H58.761v4.9a1.632,1.632,0,0,0,1.632,1.632h3.265a1.632,1.632,0,0,0,1.632-1.632V22.455A11.425,11.425,0,0,0,53.865,11.029Z" transform="translate(1379.897 492.802)" fill="#528e44"/>
      <path id="Icon_map-furniture-store" data-name="Icon map-furniture-store" d="M60.878,7.92H4.049C2.221,7.92.726,9.84.726,11.739s1.5,3.818,3.323,3.818h.8V23.2h55.3V15.557h.722c1.829,0,3.323-1.919,3.323-3.818S62.706,7.92,60.878,7.92ZM32.463,19.408A1.838,1.838,0,0,1,30.8,17.435a1.838,1.838,0,0,1,1.661-1.974,1.837,1.837,0,0,1,1.661,1.974A1.837,1.837,0,0,1,32.463,19.408ZM4.852,38.471h55.3V26.253H4.852Zm27.612-8.21a2,2,0,0,1,0,3.946,2,2,0,0,1,0-3.946ZM4.852,49.008V57.89c0,1.085.118,1.974,1.031,1.974h6.644c.914,0,1.328-.889,1.328-1.974V52.222h37.3V57.89c0,1.085.333,1.974,1.246,1.974h6.645c.911,0,1.111-.889,1.111-1.974V41.53H4.852Zm27.612-3.946a2,2,0,0,1,0,3.945,2,2,0,0,1,0-3.945Z" transform="translate(1330.81 432.36)" fill="#528e44"/>
      <path id="Icon_awesome-long-arrow-alt-right" data-name="Icon awesome-long-arrow-alt-right" d="M33.907,17.83H1.3a1.3,1.3,0,0,0-1.3,1.3v6.048a1.3,1.3,0,0,0,1.3,1.3H33.907v4.975a2.592,2.592,0,0,0,4.425,1.833l9.295-9.295a2.592,2.592,0,0,0,0-3.666l-9.295-9.295a2.592,2.592,0,0,0-4.425,1.833Z" transform="translate(972.4 485.634)" fill="#528e44"/>
      <path id="Icon_awesome-long-arrow-alt-right-2" data-name="Icon awesome-long-arrow-alt-right" d="M33.907,17.83H1.3a1.3,1.3,0,0,0-1.3,1.3v6.048a1.3,1.3,0,0,0,1.3,1.3H33.907v4.975a2.592,2.592,0,0,0,4.425,1.833l9.295-9.295a2.592,2.592,0,0,0,0-3.666l-9.295-9.295a2.592,2.592,0,0,0-4.425,1.833Z" transform="translate(1199.473 485.634)" fill="#528e44"/>
    </g>
    <g id="グループ_1906" data-name="グループ 1906" transform="translate(516.394 355.604)">
      <g id="ロゴタイプ_英_" data-name="ロゴタイプ（英）" transform="translate(129.796 140.409)">
        <path id="パス_2789" data-name="パス 2789" d="M272.325,201.107V193.78a6.174,6.174,0,0,0-6.186-6.186h-9.28a1.971,1.971,0,0,1-1.38-.524,1.677,1.677,0,0,1-.571-1.284V183.93a1.752,1.752,0,0,1,.571-1.309,1.923,1.923,0,0,1,1.38-.547h11.468a3.17,3.17,0,0,0,2.355-1,3.288,3.288,0,0,0,.976-2.38,3.135,3.135,0,0,0-.976-2.331,3.251,3.251,0,0,0-2.355-.952H254.05a6.173,6.173,0,0,0-6.185,6.139v6.139a6.173,6.173,0,0,0,6.185,6.186h9.281a1.974,1.974,0,0,1,1.379.523,1.678,1.678,0,0,1,.571,1.285v3.093a1.747,1.747,0,0,1-.571,1.309,1.923,1.923,0,0,1-1.379.547H251.006a3.331,3.331,0,1,0,0,6.662h15.132a6.174,6.174,0,0,0,6.186-6.188Z" transform="translate(-247.675 -174.888)" fill="#4ca223"/>
        <path id="パス_2790" data-name="パス 2790" d="M347.265,204.3a2.663,2.663,0,0,0-.095-1l-6.139-24.459a5.2,5.2,0,0,0-1.737-2.761,4.569,4.569,0,0,0-3.021-1.1H329.9a4.661,4.661,0,0,0-3.046,1.1,4.877,4.877,0,0,0-1.713,2.761L318.952,203.3a2.591,2.591,0,0,0-.1,1,3.247,3.247,0,0,0,1.166,2.308,3.407,3.407,0,0,0,2.546.833,3.174,3.174,0,0,0,3.284-2.569l1.951-8.089a1.152,1.152,0,0,1,1.237-.953h8.042a1.153,1.153,0,0,1,1.237.953l1.95,8.089a3.22,3.22,0,0,0,3.283,2.569,3.49,3.49,0,0,0,2.571-.833A3.063,3.063,0,0,0,347.265,204.3Zm-11.039-16.036a.715.715,0,0,1-.809.808h-4.663a.714.714,0,0,1-.809-.808v-.191l1.427-5.711a.714.714,0,0,1,.761-.618h1.9a.715.715,0,0,1,.761.618l1.38,5.711A.443.443,0,0,1,336.226,188.265Z" transform="translate(-286.917 -174.654)" fill="#4ca223"/>
        <path id="パス_2791" data-name="パス 2791" d="M422.716,187.927V183.6a8.2,8.2,0,0,0-8.232-8.186H402.111a3.66,3.66,0,0,0-2.594,1,3.2,3.2,0,0,0-1.069,2.427v25.6a3.136,3.136,0,0,0,1.022,2.355,3.689,3.689,0,0,0,5,0,3.134,3.134,0,0,0,1.023-2.355v-7.423q0-.9,1-.9h7.994a8.2,8.2,0,0,0,8.232-8.185Zm-7.041-1.619a2.914,2.914,0,0,1-.953,2.191,3.205,3.205,0,0,1-2.284.9H406.49q-1,0-1-.953v-5.424q0-.952,1-.952h5.947a3.2,3.2,0,0,1,2.284.9,2.907,2.907,0,0,1,.953,2.189Z" transform="translate(-330.809 -174.888)" fill="#4ca223"/>
        <path id="パス_2792" data-name="パス 2792" d="M492.419,198.66V183.672a8.449,8.449,0,0,0-8.47-8.472h-6.711a8.449,8.449,0,0,0-8.469,8.472V198.66a8.449,8.449,0,0,0,8.469,8.471h6.711a8.449,8.449,0,0,0,8.47-8.471Zm-7.044-.666a2.354,2.354,0,0,1-.737,1.761,2.536,2.536,0,0,1-1.833.713H478.38a2.555,2.555,0,0,1-1.808-.713,2.319,2.319,0,0,1-.762-1.761V184.338a2.347,2.347,0,0,1,.762-1.737,2.509,2.509,0,0,1,1.808-.738H482.8a2.49,2.49,0,0,1,1.833.738,2.382,2.382,0,0,1,.737,1.737Z" transform="translate(-369.582 -174.772)" fill="#4ca223"/>
        <path id="パス_2793" data-name="パス 2793" d="M560.124,203.272a3.288,3.288,0,0,0-.977-2.378,3.175,3.175,0,0,0-2.356-1h-10.61a1.262,1.262,0,0,1-1.428-1.428v-20.89a3.134,3.134,0,0,0-1.024-2.355,3.684,3.684,0,0,0-5,0,3.132,3.132,0,0,0-1.025,2.355v23.317a5.692,5.692,0,0,0,5.711,5.711h13.371a3.334,3.334,0,0,0,3.333-3.333Z" transform="translate(-407.595 -174.245)" fill="#4ca223"/>
      </g>
      <g id="ロゴタイプ_カナ_" data-name="ロゴタイプ（カナ）" transform="translate(174.708 177.199)">
        <path id="パス_2794" data-name="パス 2794" d="M361.689,261.864a1.237,1.237,0,0,0-.366-.892,1.185,1.185,0,0,0-.883-.375h-.517c-.238,0-.359-.114-.359-.34v-.873a1.176,1.176,0,0,0-.383-.885,1.387,1.387,0,0,0-1.875,0,1.177,1.177,0,0,0-.383.885v.873c0,.226-.124.34-.374.34h-3.623c-.239,0-.357-.114-.357-.34v-.8a1.262,1.262,0,0,0-.394-.936,1.315,1.315,0,0,0-2.247.936v.8c0,.226-.124.34-.374.34h-.519a1.185,1.185,0,0,0-.883.375,1.233,1.233,0,0,0-.366.892,1.249,1.249,0,0,0,1.249,1.249h.519c.25,0,.374.118.374.356v1.16a1.321,1.321,0,0,0,2.641,0v-1.16a.314.314,0,0,1,.357-.356h3.623c.249,0,.374.118.374.356v3.659a.649.649,0,0,1-.223.493.75.75,0,0,1-.527.2h-3.5a1.258,1.258,0,0,0,0,2.516h4.407a2.465,2.465,0,0,0,2.48-2.464v-4.407a.316.316,0,0,1,.359-.356h.517a1.25,1.25,0,0,0,1.249-1.249Z" transform="translate(-347.788 -257.291)" fill="#4ca223"/>
        <g id="グループ_1886" data-name="グループ 1886" transform="translate(17.42)">
          <g id="グループ_1885" data-name="グループ 1885" transform="translate(0 0.452)">
            <path id="パス_2795" data-name="パス 2795" d="M399.449,260.525a1.2,1.2,0,0,0-.365-.883,1.226,1.226,0,0,0-.9-.366H394.7a.315.315,0,0,1-.358-.356v-.428a1.152,1.152,0,0,0-.384-.868,1.385,1.385,0,0,0-1.873,0,1.163,1.163,0,0,0-.383.868v.428c0,.236-.127.356-.376.356h-3.463a1.25,1.25,0,0,0,0,2.5h3.463c.249,0,.376.118.376.354v6.408a1.32,1.32,0,0,0,2.641,0V262.13a.314.314,0,0,1,.358-.354h3.479a1.237,1.237,0,0,0,.892-.368A1.188,1.188,0,0,0,399.449,260.525Z" transform="translate(-386.619 -257.26)" fill="#4ca223"/>
            <path id="パス_2796" data-name="パス 2796" d="M390.777,271.7a1.52,1.52,0,0,0,.089-.517,1.214,1.214,0,0,0-.8-1.213,1.292,1.292,0,0,0-.517-.107,1.2,1.2,0,0,0-1.194.8l-1.626,3.8a1.318,1.318,0,0,0-.105.519,1.2,1.2,0,0,0,.8,1.2,1.288,1.288,0,0,0,.517.107,1.215,1.215,0,0,0,1.213-.783Z" transform="translate(-386.619 -264.209)" fill="#4ca223"/>
            <path id="パス_2797" data-name="パス 2797" d="M409.894,274.464l-1.606-3.8a1.221,1.221,0,0,0-1.214-.8,1.3,1.3,0,0,0-.517.107,1.214,1.214,0,0,0-.8,1.213,1.3,1.3,0,0,0,.105.517l1.608,3.8a1.216,1.216,0,0,0,1.213.783,1.29,1.29,0,0,0,.518-.107,1.2,1.2,0,0,0,.8-1.2A1.318,1.318,0,0,0,409.894,274.464Z" transform="translate(-397.17 -264.209)" fill="#4ca223"/>
          </g>
          <path id="パス_2798" data-name="パス 2798" d="M409.369,259.635a1.691,1.691,0,1,1,1.691-1.691A1.694,1.694,0,0,1,409.369,259.635Zm0-2.478a.787.787,0,1,0,.788.787A.788.788,0,0,0,409.369,257.157Z" transform="translate(-398.231 -256.253)" fill="#4ca223"/>
        </g>
        <path id="パス_2799" data-name="パス 2799" d="M435.573,270.26a1.226,1.226,0,0,0-.367-.9,1.207,1.207,0,0,0-.882-.364h-10.01a1.21,1.21,0,0,0-.886.364,1.229,1.229,0,0,0-.365.9,1.248,1.248,0,0,0,1.251,1.249h10.01a1.251,1.251,0,0,0,1.249-1.249Z" transform="translate(-389.293 -263.279)" fill="#4ca223"/>
        <g id="グループ_1887" data-name="グループ 1887" transform="translate(49.798 0.654)">
          <path id="パス_2800" data-name="パス 2800" d="M462.635,259.2a1.269,1.269,0,0,0-.266-.981,1.25,1.25,0,0,0-.894-.482,1.263,1.263,0,0,0-.964.258,1.287,1.287,0,0,0-.5.885l-1.213,9.761a1.306,1.306,0,0,0,.276.964,1.271,1.271,0,0,0,.883.5,1.225,1.225,0,0,0,.964-.268,1.282,1.282,0,0,0,.5-.874Z" transform="translate(-458.792 -257.716)" fill="#4ca223"/>
          <path id="パス_2801" data-name="パス 2801" d="M478.325,267.436v-3.874a1.154,1.154,0,0,0-.382-.864,1.383,1.383,0,0,0-1.875,0,1.156,1.156,0,0,0-.383.864V266.7a.65.65,0,0,1-.215.49.718.718,0,0,1-.516.205h-1.125a.331.331,0,0,1-.375-.375v-7.992a1.32,1.32,0,1,0-2.64,0v9.617a1.206,1.206,0,0,0,.366.885,1.222,1.222,0,0,0,.9.365h3.765a2.468,2.468,0,0,0,2.48-2.462Z" transform="translate(-465.42 -257.71)" fill="#4ca223"/>
        </g>
      </g>
      <g id="ロゴマーク" transform="translate(33.888 112.879)">
        <g id="目" transform="translate(38.93 27.915)">
          <path id="パス_2802" data-name="パス 2802" d="M122.819,188.487c1.19,0,2.153-2.165,2.153-4.837s-.964-4.837-2.153-4.837-2.154,2.165-2.154,4.837S121.628,188.487,122.819,188.487Z" transform="translate(-120.665 -177.149)" fill="#4ca223"/>
          <path id="パス_2803" data-name="パス 2803" d="M155.729,184.776c1.19,0,2.154-2.165,2.154-4.836s-.964-4.837-2.154-4.837-2.152,2.165-2.152,4.837S154.541,184.776,155.729,184.776Z" transform="translate(-138.812 -175.103)" fill="#4ca223"/>
        </g>
        <path id="取手" d="M139.468,216.414a3.05,3.05,0,0,0-.529-3.081c-.841-1.069-1.168-1.58-1.175-1.592a1.72,1.72,0,0,0-2.919,1.82c.037.06.362.572,1.192,1.647a3.088,3.088,0,0,1-.743.19l-17.019,2.384a4.539,4.539,0,0,1-3.639-.926l-1.515-2.175a1.72,1.72,0,1,0-2.823,1.967l1.517,2.175c1.036,1.486,3.378,2.447,5.757,2.447a8.584,8.584,0,0,0,1.18-.082L135.77,218.8A4.38,4.38,0,0,0,139.468,216.414Z" transform="translate(-75.849 -166.944)" fill="#4ca223"/>
        <path id="パス_2804" data-name="パス 2804" d="M118.006,153.744c-.018-4.291-2.5-7.758-5.536-7.746a4.082,4.082,0,0,0-1.84.463V122.5a10.846,10.846,0,0,0-10.681-9.621H44.569A10.691,10.691,0,0,0,33.888,123.56v63.29a10.692,10.692,0,0,0,10.681,10.679h5.516A9.494,9.494,0,0,0,60.7,204.294l39.715-5.672a12.276,12.276,0,0,0,10.211-11.772V172.875a12.193,12.193,0,0,0,3.664-4.053,10.281,10.281,0,0,0,.627-8.076C116.756,159.481,118.019,156.823,118.006,153.744ZM105.09,186.849a6.636,6.636,0,0,1-5.453,6.289L59.92,198.812l-.3.044.3-.044a4.029,4.029,0,0,1-4.671-4.052V131.471a6.634,6.634,0,0,1,5.454-6.289l39.715-5.674a4,4,0,0,1,4.672,4.051v49.487a42.311,42.311,0,0,1-9.958,2.44,2.336,2.336,0,0,0-2.51-1.627L83.8,174.893a2.346,2.346,0,0,0-2.057,2.6l.214,1.839a2.346,2.346,0,0,0,2.33,2.076,2.411,2.411,0,0,0,.276-.016l8.822-1.033a2.343,2.343,0,0,0,2.061-2.411,47.48,47.48,0,0,0,9.645-2.239ZM59.335,198.9l.151-.022ZM112.1,167.643a8.593,8.593,0,0,1-1.468,1.959v-8.545a4.1,4.1,0,0,0,1.9.478l.026,0A7.839,7.839,0,0,1,112.1,167.643Z" transform="translate(-33.888 -112.879)" fill="#4ca223"/>
      </g>
    </g>
  </g>
</svg>
